<svg width="283" height="348" viewBox="0 0 283 348" fill="none" xmlns="http://www.w3.org/2000/svg">
<path opacity="0.42" d="M35.655 111.765L48.868 89.5094L13.2131 68.3416L21.0491 55.1427L84.8786 18.4589L108.602 32.543L75.3319 88.5824L87.5602 95.8422L80.2565 108.144L68.0282 100.885L54.8152 123.14L35.655 111.765ZM37.6108 66.1811L56.1746 77.2022L79.5493 37.8302L37.6108 66.1811Z" fill="#455A64"/>
<path opacity="0.42" d="M188.612 202.573L201.825 180.318L166.17 159.15L174.006 145.951L237.835 109.267L261.558 123.351L228.288 179.39L240.516 186.65L233.212 198.952L220.985 191.693L207.772 213.948L188.612 202.573ZM190.567 156.989L209.131 168.01L232.506 128.638L190.567 156.989Z" fill="#455A64"/>
<path d="M44.5428 117.042L57.7558 94.7858L22.0935 73.6135L29.9294 60.4147L93.759 23.7309L117.489 37.8194L84.2196 93.8587L96.4471 101.118L89.1434 113.42L76.9159 106.161L63.703 128.417L44.5428 117.042ZM46.4928 71.454L65.0624 82.4786L88.4371 43.1066L46.4928 71.454Z" fill="#455A64"/>
<path d="M197.499 207.85L210.712 185.595L175.05 164.422L182.886 151.224L246.714 114.539L270.43 128.619L237.161 184.658L249.389 191.918L242.085 204.22L229.859 196.962L216.646 219.217L197.499 207.85ZM199.449 162.263L218.019 173.287L241.394 133.915L199.449 162.263Z" fill="#455A64"/>
<path opacity="0.42" d="M108.094 156.59C101.119 152.449 96.0128 147.904 92.7755 142.955C89.529 137.992 87.8561 132.628 87.9713 127.55C88.1231 121.807 89.7028 116.456 92.607 111.845L116.446 71.6922C119.143 66.8517 123.082 62.7869 128.031 59.7378C132.347 57.1142 137.835 55.9603 143.743 56.434C149.64 56.9128 156.164 59.2724 163.314 63.5131C170.465 67.7537 175.672 72.3583 178.935 77.3269C182.18 82.2872 183.794 87.6577 183.557 92.7031C183.441 98.0043 181.805 103.311 178.652 108.623L154.813 148.776C152.153 153.53 148.214 157.48 143.252 160.37C138.848 162.899 133.338 163.998 127.427 163.528C121.513 163.043 115.069 160.731 108.094 156.59ZM115.996 143.279C119.043 145.088 121.725 145.718 124.042 145.169C126.461 144.568 128.525 143.405 130.053 141.779C131.684 140.101 133.098 138.257 134.277 136.267L157.851 96.559C159.089 94.4819 160.101 92.2756 160.879 89.962C161.643 87.8716 161.72 85.5082 161.103 83.0962C160.476 80.7991 158.59 78.7169 155.445 76.8494C152.299 74.982 149.568 74.323 147.251 74.8723C144.823 75.4876 142.772 76.6926 141.293 78.3731C139.631 80.1612 138.175 82.1044 136.94 84.1836L113.366 123.892C112.19 125.88 111.28 128.019 110.65 130.276C109.994 132.419 109.981 134.796 110.612 137.212C111.257 139.509 113.052 141.532 115.996 143.279Z" fill="#455A64"/>
<path d="M116.981 161.866C110.006 157.725 104.898 153.179 101.656 148.228C98.4131 143.264 96.7405 137.9 96.852 132.823C97.0141 127.083 98.596 121.734 101.495 117.122L125.334 76.969C128.031 72.1292 131.968 68.0634 136.912 65.0107C141.233 62.3907 146.722 61.2384 152.631 61.7109C158.523 62.1867 165.047 64.5463 172.203 68.7899C179.358 73.0334 184.553 77.631 187.788 82.5827C191.032 87.5444 192.648 92.9153 192.417 97.9629C192.104 103.765 190.419 109.168 187.462 113.854L163.623 154.007C160.963 158.761 157.024 162.711 152.061 165.6C147.671 168.131 142.177 169.239 136.279 168.783C130.388 168.313 123.956 166.007 116.981 161.866ZM124.883 148.556C127.93 150.365 130.612 150.994 132.929 150.445C135.347 149.845 137.408 148.679 138.93 147.049C140.576 145.382 142.001 143.544 143.189 141.559L166.764 101.85C168.001 99.7734 169.014 97.5671 169.791 95.2534C170.561 93.15 170.635 90.7702 170.006 88.3429C169.372 86.0419 167.486 83.9596 164.347 82.0961C161.208 80.2326 158.477 79.5736 156.154 80.119C153.722 80.729 151.668 81.9332 150.189 83.6159C148.53 85.4063 147.078 87.3516 145.847 89.4327L122.273 129.141C121.097 131.137 120.188 133.284 119.561 135.55C118.907 137.694 118.897 140.073 119.53 142.49C120.155 144.786 121.939 146.808 124.883 148.556Z" fill="#455A64"/>
<path d="M163.373 74.2301C158.083 71.3401 151.193 69.9901 144.373 70.1401C137.753 70.0701 135.803 67.2801 133.423 66.6401C131.043 66.0001 127.423 62.3501 125.093 63.2401C122.763 64.1301 122.893 69.5601 121.173 70.5801C119.453 71.6001 117.963 73.3001 118.043 77.7901L118.113 81.2601C118.113 81.2601 118.473 81.5101 119.003 81.9401C119.223 82.1201 119.483 82.3601 119.743 82.6001L119.953 82.8001C120.193 83.0401 120.443 83.3101 120.693 83.6001L120.993 83.9501C121.62 84.7095 122.129 85.5591 122.503 86.4701C123.023 87.7521 123.628 88.9981 124.313 90.2001C125.092 91.7134 126.387 92.8981 127.963 93.5401C128.783 93.9001 129.623 94.2401 130.473 94.5401C131.913 95.005 133.265 95.7081 134.473 96.6201C135.602 97.7052 136.639 98.8826 137.573 100.14C139.145 102.024 141.31 103.318 143.713 103.81C144.918 104.046 146.159 104.039 147.361 103.788C148.563 103.537 149.703 103.048 150.713 102.35C153.023 100.72 154.473 98.0801 156.783 96.4501C158.913 94.9601 161.513 94.4501 163.943 93.6501C166.373 92.8501 168.823 91.5901 170.183 89.4401C173.053 84.1601 170.723 78.2501 163.373 74.2301Z" fill="#C88368"/>
<path opacity="0.15" d="M153.303 90.58C150.997 91.7903 148.44 92.4459 145.836 92.4945C143.232 92.5431 140.653 91.9834 138.303 90.86C134.123 88.58 134.053 84.75 138.143 82.31C140.448 81.0951 143.005 80.437 145.61 80.3884C148.215 80.3398 150.795 80.902 153.143 82.03C157.323 84.31 157.393 88.14 153.303 90.58Z" fill="black"/>
<path opacity="0.5" d="M163.373 74.2301C158.083 71.3401 151.193 69.9901 144.373 70.1401C137.753 70.0701 135.803 67.2801 133.423 66.6401C132.224 66.2063 131.09 65.6108 130.053 64.8701C131.263 65.6101 131.113 66.9501 133.133 67.7201C135.153 68.4901 136.043 70.2401 138.833 70.8001C141.623 71.3601 150.903 70.9601 155.023 72.2601C159.143 73.5601 166.753 76.2601 168.873 80.8201C170.993 85.3801 169.523 89.6201 166.743 91.1001C164.343 92.3801 162.063 92.1001 161.503 93.4301C161.703 93.4149 161.903 93.4149 162.103 93.4301C162.243 93.4301 162.363 93.4901 162.503 93.5101C162.65 93.3816 162.824 93.2891 163.013 93.2401C165.563 92.6601 168.473 92.1801 170.163 89.4701C173.053 84.1601 170.723 78.2501 163.373 74.2301Z" fill="white"/>
<path opacity="0.5" d="M144.483 103.2C141.891 102.076 139.691 100.207 138.163 97.83C136.163 94.98 133.013 93.21 129.453 91.99C125.893 90.77 124.453 89.05 123.893 86.7C123.333 84.35 121.273 82.12 120.023 80.78C118.773 79.44 118.933 75.94 119.463 74.1C119.993 72.26 122.313 72.15 123.063 70.85C123.813 69.55 123.233 66.6 123.483 65.03C122.613 67.03 122.333 69.87 121.133 70.58C119.423 71.58 117.923 73.3 118.003 77.79L118.073 81.26C118.073 81.26 118.433 81.51 118.963 81.94C119.183 82.12 119.443 82.36 119.703 82.6L119.913 82.8C120.153 83.04 120.403 83.31 120.653 83.6L120.953 83.95C121.58 84.7095 122.089 85.559 122.463 86.47C123.613 89.47 125.003 91.77 126.773 92.41C129.632 93.3788 132.349 94.7239 134.853 96.41C135.611 97.0806 136.283 97.8432 136.853 98.68C137.233 99.16 137.623 99.68 138.063 100.16C139.282 101.655 140.958 102.708 142.833 103.16C143.413 103.18 143.953 103.19 144.483 103.2Z" fill="white"/>
<path d="M118.963 81.94C119.183 82.12 119.433 82.35 119.703 82.6C119.703 82.65 119.813 82.69 119.863 82.75C119.913 82.81 119.863 82.75 119.863 82.81C119.863 82.87 119.973 82.92 120.023 82.96C120.382 83.3171 120.716 83.698 121.023 84.1L121.343 84.52C121.483 84.72 121.613 84.92 121.743 85.13C121.766 85.1576 121.787 85.1878 121.803 85.22C121.91 85.4 122.01 85.58 122.103 85.76C122.17 85.8698 122.224 85.9873 122.263 86.11C122.321 86.2263 122.372 86.3466 122.413 86.47C123.563 89.47 124.953 91.77 126.723 92.41C129.582 93.3788 132.299 94.7239 134.803 96.41C135.561 97.0806 136.233 97.8432 136.803 98.68C137.183 99.16 137.573 99.68 138.013 100.16C138.766 101.071 139.692 101.822 140.739 102.37C141.786 102.917 142.931 103.251 144.108 103.351C145.285 103.45 146.47 103.314 147.594 102.95C148.718 102.586 149.758 102.001 150.653 101.23C151.053 100.86 151.473 100.39 151.923 99.89C152.373 99.39 152.793 98.89 153.223 98.37C153.816 97.6808 154.465 97.0419 155.163 96.46C158.303 94.05 160.043 93.94 162.933 93.27C165.493 92.69 168.403 92.21 170.093 89.5C170.867 88.0842 171.267 86.4938 171.253 84.88L171.493 291.45C171.498 293.512 170.854 295.524 169.653 297.2C168.125 299.31 166.161 301.067 163.893 302.35C153.613 308.47 136.773 308.78 126.273 303.05C121.013 300.18 118.343 296.35 118.273 292.45L118.393 105.01L118.153 85.87L118.073 81.29C118.073 81.29 118.433 81.51 118.963 81.94Z" fill="#C88368"/>
<path opacity="0.15" d="M119.894 83.2799C119.9 83.2798 119.914 83.2794 119.933 83.2776C119.899 83.2816 119.879 83.28 119.882 83.28L119.883 83.28L119.885 83.28L119.894 83.2799ZM119.701 83.3453C120.032 83.6774 120.341 84.0309 120.626 84.4034C120.626 84.4035 120.626 84.4036 120.626 84.4036L120.939 84.8149C121.07 85.0029 121.193 85.1923 121.318 85.3932L121.338 85.4249L121.359 85.4507L121.365 85.4615L121.373 85.4749C121.475 85.6471 121.57 85.8188 121.659 85.9902L121.667 86.0063L121.677 86.0218C121.723 86.0967 121.76 86.1771 121.786 86.261L121.798 86.299L121.816 86.3346C121.864 86.4297 121.905 86.5282 121.939 86.6291L121.942 86.6392L121.946 86.649C122.528 88.1674 123.18 89.5334 123.924 90.6095C124.665 91.6806 125.529 92.5102 126.553 92.8802L126.553 92.8803L126.563 92.8836C129.369 93.8345 132.037 95.1536 134.496 96.8063C135.214 97.4441 135.849 98.1679 136.39 98.9614L136.4 98.9763L136.411 98.9904C136.486 99.0853 136.563 99.1835 136.641 99.2838C136.946 99.673 137.276 100.095 137.636 100.488C138.429 101.446 139.405 102.236 140.507 102.813C141.613 103.391 142.823 103.744 144.066 103.849C145.309 103.954 146.561 103.81 147.748 103.426C148.936 103.041 150.034 102.423 150.979 101.609L150.986 101.603L150.993 101.597C151.393 101.226 151.809 100.764 152.232 100.294L152.295 100.225C152.751 99.7178 153.175 99.2126 153.605 98.6924C154.177 98.028 154.802 97.412 155.475 96.8506C157.005 95.6774 158.176 95.0768 159.306 94.6849C160.144 94.3939 160.955 94.2175 161.904 94.0113C162.262 93.9335 162.639 93.8514 163.045 93.7574C163.22 93.7177 163.398 93.6783 163.579 93.6384C165.978 93.1088 168.824 92.4804 170.517 89.7646L170.525 89.7525L170.532 89.74C170.611 89.5951 170.686 89.4485 170.758 89.3003L170.993 291.451V291.451C170.998 293.408 170.387 295.317 169.248 296.907C167.762 298.959 165.852 300.667 163.647 301.915L163.647 301.915L163.637 301.92C158.59 304.925 151.9 306.519 145.156 306.644C138.412 306.769 131.668 305.425 126.513 302.611C121.345 299.792 118.841 296.099 118.773 292.446L118.893 105.01H118.893L118.893 105.004L118.653 85.8638L118.653 85.8613L118.59 82.2819C118.609 82.2969 118.628 82.3121 118.647 82.3277C118.837 82.4829 119.054 82.681 119.3 82.9082C119.322 82.9406 119.343 82.9647 119.358 82.9799C119.374 82.9974 119.391 83.0131 119.407 83.0268C119.434 83.0886 119.467 83.1358 119.492 83.1671C119.542 83.2294 119.597 83.272 119.627 83.2943C119.656 83.316 119.686 83.3354 119.701 83.3453ZM119.517 83.1088C119.519 83.1099 119.519 83.1097 119.517 83.1082L119.517 83.1088Z" fill="white" stroke="black"/>
<path d="M131.113 124.08C130.89 122.885 130.555 121.713 130.113 120.58C129.696 119.401 129.362 118.195 129.113 116.97C128.738 114.428 128.568 111.86 128.603 109.29C128.603 106.62 128.603 103.94 128.443 101.29C128.443 100.55 128.373 99.81 128.353 99.07C128.353 98.99 128.253 98.97 128.253 99.07C128.193 101.737 128.16 104.427 128.153 107.14C128.153 109.64 128.083 112.14 128.293 114.63C128.382 115.831 128.555 117.024 128.813 118.2C129.083 119.41 129.493 120.58 129.813 121.78C130.423 123.86 130.933 126.32 129.743 128.31C128.813 129.86 126.453 130.82 125.033 129.31C123.393 127.58 124.153 124.88 124.453 122.81C125.173 117.87 126.673 112.81 126.543 107.86C126.463 105.03 126.313 102.2 126.133 99.37C126.097 96.6085 125.593 93.8731 124.643 91.28C124.643 91.15 124.453 91.28 124.493 91.37C125.493 93.9 125.443 96.59 125.563 99.26C125.683 101.93 125.793 104.48 125.863 107.09C126.013 112.41 124.503 117.78 123.683 123.09C123.353 125.21 122.803 127.72 124.333 129.54C124.956 130.223 125.818 130.639 126.74 130.703C127.662 130.766 128.573 130.471 129.283 129.88C131.053 128.51 131.413 126.1 131.113 124.08Z" fill="#263238"/>
<path opacity="0.15" d="M127.593 125.63C127.463 126.52 127.033 127.34 126.933 128.24C126.904 128.317 126.904 128.403 126.933 128.48C126.964 128.512 127.001 128.537 127.043 128.555C127.084 128.572 127.128 128.58 127.173 128.58C127.481 128.594 127.787 128.533 128.066 128.402C128.344 128.272 128.587 128.075 128.773 127.83C129.134 127.33 129.358 126.744 129.423 126.13C129.563 125.19 129.563 122.27 128.423 121.82C127.113 121.31 127.713 124.87 127.593 125.63Z" fill="white"/>
<path opacity="0.05" d="M142.813 73.4401C150.163 72.6101 162.963 75.1701 166.463 81.3401C169.963 87.5101 165.093 90.4401 165.093 90.4401C165.093 90.4401 167.723 84.9001 161.533 80.4401C156.046 76.4478 149.573 74.0276 142.813 73.4401Z" fill="black"/>
<path opacity="0.05" d="M134.663 73.8701C125.893 75.2401 122.953 79.7401 123.283 82.7801C123.283 82.7801 120.863 80.7301 120.833 78.9801C120.803 77.2301 123.063 75.7301 124.133 74.4401C125.203 73.1501 124.973 69.1501 127.053 69.1201C128.933 69.1301 129.423 73.3501 134.663 73.8701Z" fill="black"/>
<path d="M147.293 68.15C156.893 67.47 163.883 56.86 157.173 41.94C150.683 27.49 146.293 19.01 148.783 4C148.783 4 142.783 12 137.603 26.31C134.323 35.45 132.893 41.92 132.453 47.77C131.423 61.47 138.213 68.15 147.293 68.15Z" fill="#C88368"/>
<path opacity="0.8" d="M147.293 68.15C156.893 67.47 163.883 56.86 157.173 41.94C150.683 27.49 146.293 19.01 148.783 4C148.783 4 142.783 12 137.603 26.31C134.323 35.45 132.893 41.92 132.453 47.77C131.423 61.47 138.213 68.15 147.293 68.15Z" fill="#455A64"/>
<path d="M147.143 67.2501C150.203 66.9901 153.413 63.3101 154.913 60.3901C157.113 56.1101 156.683 49.8201 153.803 43.3901L152.743 41.0401C149.033 32.8201 145.963 26.0401 144.853 18.3201C143.603 20.9801 142.313 24.0501 141.083 27.4901C138.083 35.8001 136.573 42.1301 136.133 48.0101C135.693 53.8901 136.263 58.1801 139.063 61.7901C141.163 64.5201 144.913 67.2301 147.143 67.2501Z" fill="#455A64"/>
<path d="M147.613 66.7801C150.273 64.8701 152.203 61.5601 151.303 56.7201C150.403 51.8801 145.763 45.5201 145.763 43.3501C145.763 43.3501 141.513 51.2501 141.393 55.9601C141.273 60.6701 142.253 64.2301 147.613 66.7801Z" fill="#C88368"/>
<path opacity="0.8" d="M147.613 66.7801C150.273 64.8701 152.203 61.5601 151.303 56.7201C150.403 51.8801 145.763 45.5201 145.763 43.3501C145.763 43.3501 141.513 51.2501 141.393 55.9601C141.273 60.6701 142.253 64.2301 147.613 66.7801Z" fill="#848484"/>
<path d="M146.383 86.0401C146.167 85.7479 146.019 85.4119 145.948 85.0558C145.877 84.6997 145.886 84.3325 145.973 83.9801C146.123 83.4201 146.203 82.8401 146.323 82.2601C146.513 81.1101 146.673 79.9401 146.783 78.7501C146.883 77.5421 146.883 76.328 146.783 75.1201C146.703 73.8601 146.573 72.6001 146.433 71.3401C146.163 68.8101 145.813 66.2101 145.793 63.5701C145.78 60.9583 146.072 58.354 146.663 55.8101H146.873C146.744 58.3527 146.868 60.9019 147.243 63.4201C147.643 65.9101 148.323 68.3601 148.883 70.9001C149.153 72.1701 149.423 73.4501 149.643 74.7401C149.885 76.1042 150.022 77.4849 150.053 78.8701C150.104 80.2617 149.969 81.6539 149.653 83.0101C149.49 83.6917 149.276 84.3602 149.013 85.0101C148.869 85.4085 148.618 85.7599 148.289 86.0261C147.959 86.2923 147.563 86.4631 147.143 86.5201L146.383 86.0401Z" fill="#37474F"/>
<path d="M134.979 161.101C135.018 163.996 133.348 166.409 131.249 166.409C129.15 166.409 127.418 164.093 127.389 161.178C127.36 158.264 129.025 155.871 131.124 155.871C133.223 155.871 134.945 158.182 134.979 161.101Z" fill="#263238"/>
<path d="M133.435 158.674C133.585 159.798 133.16 160.788 132.47 160.879C131.78 160.971 131.124 160.131 130.969 159.002C130.815 157.873 131.244 156.889 131.934 156.797C132.624 156.705 133.3 157.545 133.435 158.674Z" fill="white"/>
<path d="M161.068 160.512C161.107 163.432 159.437 165.82 157.338 165.844C155.24 165.868 153.507 163.528 153.478 160.614C153.449 157.699 155.109 155.306 157.208 155.306C159.307 155.306 161.03 157.588 161.068 160.512Z" fill="#263238"/>
<path d="M159.394 157.791C159.544 158.92 159.119 159.904 158.429 159.996C157.739 160.088 157.083 159.248 156.928 158.124C156.774 157 157.203 156.011 157.893 155.919C158.583 155.827 159.24 156.667 159.394 157.791Z" fill="white"/>
<path d="M159.365 185.965C159.196 185.964 159.033 185.905 158.903 185.796C158.774 185.688 158.686 185.538 158.656 185.372C157.42 178.718 151.741 173.825 145.145 173.743H144.967C141.872 173.766 138.872 174.813 136.436 176.723C134 178.632 132.266 181.296 131.505 184.296C131.48 184.388 131.438 184.474 131.38 184.549C131.323 184.625 131.251 184.688 131.169 184.736C131.086 184.784 130.996 184.815 130.901 184.827C130.807 184.84 130.711 184.834 130.619 184.81C130.528 184.785 130.441 184.743 130.366 184.685C130.29 184.627 130.227 184.555 130.179 184.473C130.131 184.391 130.1 184.3 130.088 184.206C130.075 184.112 130.081 184.016 130.106 183.924C130.947 180.617 132.86 177.682 135.546 175.577C138.232 173.472 141.54 172.317 144.952 172.291H145.15C152.426 172.382 158.699 177.772 160.06 185.101C160.077 185.195 160.076 185.291 160.056 185.384C160.037 185.477 159.999 185.565 159.945 185.644C159.891 185.722 159.823 185.789 159.743 185.841C159.663 185.893 159.574 185.928 159.481 185.946L159.365 185.965Z" fill="#263238"/>
<path d="M122.062 156.691C121.55 156.725 121.046 156.554 120.66 156.216C120.274 155.878 120.038 155.401 120.004 154.889C119.97 154.377 120.141 153.873 120.479 153.487C120.817 153.101 121.295 152.865 121.806 152.831C121.913 152.831 132.19 151.383 138.352 146.727C138.554 146.574 138.784 146.463 139.029 146.399C139.275 146.334 139.53 146.319 139.781 146.354C140.033 146.389 140.274 146.473 140.493 146.601C140.712 146.729 140.903 146.899 141.056 147.101C141.209 147.303 141.321 147.534 141.385 147.779C141.449 148.024 141.464 148.28 141.429 148.531C141.395 148.782 141.311 149.024 141.183 149.243C141.054 149.461 140.884 149.653 140.682 149.806C133.7 155.089 122.781 156.595 122.318 156.657L122.062 156.691Z" fill="#263238"/>
<path d="M166.149 159.036C165.961 159.037 165.774 159.01 165.594 158.954C156.383 156.189 147.563 149.757 147.191 149.487C146.779 149.184 146.503 148.729 146.426 148.223C146.349 147.717 146.476 147.2 146.779 146.788C147.082 146.375 147.537 146.1 148.043 146.022C148.549 145.945 149.066 146.072 149.478 146.375C149.56 146.438 158.164 152.691 166.704 155.258C167.147 155.392 167.528 155.68 167.776 156.071C168.025 156.461 168.124 156.928 168.057 157.386C167.99 157.845 167.76 158.263 167.41 158.566C167.06 158.869 166.612 159.036 166.149 159.036Z" fill="#263238"/>
<path d="M121.5 243L120.74 242.6L120.97 239.16C120.97 239.16 120.97 239.22 120.97 239.24C121.48 235.92 117.67 232.77 111.77 232.03L109.4 231.73L108.88 230.36C107.4 226.45 100.43 224.13 93.8299 225.36L91.5199 225.79L89.8799 224.79C85.2199 221.84 77.1599 221.84 72.4999 224.79L70.8599 225.79L68.5499 225.36C61.9499 224.15 54.9699 226.47 53.5499 230.36L53.0299 231.73L50.6599 232.03C44.7599 232.77 40.9499 235.92 41.4599 239.24C41.4542 239.214 41.4542 239.186 41.4599 239.16L41.6899 242.6L40.9299 243C38.0999 244.49 36.8299 246.57 37.1299 248.6V248.39L42.3099 318C42.4499 319.51 43.5599 321 45.6599 322.1L45.8299 322.19L46.0999 326.11C46.1725 326.983 46.5229 327.81 47.0999 328.47C47.6397 329.103 48.2819 329.64 48.9999 330.06C50.3504 330.838 51.8312 331.363 53.3699 331.61L54.2399 331.75L56.3299 332.01L56.7799 333.21C57.8299 336.01 62.0899 337.88 66.7799 337.91C67.873 337.921 68.9647 337.827 70.0399 337.63L72.0399 337.25L73.4799 338.16C77.5799 340.76 84.6599 340.76 88.7699 338.16L90.2099 337.25L92.2099 337.63C98.0099 338.69 104.15 336.63 105.45 333.21L105.9 332.01L107.99 331.75C112.75 331.14 115.99 328.75 116.12 326.11L116.4 322.19L116.56 322.1C118.67 320.99 119.78 319.51 119.92 318L125.24 248.47V248.68C125.58 246.6 124.31 244.52 121.5 243Z" fill="white"/>
<path opacity="0.5" d="M41.3501 239.19L41.5801 242.63L42.5801 242.08L41.8501 240.75C41.5852 240.266 41.4155 239.737 41.3501 239.19ZM120.42 240.75L119.69 242.08L120.69 242.63L120.92 239.19C120.85 239.736 120.681 240.265 120.42 240.75Z" fill="#C88368"/>
<path opacity="0.8" d="M81.1499 269.96C102.109 269.96 119.1 260.15 119.1 248.05C119.1 235.949 102.109 226.14 81.1499 226.14C60.1907 226.14 43.2 235.949 43.2 248.05C43.2 260.15 60.1907 269.96 81.1499 269.96Z" fill="#C88368"/>
<path opacity="0.1" d="M107.98 232.56C106.504 231.707 104.974 230.952 103.4 230.3C104.698 231.735 105.834 233.308 106.79 234.99C109.36 239.56 110.32 245.27 108.32 250.13C106.43 254.74 102.14 258.02 97.5401 259.94C86.9101 264.35 74.3501 262.3 64.3701 256.55C60.5401 254.35 56.8801 251.47 55.0601 247.46C54.1569 245.304 53.7373 242.976 53.8306 240.64C53.9239 238.304 54.5279 236.017 55.6001 233.94C56.1152 232.889 56.7208 231.885 57.4101 230.94C56.3501 231.44 55.3101 231.94 54.3201 232.55C39.5001 241.1 39.5001 254.97 54.3201 263.55C69.1401 272.13 93.1601 272.1 107.98 263.55C122.8 255 122.8 241.11 107.98 232.56Z" fill="#C88368"/>
<path opacity="0.5" d="M111.19 245C109.979 244.047 108.703 243.182 107.37 242.41C92.8901 234.06 69.3701 234.06 54.9401 242.41C53.604 243.182 52.3242 244.047 51.1101 245C46.2601 248.86 43.9201 253.45 44.1101 258V258.66L47.7601 314.24V314.53C48.0801 319.21 51.3201 323.83 57.5101 327.4C70.5101 334.93 91.6801 334.93 104.71 327.4C110.9 323.83 114.14 319.21 114.46 314.53V314.24L118.11 258.66V258C118.38 253.43 116.04 248.85 111.19 245Z" fill="#F0F0F0"/>
<path d="M90.1499 252.34C95.1499 255.21 95.1499 259.86 90.1499 262.73C85.1499 265.6 77.1499 265.6 72.1499 262.73C67.1499 259.86 67.1499 255.21 72.1499 252.34C77.1499 249.47 85.1799 249.47 90.1499 252.34Z" fill="#FAFAFA"/>
<path d="M93.6299 259C92.9726 260.644 91.7341 261.989 90.1499 262.78C85.1499 265.65 77.1499 265.65 72.1499 262.78C70.5658 261.986 69.3252 260.642 68.6599 259C67.8699 256.69 69.0299 254.19 72.1499 252.39C77.1499 249.52 85.1499 249.52 90.1499 252.39C93.2699 254.14 94.4299 256.64 93.6299 259Z" fill="white"/>
<path d="M93.6299 259C92.9726 260.644 91.7342 261.989 90.1499 262.78C85.1499 265.65 77.1499 265.65 72.1499 262.78C70.5658 261.986 69.3252 260.642 68.6599 259C69.3276 257.359 70.5675 256.016 72.1499 255.22C77.1499 252.36 85.1499 252.36 90.1499 255.22C91.7319 256.013 92.9695 257.358 93.6299 259Z" fill="#F0F0F0"/>
<path d="M121.5 243L119.71 242.05L120.44 240.72C122.54 236.91 118.52 232.88 111.75 232.03L109.38 231.73L108.86 230.36C107.38 226.45 100.41 224.13 93.81 225.36L91.5 225.79L89.8601 224.79C85.2001 221.84 77.14 221.84 72.48 224.79L70.84 225.79L68.53 225.36C61.93 224.15 54.95 226.47 53.53 230.36L53.01 231.73L50.64 232.03C43.87 232.88 39.85 236.91 41.95 240.72L42.68 242.05L40.89 243C35.77 245.69 35.77 250.34 40.89 253L42.68 253.95L41.95 255.28C39.85 259.09 43.87 263.12 50.64 263.97L53.01 264.27L53.53 265.64C55 269.55 61.98 271.87 68.53 270.64L70.84 270.22L72.48 271.22C77.14 274.22 85.2001 274.22 89.8601 271.22L91.5 270.22L93.81 270.64C100.41 271.85 107.38 269.52 108.86 265.64L109.38 264.27L111.75 263.97C118.52 263.12 122.54 259.09 120.44 255.28L119.71 253.95L121.5 253C126.6 250.37 126.6 245.72 121.5 243ZM108 263.51C93.18 272.06 69.16 272.06 54.34 263.51C39.52 254.96 39.52 241.08 54.34 232.51C69.16 223.94 93.18 223.95 108 232.51C122.82 241.07 122.8 255 107.98 263.54L108 263.51Z" fill="white"/>
<path opacity="0.8" d="M121.5 243L119.71 242.05L120.44 240.72C122.54 236.91 118.52 232.88 111.75 232.03L109.38 231.73L108.86 230.36C107.38 226.45 100.41 224.13 93.81 225.36L91.5 225.79L89.8601 224.79C85.2001 221.84 77.14 221.84 72.48 224.79L70.84 225.79L68.53 225.36C61.93 224.15 54.95 226.47 53.53 230.36L53.01 231.73L50.64 232.03C43.87 232.88 39.85 236.91 41.95 240.72L42.68 242.05L40.89 243C35.77 245.69 35.77 250.34 40.89 253L42.68 253.95L41.95 255.28C39.85 259.09 43.87 263.12 50.64 263.97L53.01 264.27L53.53 265.64C55 269.55 61.98 271.87 68.53 270.64L70.84 270.22L72.48 271.22C77.14 274.22 85.2001 274.22 89.8601 271.22L91.5 270.22L93.81 270.64C100.41 271.85 107.38 269.52 108.86 265.64L109.38 264.27L111.75 263.97C118.52 263.12 122.54 259.09 120.44 255.28L119.71 253.95L121.5 253C126.6 250.37 126.6 245.72 121.5 243ZM108 263.51C93.18 272.06 69.16 272.06 54.34 263.51C39.52 254.96 39.52 241.08 54.34 232.51C69.16 223.94 93.18 223.95 108 232.51C122.82 241.07 122.8 255 107.98 263.54L108 263.51Z" fill="#C88368"/>
<path opacity="0.5" d="M121.5 253.06L119.7 254.01L120.44 255.34C120.84 256.045 121.031 256.85 120.99 257.66V257.76C120.72 260.76 117.08 263.36 111.76 264.03L109.38 264.33L108.87 265.7C107.38 269.6 100.41 271.93 93.8101 270.7L91.5001 270.3L89.8701 271.3C85.2001 274.3 77.1501 274.3 72.4801 271.3L70.8401 270.3L68.5301 270.72C61.9301 271.93 54.9601 269.61 53.5301 265.72L53.0101 264.35L50.6401 264.05C45.3101 263.38 41.6901 260.75 41.4001 257.81V257.68C41.3566 256.87 41.5475 256.064 41.9501 255.36L42.6801 254.03L40.8901 253.08C38.5001 251.83 37.2301 250.15 37.0601 248.44L42.3101 318C42.4501 319.51 43.5501 321 45.6501 322.1L45.8301 322.19L46.1001 326.06V326.11C46.2501 328.76 49.4701 331.11 54.2301 331.75L56.3201 332.01L56.7701 333.21C58.0701 336.65 64.2101 338.69 70.0101 337.63L72.0101 337.25L73.4501 338.16C77.5501 340.76 84.6301 340.76 88.7401 338.16L90.1801 337.25L92.1801 337.63C97.9801 338.69 104.12 336.63 105.42 333.21L105.87 332.01L107.96 331.75C112.72 331.14 115.96 328.75 116.09 326.11L116.37 322.19L116.53 322.1C118.64 320.99 119.75 319.51 119.89 318L125.21 248.47C125.14 250.13 123.87 251.81 121.5 253.06Z" fill="#C88368"/>
<path opacity="0.1" d="M105.5 333.18L105.95 331.98L108.04 331.72C112.8 331.11 116.04 328.72 116.17 326.08L116.45 322.16L116.61 322.07C118.72 320.96 119.83 319.48 119.97 317.97L125.29 248.44C125.12 250.15 123.85 251.83 121.47 253.08L119.67 254.03L120.41 255.36C120.81 256.065 121.001 256.87 120.96 257.68V257.78C120.69 260.78 117.05 263.38 111.73 264.05L109.35 264.35L108.84 265.72C107.35 269.62 100.38 271.95 93.78 270.72L91.5 270.3L90.26 337.22L92.26 337.6C98.07 338.66 104.21 336.62 105.5 333.18Z" fill="#C88368"/>
<path opacity="0.5" d="M116.18 326.08L116.46 322.16L116.62 322.07C118.73 320.96 119.84 319.48 119.98 317.97L125.3 248.44C125.13 250.15 123.86 251.83 121.48 253.08L119.68 254.03L120.42 255.36C120.82 256.065 121.011 256.87 120.97 257.68V257.78C120.7 260.78 117.06 263.38 111.74 264.05L109.36 264.35L105.96 332L108.05 331.74C112.81 331.11 116.03 328.73 116.18 326.08Z" fill="#C88368"/>
<path opacity="0.1" d="M46.12 326.08L45.85 322.16L45.68 322.07C43.58 320.96 42.47 319.48 42.33 317.97L37.01 248.44C37.18 250.15 38.45 251.83 40.83 253.08L42.63 254.03L41.89 255.36C41.4896 256.065 41.2988 256.87 41.34 257.68V257.78C41.6 260.78 45.24 263.38 50.57 264.05L52.95 264.35L56.35 332L54.26 331.74C49.5 331.11 46.27 328.73 46.12 326.08Z" fill="#C88368"/>
<path opacity="0.4" d="M56.79 333.18L56.34 331.98L54.25 331.72C49.49 331.11 46.25 328.72 46.12 326.08L45.85 322.16L45.68 322.07C43.58 320.96 42.47 319.48 42.33 317.97L37.01 248.44C37.18 250.15 38.45 251.83 40.83 253.08L42.63 254.03L41.89 255.36C41.4896 256.065 41.2988 256.87 41.34 257.68V257.78C41.6 260.78 45.24 263.38 50.57 264.05L52.95 264.35L53.46 265.72C54.94 269.62 61.92 271.95 68.52 270.72L70.83 270.3L72.07 337.22L70.07 337.6C64.23 338.66 58.09 336.62 56.79 333.18Z" fill="#C88368"/>
<path opacity="0.1" d="M119.98 318L125.3 248.47C125.13 250.18 123.86 251.86 121.48 253.11L119.68 254.06L120.42 255.39C120.82 256.095 121.011 256.9 120.97 257.71L116.5 322.16L116.66 322.07C118.73 321 119.84 319.48 119.98 318Z" fill="#C88368"/>
<path opacity="0.5" d="M41.34 257.83V257.7C41.2965 256.89 41.4875 256.084 41.89 255.38L42.62 254.05L40.83 253.1C38.44 251.85 37.17 250.17 37 248.46L42.31 318C42.45 319.51 43.55 321 45.65 322.1L45.83 322.19L41.34 257.83Z" fill="#C88368"/>
<path d="M81.1264 248.325C87.3106 247.887 91.8135 241.052 87.491 231.441C83.3102 222.132 80.4822 216.669 82.0862 207C82.0862 207 78.2211 212.154 74.8842 221.372C72.7712 227.26 71.85 231.428 71.5666 235.196C70.9031 244.022 75.2771 248.325 81.1264 248.325Z" fill="#C88368"/>
<path opacity="0.8" d="M81.1264 248.325C87.3106 247.887 91.8135 241.052 87.491 231.441C83.3102 222.132 80.4822 216.669 82.0862 207C82.0862 207 78.2211 212.154 74.8842 221.372C72.7712 227.26 71.85 231.428 71.5666 235.196C70.9031 244.022 75.2771 248.325 81.1264 248.325Z" fill="#455A64"/>
<path d="M81.0296 247.745C83.0008 247.577 85.0687 245.207 86.035 243.326C87.4522 240.569 87.1752 236.517 85.3199 232.374L84.6371 230.861C82.2471 225.565 80.2695 221.198 79.5544 216.225C78.7492 217.938 77.9182 219.916 77.1258 222.132C75.1933 227.485 74.2205 231.563 73.9371 235.351C73.6536 239.138 74.0208 241.902 75.8246 244.228C77.1774 245.986 79.5931 247.732 81.0296 247.745Z" fill="#455A64"/>
<path d="M81.3325 247.442C83.046 246.212 84.2893 244.08 83.7095 240.962C83.1298 237.844 80.1407 233.747 80.1407 232.349C80.1407 232.349 77.4029 237.438 77.3256 240.472C77.2483 243.506 77.8796 245.8 81.3325 247.442Z" fill="#C88368"/>
<path opacity="0.8" d="M81.3325 247.442C83.046 246.212 84.2893 244.08 83.7095 240.962C83.1298 237.844 80.1407 233.747 80.1407 232.349C80.1407 232.349 77.4029 237.438 77.3256 240.472C77.2483 243.506 77.8796 245.8 81.3325 247.442Z" fill="#848484"/>
<path d="M80.54 259.849C80.4012 259.661 80.3055 259.445 80.2599 259.215C80.2142 258.986 80.2197 258.749 80.2759 258.522C80.3725 258.162 80.4241 257.788 80.5014 257.414C80.6238 256.673 80.7268 255.92 80.7977 255.153C80.8621 254.375 80.8621 253.593 80.7977 252.815C80.7462 252.003 80.6624 251.191 80.5722 250.38C80.3983 248.75 80.1728 247.075 80.16 245.374C80.1513 243.692 80.3394 242.014 80.7204 240.375H80.8557C80.7728 242.013 80.8527 243.656 81.094 245.278C81.3517 246.882 81.7897 248.46 82.1505 250.096C82.3244 250.914 82.4984 251.739 82.6401 252.57C82.7962 253.449 82.8845 254.338 82.9042 255.231C82.937 256.127 82.8504 257.024 82.6465 257.897C82.5413 258.337 82.4035 258.767 82.2342 259.186C82.1414 259.443 81.9801 259.669 81.7677 259.84C81.5553 260.012 81.3001 260.122 81.0296 260.159L80.54 259.849Z" fill="#37474F"/>
<path opacity="0.1" d="M90.24 337.22L92.24 337.6C98.04 338.66 104.18 336.6 105.48 333.18L105.93 331.98L108.02 331.72C111.95 331.22 114.83 329.5 115.79 327.43C114.359 328.396 112.751 329.069 111.059 329.413C109.367 329.756 107.624 329.762 105.93 329.43C99.53 333.24 90.34 330.38 90.34 330.38C90.34 330.38 86.46 332.33 80.91 329.8C78.8317 328.918 76.9492 327.631 75.3717 326.016C73.7941 324.401 72.5529 322.488 71.72 320.39C71.72 320.39 67.53 320.94 62.31 317.23C55.77 312.58 54.85 302.98 54.85 302.98C45.19 299.88 43.68 291.7 43.68 291.7L43.08 283.14C43.08 283.14 40.83 281.83 39.01 275.14L42.28 317.94C42.42 319.45 43.52 320.94 45.62 322.04L45.8 322.13L46.07 326V326.05C46.22 328.7 49.44 331.05 54.2 331.69L56.29 331.95L56.74 333.15C58.04 336.59 64.18 338.63 69.98 337.57L71.98 337.19L73.42 338.1C77.52 340.7 84.6 340.7 88.71 338.1L90.24 337.22Z" fill="#C88368"/>
<path d="M242.5 250L241.74 249.6L241.97 246.16C241.97 246.16 241.97 246.22 241.97 246.24C242.48 242.92 238.67 239.77 232.77 239.03L230.4 238.73L229.88 237.36C228.4 233.45 221.43 231.13 214.83 232.36L212.52 232.79L210.88 231.79C206.22 228.84 198.16 228.84 193.5 231.79L191.86 232.79L189.55 232.36C182.95 231.15 175.97 233.47 174.55 237.36L174.03 238.73L171.66 239.03C165.76 239.77 161.95 242.92 162.46 246.24C162.454 246.214 162.454 246.186 162.46 246.16L162.69 249.6L161.93 250C159.1 251.49 157.83 253.57 158.13 255.6V255.39L163.31 325C163.45 326.51 164.56 328 166.66 329.1L166.83 329.19L167.1 333.11C167.172 333.983 167.523 334.81 168.1 335.47C168.64 336.103 169.282 336.64 170 337.06C171.35 337.838 172.831 338.363 174.37 338.61L175.24 338.75L177.33 339.01L177.78 340.21C178.83 343.01 183.09 344.88 187.78 344.91C188.873 344.921 189.965 344.827 191.04 344.63L193.04 344.25L194.48 345.16C198.58 347.76 205.66 347.76 209.77 345.16L211.21 344.25L213.21 344.63C219.01 345.69 225.15 343.63 226.45 340.21L226.9 339.01L228.99 338.75C233.75 338.14 236.99 335.75 237.12 333.11L237.4 329.19L237.56 329.1C239.67 327.99 240.78 326.51 240.92 325L246.24 255.47V255.68C246.58 253.6 245.31 251.52 242.5 250Z" fill="white"/>
<path opacity="0.5" d="M162.35 246.19L162.58 249.63L163.58 249.08L162.85 247.75C162.585 247.266 162.416 246.737 162.35 246.19ZM241.42 247.75L240.69 249.08L241.69 249.63L241.92 246.19C241.85 246.736 241.681 247.265 241.42 247.75Z" fill="#C88368"/>
<path opacity="0.8" d="M202.15 276.96C223.109 276.96 240.1 267.15 240.1 255.05C240.1 242.949 223.109 233.14 202.15 233.14C181.191 233.14 164.2 242.949 164.2 255.05C164.2 267.15 181.191 276.96 202.15 276.96Z" fill="#C88368"/>
<path opacity="0.1" d="M228.98 239.56C227.504 238.707 225.974 237.952 224.4 237.3C225.698 238.735 226.834 240.308 227.79 241.99C230.36 246.56 231.32 252.27 229.32 257.13C227.43 261.74 223.14 265.02 218.54 266.94C207.91 271.35 195.35 269.3 185.37 263.55C181.54 261.35 177.88 258.47 176.06 254.46C175.157 252.304 174.737 249.976 174.831 247.64C174.924 245.304 175.528 243.017 176.6 240.94C177.115 239.889 177.721 238.885 178.41 237.94C177.35 238.44 176.31 238.94 175.32 239.55C160.5 248.1 160.5 261.97 175.32 270.55C190.14 279.13 214.16 279.1 228.98 270.55C243.8 262 243.8 248.11 228.98 239.56Z" fill="#C88368"/>
<path opacity="0.5" d="M232.19 252C230.979 251.047 229.703 250.182 228.37 249.41C213.89 241.06 190.37 241.06 175.94 249.41C174.604 250.182 173.324 251.047 172.11 252C167.26 255.86 164.92 260.45 165.11 265V265.66L168.76 321.24V321.53C169.08 326.21 172.32 330.83 178.51 334.4C191.51 341.93 212.68 341.93 225.71 334.4C231.9 330.83 235.14 326.21 235.46 321.53V321.24L239.11 265.66V265C239.38 260.43 237.04 255.85 232.19 252Z" fill="#F0F0F0"/>
<path d="M211.15 259.34C216.15 262.21 216.15 266.86 211.15 269.73C206.15 272.6 198.15 272.6 193.15 269.73C188.15 266.86 188.15 262.21 193.15 259.34C198.15 256.47 206.18 256.47 211.15 259.34Z" fill="#FAFAFA"/>
<path d="M214.63 266C213.973 267.644 212.734 268.989 211.15 269.78C206.15 272.65 198.15 272.65 193.15 269.78C191.566 268.986 190.325 267.642 189.66 266C188.87 263.69 190.03 261.19 193.15 259.39C198.15 256.52 206.15 256.52 211.15 259.39C214.27 261.14 215.43 263.64 214.63 266Z" fill="white"/>
<path d="M214.63 266C213.973 267.644 212.734 268.989 211.15 269.78C206.15 272.65 198.15 272.65 193.15 269.78C191.566 268.986 190.325 267.642 189.66 266C190.328 264.359 191.568 263.016 193.15 262.22C198.15 259.36 206.15 259.36 211.15 262.22C212.732 263.013 213.969 264.358 214.63 266Z" fill="#F0F0F0"/>
<path d="M242.5 250L240.71 249.05L241.44 247.72C243.54 243.91 239.52 239.88 232.75 239.03L230.38 238.73L229.86 237.36C228.38 233.45 221.41 231.13 214.81 232.36L212.5 232.79L210.86 231.79C206.2 228.84 198.14 228.84 193.48 231.79L191.84 232.79L189.53 232.36C182.93 231.15 175.95 233.47 174.53 237.36L174.01 238.73L171.64 239.03C164.87 239.88 160.85 243.91 162.95 247.72L163.68 249.05L161.89 250C156.77 252.69 156.77 257.34 161.89 260L163.68 260.95L162.95 262.28C160.85 266.09 164.87 270.12 171.64 270.97L174.01 271.27L174.53 272.64C176 276.55 182.98 278.87 189.53 277.64L191.84 277.22L193.48 278.22C198.14 281.22 206.2 281.22 210.86 278.22L212.5 277.22L214.81 277.64C221.41 278.85 228.38 276.52 229.86 272.64L230.38 271.27L232.75 270.97C239.52 270.12 243.54 266.09 241.44 262.28L240.71 260.95L242.5 260C247.6 257.37 247.6 252.72 242.5 250ZM229 270.51C214.18 279.06 190.16 279.06 175.34 270.51C160.52 261.96 160.52 248.08 175.34 239.51C190.16 230.94 214.18 230.95 229 239.51C243.82 248.07 243.8 262 228.98 270.54L229 270.51Z" fill="white"/>
<path opacity="0.8" d="M242.5 250L240.71 249.05L241.44 247.72C243.54 243.91 239.52 239.88 232.75 239.03L230.38 238.73L229.86 237.36C228.38 233.45 221.41 231.13 214.81 232.36L212.5 232.79L210.86 231.79C206.2 228.84 198.14 228.84 193.48 231.79L191.84 232.79L189.53 232.36C182.93 231.15 175.95 233.47 174.53 237.36L174.01 238.73L171.64 239.03C164.87 239.88 160.85 243.91 162.95 247.72L163.68 249.05L161.89 250C156.77 252.69 156.77 257.34 161.89 260L163.68 260.95L162.95 262.28C160.85 266.09 164.87 270.12 171.64 270.97L174.01 271.27L174.53 272.64C176 276.55 182.98 278.87 189.53 277.64L191.84 277.22L193.48 278.22C198.14 281.22 206.2 281.22 210.86 278.22L212.5 277.22L214.81 277.64C221.41 278.85 228.38 276.52 229.86 272.64L230.38 271.27L232.75 270.97C239.52 270.12 243.54 266.09 241.44 262.28L240.71 260.95L242.5 260C247.6 257.37 247.6 252.72 242.5 250ZM229 270.51C214.18 279.06 190.16 279.06 175.34 270.51C160.52 261.96 160.52 248.08 175.34 239.51C190.16 230.94 214.18 230.95 229 239.51C243.82 248.07 243.8 262 228.98 270.54L229 270.51Z" fill="#C88368"/>
<path opacity="0.4" d="M242.5 260.06L240.7 261.01L241.44 262.34C241.84 263.045 242.031 263.85 241.99 264.66V264.76C241.72 267.76 238.08 270.36 232.76 271.03L230.38 271.33L229.87 272.7C228.38 276.6 221.41 278.93 214.81 277.7L212.5 277.3L210.87 278.3C206.2 281.3 198.15 281.3 193.48 278.3L191.84 277.3L189.53 277.72C182.93 278.93 175.96 276.61 174.53 272.72L174.01 271.35L171.64 271.05C166.31 270.38 162.69 267.75 162.4 264.81V264.68C162.357 263.87 162.548 263.064 162.95 262.36L163.68 261.03L161.89 260.08C159.5 258.83 158.23 257.15 158.06 255.44L163.31 325C163.45 326.51 164.55 328 166.65 329.1L166.83 329.19L167.1 333.06V333.11C167.25 335.76 170.47 338.11 175.23 338.75L177.32 339.01L177.77 340.21C179.07 343.65 185.21 345.69 191.01 344.63L193.01 344.25L194.45 345.16C198.55 347.76 205.63 347.76 209.74 345.16L211.18 344.25L213.18 344.63C218.98 345.69 225.12 343.63 226.42 340.21L226.87 339.01L228.96 338.75C233.72 338.14 236.96 335.75 237.09 333.11L237.37 329.19L237.53 329.1C239.64 327.99 240.75 326.51 240.89 325L246.21 255.47C246.14 257.13 244.87 258.81 242.5 260.06Z" fill="#C88368"/>
<path opacity="0.1" d="M226.5 340.18L226.95 338.98L229.04 338.72C233.8 338.11 237.04 335.72 237.17 333.08L237.45 329.16L237.61 329.07C239.72 327.96 240.83 326.48 240.97 324.97L246.29 255.44C246.12 257.15 244.85 258.83 242.47 260.08L240.67 261.03L241.41 262.36C241.81 263.065 242.001 263.87 241.96 264.68V264.78C241.69 267.78 238.05 270.38 232.73 271.05L230.35 271.35L229.84 272.72C228.35 276.62 221.38 278.95 214.78 277.72L212.5 277.3L211.26 344.22L213.26 344.6C219.07 345.66 225.21 343.62 226.5 340.18Z" fill="#C88368"/>
<path opacity="0.5" d="M237.18 333.08L237.46 329.16L237.62 329.07C239.73 327.96 240.84 326.48 240.98 324.97L246.3 255.44C246.13 257.15 244.86 258.83 242.48 260.08L240.68 261.03L241.42 262.36C241.82 263.065 242.011 263.87 241.97 264.68V264.78C241.7 267.78 238.06 270.38 232.74 271.05L230.36 271.35L226.96 339L229.05 338.74C233.81 338.11 237.03 335.73 237.18 333.08Z" fill="#C88368"/>
<path opacity="0.1" d="M167.12 333.08L166.85 329.16L166.68 329.07C164.58 327.96 163.47 326.48 163.33 324.97L158.01 255.44C158.18 257.15 159.45 258.83 161.83 260.08L163.63 261.03L162.89 262.36C162.49 263.065 162.299 263.87 162.34 264.68V264.78C162.6 267.78 166.24 270.38 171.57 271.05L173.95 271.35L177.35 339L175.26 338.74C170.5 338.11 167.27 335.73 167.12 333.08Z" fill="#C88368"/>
<path opacity="0.4" d="M177.79 340.18L177.34 338.98L175.25 338.72C170.49 338.11 167.25 335.72 167.12 333.08L166.85 329.16L166.68 329.07C164.58 327.96 163.47 326.48 163.33 324.97L158.01 255.44C158.18 257.15 159.45 258.83 161.83 260.08L163.63 261.03L162.89 262.36C162.49 263.065 162.299 263.87 162.34 264.68V264.78C162.6 267.78 166.24 270.38 171.57 271.05L173.95 271.35L174.46 272.72C175.94 276.62 182.92 278.95 189.52 277.72L191.83 277.3L193.07 344.22L191.07 344.6C185.23 345.66 179.09 343.62 177.79 340.18Z" fill="#C88368"/>
<path opacity="0.1" d="M240.98 325L246.3 255.47C246.13 257.18 244.86 258.86 242.48 260.11L240.68 261.06L241.42 262.39C241.82 263.095 242.011 263.9 241.97 264.71L237.5 329.16L237.66 329.07C239.73 328 240.84 326.48 240.98 325Z" fill="#C88368"/>
<path opacity="0.5" d="M162.34 264.83V264.7C162.297 263.89 162.487 263.084 162.89 262.38L163.62 261.05L161.83 260.1C159.44 258.85 158.17 257.17 158 255.46L163.31 325C163.45 326.51 164.55 328 166.65 329.1L166.83 329.19L162.34 264.83Z" fill="#C88368"/>
<path d="M202.126 255.325C208.311 254.887 212.813 248.052 208.491 238.441C204.31 229.132 201.482 223.669 203.086 214C203.086 214 199.221 219.154 195.884 228.372C193.771 234.26 192.85 238.428 192.567 242.196C191.903 251.022 196.277 255.325 202.126 255.325Z" fill="#C88368"/>
<path opacity="0.8" d="M202.126 255.325C208.311 254.887 212.813 248.052 208.491 238.441C204.31 229.132 201.482 223.669 203.086 214C203.086 214 199.221 219.154 195.884 228.372C193.771 234.26 192.85 238.428 192.567 242.196C191.903 251.022 196.277 255.325 202.126 255.325Z" fill="#455A64"/>
<path d="M202.03 254.745C204.001 254.577 206.069 252.207 207.035 250.326C208.452 247.569 208.175 243.517 206.32 239.374L205.637 237.861C203.247 232.565 201.269 228.198 200.554 223.225C199.749 224.938 198.918 226.916 198.126 229.132C196.193 234.485 195.221 238.563 194.937 242.351C194.654 246.138 195.021 248.902 196.825 251.228C198.177 252.986 200.593 254.732 202.03 254.745Z" fill="#455A64"/>
<path d="M202.332 254.442C204.046 253.212 205.289 251.08 204.71 247.962C204.13 244.844 201.141 240.747 201.141 239.349C201.141 239.349 198.403 244.438 198.326 247.472C198.248 250.506 198.88 252.8 202.332 254.442Z" fill="#C88368"/>
<path opacity="0.8" d="M202.332 254.442C204.046 253.212 205.289 251.08 204.71 247.962C204.13 244.844 201.141 240.747 201.141 239.349C201.141 239.349 198.403 244.438 198.326 247.472C198.248 250.506 198.88 252.8 202.332 254.442Z" fill="#848484"/>
<path d="M201.54 266.849C201.401 266.661 201.306 266.445 201.26 266.215C201.214 265.986 201.22 265.749 201.276 265.522C201.373 265.162 201.424 264.788 201.501 264.414C201.624 263.673 201.727 262.92 201.798 262.153C201.862 261.375 201.862 260.593 201.798 259.815C201.746 259.003 201.662 258.191 201.572 257.38C201.398 255.75 201.173 254.075 201.16 252.374C201.151 250.692 201.339 249.014 201.72 247.375H201.856C201.773 249.013 201.853 250.656 202.094 252.278C202.352 253.882 202.79 255.46 203.15 257.096C203.324 257.914 203.498 258.739 203.64 259.57C203.796 260.449 203.885 261.338 203.904 262.231C203.937 263.127 203.85 264.024 203.647 264.897C203.541 265.337 203.403 265.767 203.234 266.186C203.141 266.443 202.98 266.669 202.768 266.84C202.555 267.012 202.3 267.122 202.03 267.159L201.54 266.849Z" fill="#37474F"/>
<path opacity="0.1" d="M211.24 344.22L213.24 344.6C219.04 345.66 225.18 343.6 226.48 340.18L226.93 338.98L229.02 338.72C232.95 338.22 235.83 336.5 236.79 334.43C235.359 335.396 233.751 336.069 232.059 336.413C230.367 336.756 228.624 336.762 226.93 336.43C220.53 340.24 211.34 337.38 211.34 337.38C211.34 337.38 207.46 339.33 201.91 336.8C199.832 335.918 197.949 334.631 196.372 333.016C194.794 331.401 193.553 329.488 192.72 327.39C192.72 327.39 188.53 327.94 183.31 324.23C176.77 319.58 175.85 309.98 175.85 309.98C166.19 306.88 164.68 298.7 164.68 298.7L164.08 290.14C164.08 290.14 161.83 288.83 160.01 282.14L163.28 324.94C163.42 326.45 164.52 327.94 166.62 329.04L166.8 329.13L167.07 333V333.05C167.22 335.7 170.44 338.05 175.2 338.69L177.29 338.95L177.74 340.15C179.04 343.59 185.18 345.63 190.98 344.57L192.98 344.19L194.42 345.1C198.52 347.7 205.6 347.7 209.71 345.1L211.24 344.22Z" fill="#C88368"/>
</svg>
