<svg width="384" height="357" viewBox="0 0 384 357" fill="none" xmlns="http://www.w3.org/2000/svg">
<path d="M383.52 270.94C383.478 270.849 383.427 270.762 383.37 270.68C383.326 270.624 383.279 270.571 383.23 270.52C383.189 270.45 383.138 270.386 383.08 270.33L382.9 270.16C382.701 269.991 382.487 269.84 382.26 269.71L159.57 141.15C158.456 140.591 157.227 140.299 155.98 140.299C154.733 140.299 153.504 140.591 152.39 141.15L36.51 207.87C36.3635 207.95 36.2231 208.04 36.0899 208.14C36.0899 208.14 35.98 208.21 35.94 208.25C35.7053 208.444 35.5028 208.673 35.3399 208.93C35.3011 208.983 35.2676 209.04 35.2399 209.1C35.1892 209.188 35.1489 209.282 35.12 209.38C35.0996 209.453 35.0829 209.526 35.07 209.6C35.0558 209.72 35.0558 209.84 35.07 209.96C35.0647 210.043 35.0647 210.127 35.07 210.21C35.0874 210.305 35.1108 210.398 35.14 210.49C35.172 210.583 35.2121 210.674 35.26 210.76C35.5485 211.285 35.9825 211.716 36.51 212L259.21 340.55C259.874 340.91 260.594 341.157 261.34 341.28C261.823 341.356 262.311 341.396 262.8 341.4C263.282 341.399 263.763 341.362 264.24 341.29C264.398 341.271 264.555 341.241 264.71 341.2C265.154 341.097 265.586 340.95 266 340.76C266.14 340.7 266.26 340.62 266.39 340.55L382.26 273.84C383.62 273.06 384 271.94 383.52 270.94Z" fill="#E0E0E0"/>
<path d="M108.8 356.06C106.789 356.087 104.805 355.595 103.04 354.63L3.84 297.37L3.75 297.3C2.86051 296.815 2.11477 296.104 1.58804 295.238C1.06132 294.372 0.772244 293.383 0.75 292.37C0.798843 291.324 1.12456 290.311 1.69383 289.432C2.26311 288.554 3.05551 287.842 3.99 287.37L69.43 249.59C71.2087 248.664 73.1846 248.18 75.19 248.18C77.1955 248.18 79.1713 248.664 80.95 249.59L180 306.84C180.933 307.313 181.723 308.025 182.29 308.904C182.858 309.782 183.182 310.796 183.23 311.84C183.203 312.823 182.923 313.782 182.417 314.625C181.91 315.467 181.195 316.165 180.34 316.65C180.212 316.745 180.078 316.832 179.94 316.91L130.42 345.48L114.54 354.65C112.774 355.611 110.79 356.1 108.78 356.07L108.8 356.06Z" fill="#E0E0E0"/>
<path d="M373.86 256.2C373.818 256.107 373.764 256.02 373.7 255.94C373.66 255.884 373.616 255.831 373.57 255.78C373.526 255.71 373.472 255.646 373.41 255.59L373.24 255.43C373.04 255.254 372.822 255.1 372.59 254.97L156 129.9C154.886 129.341 153.657 129.049 152.41 129.049C151.163 129.049 149.934 129.341 148.82 129.9L42.58 191.21L42.15 191.48L42.01 191.6C41.7732 191.787 41.5702 192.014 41.41 192.27C41.3104 192.409 41.236 192.565 41.19 192.73C41.1843 192.803 41.1843 192.877 41.19 192.95C41.1753 193.07 41.1753 193.191 41.19 193.31C41.1851 193.393 41.1851 193.477 41.19 193.56C41.2086 193.655 41.232 193.748 41.26 193.84C41.2906 193.932 41.3274 194.023 41.37 194.11C41.6675 194.639 42.1122 195.069 42.65 195.35L259.21 320.43C259.873 320.791 260.594 321.035 261.34 321.15C261.822 321.234 262.311 321.277 262.8 321.28C263.283 321.28 263.764 321.24 264.24 321.16C264.399 321.141 264.556 321.111 264.71 321.07C265.155 320.972 265.588 320.824 266 320.63C266.14 320.57 266.26 320.5 266.39 320.43L372.59 259.11C374 258.32 374.38 257.2 373.86 256.2ZM350.53 251.76L343.74 255.69L253.25 307.89C253.016 308.028 252.772 308.148 252.52 308.25C251.782 308.557 250.99 308.715 250.19 308.715C249.39 308.715 248.598 308.557 247.86 308.25C247.608 308.148 247.364 308.028 247.13 307.89L75.32 208.7L67 203.91C66.7091 203.746 66.4458 203.536 66.22 203.29C65.36 202.35 65.63 201.15 67 200.35L164.24 144.21C165.348 143.457 166.672 143.088 168.01 143.16C168.33 143.2 168.643 143.284 168.94 143.41C169.107 143.472 169.267 143.549 169.42 143.64L350.53 248.2C350.841 248.381 351.1 248.641 351.279 248.954C351.459 249.266 351.553 249.62 351.553 249.98C351.553 250.34 351.459 250.694 351.279 251.007C351.1 251.319 350.841 251.579 350.53 251.76Z" fill="#455A64"/>
<path d="M42.16 191.49C41.2347 192.195 40.4731 193.092 39.9276 194.119C39.3821 195.146 39.0656 196.279 39 197.44V202.18C39.0652 203.428 39.4244 204.643 40.0483 205.726C40.6722 206.808 41.5431 207.728 42.59 208.41L259.18 333.47C259.995 333.918 260.894 334.193 261.82 334.28C262.14 334.28 262.45 334.33 262.82 334.34V321.28C262.331 321.271 261.844 321.231 261.36 321.16C260.609 321.039 259.885 320.788 259.22 320.42L42.58 195.35C40.75 194.3 40.6 192.63 42.16 191.49Z" fill="#37474F"/>
<path d="M316.49 281.67C314.497 280.684 312.304 280.17 310.08 280.17C307.856 280.17 305.663 280.684 303.67 281.67C302.891 282.08 302.231 282.683 301.75 283.42C300.6 285.42 302.75 286.92 303.67 287.48C305.663 288.466 307.856 288.979 310.08 288.979C312.304 288.979 314.497 288.466 316.49 287.48C317.262 287.061 317.921 286.46 318.41 285.73C319.56 283.73 317.44 282.23 316.49 281.67Z" fill="#CA9571"/>
<path d="M104.37 166.18C104.573 166.103 104.747 165.966 104.87 165.787C104.993 165.609 105.059 165.397 105.059 165.18C105.059 164.963 104.993 164.751 104.87 164.573C104.747 164.394 104.573 164.257 104.37 164.18C103.826 163.904 103.225 163.76 102.615 163.76C102.005 163.76 101.404 163.904 100.86 164.18C100.657 164.257 100.483 164.394 100.36 164.573C100.237 164.751 100.171 164.963 100.171 165.18C100.171 165.397 100.237 165.609 100.36 165.787C100.483 165.966 100.657 166.103 100.86 166.18C101.404 166.456 102.005 166.599 102.615 166.599C103.225 166.599 103.826 166.456 104.37 166.18Z" fill="#263238"/>
<path d="M98.86 175.78C99.0291 175.698 99.1717 175.57 99.2714 175.411C99.3712 175.252 99.4241 175.068 99.4241 174.88C99.4241 174.692 99.3712 174.508 99.2714 174.349C99.1717 174.19 99.0291 174.062 98.86 173.98C98.3756 173.738 97.8415 173.612 97.3 173.612C96.7585 173.612 96.2244 173.738 95.74 173.98C95.5709 174.062 95.4284 174.19 95.3286 174.349C95.2288 174.508 95.1759 174.692 95.1759 174.88C95.1759 175.068 95.2288 175.252 95.3286 175.411C95.4284 175.57 95.5709 175.698 95.74 175.78C96.223 176.027 96.7577 176.155 97.3 176.155C97.8424 176.155 98.377 176.027 98.86 175.78Z" fill="#263238"/>
<path d="M104.13 172.81L121.57 162.74C122.57 162.19 122.57 161.32 121.67 160.8C121.145 160.547 120.569 160.422 119.987 160.434C119.405 160.446 118.834 160.595 118.32 160.87L100.88 170.93C99.93 171.49 99.88 172.35 100.78 172.87C101.304 173.124 101.88 173.251 102.462 173.241C103.044 173.23 103.616 173.083 104.13 172.81Z" fill="#263238"/>
<path d="M373.07 255.29C374.55 256.44 374.39 258.07 372.59 259.11L266.38 320.43C265.277 321.019 264.04 321.312 262.79 321.28V334.33C264.037 334.354 265.27 334.058 266.37 333.47L372.58 272.16C373.627 271.48 374.498 270.562 375.122 269.481C375.746 268.4 376.105 267.187 376.17 265.94V261.19C376.105 260.042 375.794 258.922 375.259 257.904C374.725 256.886 373.978 255.995 373.07 255.29Z" fill="#263238"/>
<path d="M93.24 228.27C93.769 228.602 94.2128 229.054 94.5358 229.589C94.8588 230.124 95.052 230.727 95.1 231.35C95.1221 231.561 95.0852 231.773 94.9934 231.964C94.9015 232.155 94.7584 232.316 94.58 232.43C94.36 232.56 93.5199 233.06 93.2799 233.19C93.0626 233.283 92.825 233.318 92.5902 233.291C92.3554 233.265 92.1314 233.178 91.94 233.04L67.79 219.04C67.2628 218.706 66.8209 218.254 66.4997 217.719C66.1785 217.185 65.9868 216.582 65.94 215.96C65.9224 215.758 65.9562 215.555 66.0384 215.369C66.1206 215.184 66.2484 215.023 66.41 214.9L67.7499 214.12C67.9673 214.027 68.2049 213.992 68.4397 214.019C68.6745 214.045 68.8985 214.132 69.0899 214.27L93.24 228.27Z" fill="#455A64"/>
<path d="M91.9399 229L67.7899 215.06C66.7899 214.47 65.9399 214.89 65.9399 216C65.9868 216.622 66.1784 217.225 66.4997 217.759C66.8209 218.294 67.2628 218.746 67.7899 219.08L91.9399 233.08C92.9399 233.67 93.7999 233.25 93.7999 232.14C93.7612 231.507 93.5723 230.892 93.2489 230.346C92.9255 229.8 92.4768 229.338 91.9399 229Z" fill="#263238"/>
<path d="M60.91 209.6C61.4404 209.934 61.885 210.387 62.208 210.924C62.5311 211.46 62.7236 212.066 62.77 212.69C62.7898 212.899 62.7529 213.11 62.6632 213.3C62.5735 213.49 62.4342 213.653 62.26 213.77C62.03 213.89 61.19 214.4 60.96 214.53C60.7418 214.622 60.5038 214.655 60.2689 214.627C60.0341 214.599 59.8106 214.51 59.62 214.37L48.23 207.8C47.7028 207.467 47.261 207.014 46.9397 206.48C46.6185 205.945 46.4268 205.342 46.38 204.72C46.3574 204.518 46.3891 204.313 46.4716 204.127C46.5542 203.94 46.6848 203.779 46.85 203.66C47.07 203.51 47.95 203.01 48.19 202.88C48.4067 202.785 48.6449 202.748 48.8803 202.774C49.1156 202.801 49.3398 202.889 49.53 203.03L60.91 209.6Z" fill="#455A64"/>
<path d="M59.62 210.35L48.23 203.78C47.23 203.19 46.38 203.61 46.38 204.72C46.4268 205.342 46.6185 205.945 46.9397 206.48C47.261 207.014 47.7028 207.467 48.23 207.8L59.62 214.37C60.62 214.96 61.47 214.54 61.47 213.43C61.4232 212.808 61.2315 212.206 60.9103 211.671C60.5891 211.136 60.1472 210.684 59.62 210.35Z" fill="#263238"/>
<path d="M350.53 251.71L343.74 255.63L253.25 307.84C253.014 307.974 252.77 308.094 252.52 308.2C251.782 308.507 250.99 308.665 250.19 308.665C249.39 308.665 248.598 308.507 247.86 308.2C247.61 308.094 247.366 307.974 247.13 307.84L75.32 208.65L67.01 203.85C66.7174 203.692 66.4536 203.486 66.23 203.24C65.37 202.3 65.64 201.09 67.01 200.29L164.25 144.16C165.364 143.424 166.688 143.073 168.02 143.16C168.34 143.2 168.653 143.284 168.95 143.41C169.116 143.472 169.277 143.549 169.43 143.64L350.53 248.2C350.83 248.384 351.078 248.642 351.249 248.95C351.421 249.257 351.511 249.603 351.511 249.955C351.511 250.307 351.421 250.653 351.249 250.96C351.078 251.267 350.83 251.526 350.53 251.71Z" fill="#CA9571"/>
<path opacity="0.8" d="M350.53 251.71L343.74 255.63L253.25 307.84C253.014 307.974 252.77 308.094 252.52 308.2C251.782 308.507 250.99 308.665 250.19 308.665C249.39 308.665 248.598 308.507 247.86 308.2C247.61 308.094 247.366 307.974 247.13 307.84L75.32 208.65L67.01 203.85C66.7174 203.692 66.4536 203.486 66.23 203.24C65.37 202.3 65.64 201.09 67.01 200.29L164.25 144.16C165.364 143.424 166.688 143.073 168.02 143.16C168.34 143.2 168.653 143.284 168.95 143.41C169.116 143.472 169.277 143.549 169.43 143.64L350.53 248.2C350.83 248.384 351.078 248.642 351.249 248.95C351.421 249.257 351.511 249.603 351.511 249.955C351.511 250.307 351.421 250.653 351.249 250.96C351.078 251.267 350.83 251.526 350.53 251.71Z" fill="white"/>
<path d="M87.54 196.51C87.491 196.5 87.4438 196.484 87.4 196.46L86.93 196.18L85.78 196.85C85.7504 196.869 85.7156 196.88 85.68 196.88C85.6444 196.88 85.6096 196.869 85.58 196.85L85.41 196.76L85.33 196.7C85.3281 196.676 85.3281 196.653 85.33 196.63L84.85 194.94C84.8464 194.917 84.8464 194.893 84.85 194.87C84.8646 194.845 84.8852 194.824 84.91 194.81L85.07 194.72C85.119 194.706 85.1709 194.706 85.22 194.72C85.273 194.725 85.3242 194.742 85.37 194.77L87.03 195.77L87.29 195.63C87.3318 195.614 87.3781 195.614 87.42 195.63C87.4735 195.633 87.5253 195.65 87.57 195.68L87.68 195.74C87.73 195.74 87.76 195.8 87.76 195.82C87.76 195.84 87.76 195.87 87.69 195.9L87.44 196.05L87.92 196.32C87.9541 196.338 87.982 196.366 88 196.4C88 196.4 88 196.45 87.92 196.48L87.73 196.6C87.6593 196.589 87.5933 196.557 87.54 196.51ZM86.54 195.91L85.36 195.22L85.71 196.39L86.54 195.91Z" fill="#455A64"/>
<path d="M88.6199 195.55C88.1118 195.52 87.6181 195.369 87.1799 195.11C86.7099 194.83 86.4499 194.56 86.4199 194.28C86.3899 194 86.5799 193.74 86.9799 193.5C87.1466 193.409 87.3205 193.332 87.4999 193.27C87.6726 193.216 87.8501 193.179 88.0299 193.16C88.0299 193.16 88.0899 193.16 88.1099 193.16L88.2099 193.35H88.1399C87.8762 193.378 87.6209 193.46 87.3899 193.59C87.1199 193.75 86.9899 193.93 87.0099 194.13C87.0299 194.33 87.2299 194.52 87.5999 194.73C87.902 194.922 88.2442 195.042 88.5999 195.08C88.9105 195.095 89.219 195.023 89.4899 194.87L89.7499 194.69C89.8085 194.642 89.8591 194.584 89.8999 194.52L89.1199 194.07L88.6399 194.34C88.595 194.358 88.5449 194.358 88.4999 194.34C88.4498 194.335 88.4017 194.318 88.3599 194.29L88.2499 194.23C88.2499 194.23 88.1699 194.17 88.1699 194.15C88.1699 194.13 88.1699 194.1 88.2399 194.07L88.9999 193.63C89.0525 193.617 89.1074 193.617 89.1599 193.63C89.2215 193.632 89.2811 193.653 89.3299 193.69L90.4399 194.33C90.4717 194.342 90.4995 194.363 90.5199 194.39C90.5199 194.39 90.5199 194.39 90.5199 194.45C90.39 194.745 90.1546 194.98 89.8599 195.11C89.4954 195.369 89.0661 195.521 88.6199 195.55Z" fill="#455A64"/>
<path d="M98.13 189.85C98.5 190.07 98.5 190.41 98.13 190.62C97.9251 190.728 97.6968 190.785 97.465 190.785C97.2331 190.785 97.0048 190.728 96.8 190.62C96.43 190.41 96.43 190.07 96.8 189.85C97.0063 189.746 97.234 189.692 97.465 189.692C97.6959 189.692 97.9236 189.746 98.13 189.85Z" fill="#455A64"/>
<path d="M95.71 189.22C95.04 189.61 94.83 190.17 95.09 190.66C95.1378 190.718 95.1999 190.762 95.2701 190.788C95.3402 190.814 95.4161 190.822 95.49 190.81C95.71 190.81 95.87 190.66 95.8 190.54C95.61 190.19 95.8 189.8 96.23 189.54C96.7675 189.259 97.3853 189.171 97.98 189.29C98.2 189.29 98.42 189.29 98.45 189.11C98.45 189 98.36 188.91 98.19 188.87C97.3472 188.718 96.4779 188.841 95.71 189.22Z" fill="#455A64"/>
<path d="M94.6399 188.61C93.6399 189.18 93.2799 189.99 93.5699 190.74C93.5699 190.85 93.7799 190.92 93.9699 190.91C94.1899 190.91 94.3299 190.77 94.2799 190.65C94.0499 190.04 94.3399 189.38 95.1499 188.91C96.0743 188.437 97.1213 188.259 98.1499 188.4C98.3699 188.4 98.5799 188.4 98.5999 188.22C98.5999 188.11 98.4899 188.01 98.2999 187.99C97.0451 187.81 95.7655 188.027 94.6399 188.61Z" fill="#455A64"/>
<path d="M114.31 179.09C114.274 179.1 114.236 179.1 114.2 179.09C114.2 179.09 114.2 179.09 114.2 179.02L114.4 178.02C114.4 178.02 114.4 177.97 114.4 177.95L114.46 177.89L114.81 177.69C114.846 177.68 114.884 177.68 114.92 177.69C114.959 177.678 115.001 177.678 115.04 177.69L117.9 179.34C117.905 179.349 117.908 179.359 117.908 179.37C117.908 179.38 117.905 179.391 117.9 179.4C117.906 179.411 117.909 179.423 117.909 179.435C117.909 179.447 117.906 179.459 117.9 179.47L117.54 179.68C117.501 179.69 117.459 179.69 117.42 179.68C117.381 179.692 117.339 179.692 117.3 179.68L115.12 178.42L115 179C115 179 115 179 114.94 179.06C114.897 179.07 114.853 179.07 114.81 179.06L114.31 179.09Z" fill="#455A64"/>
<path d="M116.55 177.8C116.511 177.812 116.469 177.812 116.43 177.8C116.425 177.789 116.423 177.777 116.423 177.765C116.423 177.753 116.425 177.741 116.43 177.73L116.64 176.73C116.636 176.707 116.636 176.683 116.64 176.66L116.69 176.6L117.04 176.4C117.079 176.388 117.121 176.388 117.16 176.4C117.199 176.39 117.241 176.39 117.28 176.4L120.13 178.05C120.13 178.05 120.13 178.05 120.13 178.12C120.134 178.129 120.137 178.139 120.137 178.15C120.137 178.16 120.134 178.17 120.13 178.18L119.77 178.39C119.731 178.402 119.689 178.402 119.65 178.39H119.53L117.35 177.13L117.22 177.78C117.204 177.807 117.179 177.828 117.15 177.84C117.111 177.851 117.069 177.851 117.03 177.84L116.55 177.8Z" fill="#455A64"/>
<path d="M119.35 176C119.389 175.991 119.43 175.991 119.47 176C119.509 175.988 119.551 175.988 119.59 176L120.03 176.25C120.035 176.259 120.038 176.269 120.038 176.28C120.038 176.29 120.035 176.301 120.03 176.31C120.035 176.321 120.038 176.333 120.038 176.345C120.038 176.357 120.035 176.369 120.03 176.38L119.62 176.62H119.5C119.461 176.632 119.419 176.632 119.38 176.62L118.94 176.37C118.935 176.359 118.932 176.347 118.932 176.335C118.932 176.323 118.935 176.311 118.94 176.3C118.935 176.289 118.933 176.277 118.933 176.265C118.933 176.253 118.935 176.241 118.94 176.23L119.35 176ZM120.9 176.89C120.937 176.871 120.978 176.861 121.02 176.861C121.062 176.861 121.103 176.871 121.14 176.89L121.57 177.14C121.57 177.14 121.62 177.14 121.62 177.21C121.617 177.225 121.612 177.238 121.603 177.251C121.594 177.263 121.583 177.273 121.57 177.28L121.16 177.51C121.123 177.53 121.082 177.541 121.04 177.541C120.998 177.541 120.957 177.53 120.92 177.51L120.49 177.26C120.49 177.26 120.44 177.26 120.44 177.19C120.441 177.176 120.447 177.163 120.456 177.152C120.465 177.142 120.477 177.134 120.49 177.13L120.9 176.89Z" fill="#455A64"/>
<path d="M123.93 176C123.893 176.019 123.852 176.029 123.81 176.029C123.768 176.029 123.727 176.019 123.69 176L123.16 175.7L121.79 176.49H121.67C121.631 176.501 121.589 176.501 121.55 176.49L121.24 176.31C121.19 176.31 121.17 176.26 121.16 176.23C121.15 176.197 121.15 176.162 121.16 176.13L120.82 174.38C120.811 174.348 120.813 174.314 120.826 174.283C120.839 174.252 120.861 174.226 120.89 174.21L121.23 174.01H121.35H121.46L123.23 175.01L123.61 174.79H123.73H123.85L124.16 174.98C124.173 174.984 124.185 174.991 124.194 175.002C124.203 175.013 124.209 175.026 124.21 175.04C124.21 175.04 124.21 175.09 124.16 175.11L123.78 175.33L124.32 175.64C124.32 175.64 124.37 175.64 124.32 175.71C124.325 175.721 124.328 175.733 124.328 175.745C124.328 175.757 124.325 175.769 124.32 175.78L123.93 176ZM122.6 175.38L121.66 174.83L121.85 175.83L122.6 175.38Z" fill="#455A64"/>
<path d="M122.73 173.22C122.722 173.197 122.722 173.173 122.73 173.15C122.73 173.15 122.73 173.15 122.73 173.08L124.39 172.08C124.427 172.06 124.468 172.049 124.51 172.049C124.552 172.049 124.593 172.06 124.63 172.08L124.94 172.26C124.94 172.26 124.99 172.26 124.99 172.33C124.99 172.4 124.99 172.38 124.94 172.4L123.7 173.11L124.22 173.47C124.27 173.403 124.331 173.346 124.4 173.3L124.58 173.18C124.747 173.086 124.925 173.012 125.11 172.96C125.291 172.902 125.48 172.868 125.67 172.86C125.856 172.835 126.044 172.835 126.23 172.86C126.415 172.901 126.594 172.969 126.76 173.06C126.918 173.137 127.052 173.254 127.15 173.4C127.219 173.495 127.247 173.614 127.23 173.73C127.213 173.853 127.152 173.967 127.06 174.05C126.939 174.165 126.804 174.266 126.66 174.35C126.472 174.456 126.275 174.543 126.07 174.61C125.89 174.661 125.706 174.694 125.52 174.71C125.354 174.726 125.186 174.726 125.02 174.71C124.878 174.682 124.74 174.634 124.61 174.57C124.61 174.57 124.56 174.57 124.56 174.5C124.56 174.43 124.56 174.45 124.61 174.43L124.97 174.22H125.08H125.2C125.281 174.245 125.365 174.262 125.45 174.27H125.69L125.91 174.2L126.11 174.1C126.28 174 126.37 173.9 126.38 173.78C126.39 173.66 126.32 173.57 126.16 173.48C126.014 173.398 125.846 173.363 125.68 173.38C125.487 173.383 125.298 173.435 125.13 173.53C125.063 173.568 125 173.612 124.94 173.66C124.91 173.69 124.883 173.724 124.86 173.76C124.865 173.786 124.865 173.814 124.86 173.84C124.84 173.87 124.813 173.895 124.78 173.91L124.37 174.15H124.25H124.14L122.73 173.22Z" fill="#455A64"/>
<path d="M75.2 204.04L74.28 203.51L75.5 202.8L76.42 203.33L75.2 204.04Z" fill="#455A64"/>
<path d="M77.04 202.98L75.2 201.92L76.42 201.21L78.26 202.27L77.04 202.98Z" fill="#455A64"/>
<path d="M78.88 201.92L76.12 200.32L77.34 199.62L80.11 201.21L78.88 201.92Z" fill="#455A64"/>
<path d="M80.72 200.86L77.04 198.73L78.27 198.02L81.94 200.15L80.72 200.86Z" fill="#455A64"/>
<path d="M163.9 149.38C163.654 149.351 163.406 149.389 163.18 149.49L158.59 152.13C158.29 152.3 158.37 152.62 158.76 152.85L160.44 153.85C160.69 153.987 160.966 154.069 161.25 154.09C161.37 154.105 161.491 154.105 161.61 154.09C161.735 154.08 161.857 154.046 161.97 153.99L166.56 151.35C166.85 151.17 166.78 150.86 166.38 150.63L164.71 149.63C164.461 149.49 164.185 149.405 163.9 149.38ZM161.2 153.88C161.079 153.867 160.962 153.826 160.86 153.76L159.18 152.76C158.89 152.59 158.83 152.34 159.05 152.21L163.64 149.57C163.699 149.538 163.763 149.518 163.83 149.51H163.94C164.064 149.522 164.184 149.564 164.29 149.63L165.96 150.63C166.25 150.8 166.31 151.05 166.1 151.17L161.51 153.82C161.413 153.866 161.307 153.886 161.2 153.88Z" fill="#455A64"/>
<path d="M160.21 151.92L162.21 153.06L161.49 153.48C161.408 153.504 161.322 153.504 161.24 153.48L159.77 152.63C159.56 152.51 159.51 152.32 159.67 152.22L160.21 151.92Z" fill="#455A64"/>
<path d="M160.55 151.73L161.41 151.23L163.39 152.37L162.52 152.87L160.55 151.73Z" fill="#455A64"/>
<path d="M161.75 151.04L162.6 150.54L164.59 151.69L163.73 152.19L161.75 151.04Z" fill="#455A64"/>
<path d="M163.93 149.93L165.36 150.76C165.62 150.91 165.57 151.13 165.21 151.33L164.92 151.5L162.92 150.35L163.61 149.96C163.658 149.934 163.712 149.918 163.767 149.912C163.822 149.907 163.877 149.913 163.93 149.93Z" fill="#455A64"/>
<path d="M164.89 149.52C165.192 149.489 165.495 149.571 165.74 149.75L166.05 149.93C166.39 150.13 166.58 150.35 166.45 150.43L166.24 150.57L164.66 149.66L164.89 149.52Z" fill="#455A64"/>
<path d="M152.21 157.1L155.77 154.01L157.65 156.68L155.19 156.01L152.21 157.1Z" fill="#455A64"/>
<path d="M228 287.05V287.93C228.04 288.69 228.259 289.429 228.64 290.088C229.021 290.747 229.552 291.306 230.19 291.72L247.35 301.62C248.028 301.965 248.779 302.145 249.54 302.145C250.301 302.145 251.052 301.965 251.73 301.62L336.3 252.77C336.938 252.353 337.469 251.792 337.849 251.132C338.23 250.472 338.449 249.731 338.49 248.97V248.1C338.449 247.339 338.23 246.599 337.849 245.938C337.469 245.278 336.938 244.717 336.3 244.3L319.14 234.4C318.462 234.055 317.711 233.875 316.95 233.875C316.189 233.875 315.438 234.055 314.76 234.4L230.19 283.26C229.553 283.676 229.024 284.236 228.643 284.894C228.263 285.552 228.042 286.291 228 287.05Z" fill="#CA9571"/>
<path opacity="0.15" d="M336.55 244.5C337.46 245.19 337.36 246.2 336.26 246.83L251.69 295.69C251.015 296.045 250.263 296.227 249.5 296.22V302.14C250.266 302.159 251.024 301.98 251.7 301.62L336.26 252.77C336.896 252.351 337.426 251.79 337.806 251.13C338.186 250.47 338.407 249.73 338.45 248.97V248.1C338.412 247.398 338.222 246.713 337.894 246.092C337.566 245.471 337.108 244.927 336.55 244.5Z" fill="black"/>
<path opacity="0.3" d="M229.82 283.49C229.276 283.919 228.829 284.457 228.508 285.071C228.188 285.685 228.001 286.359 227.96 287.05V287.93C228 288.691 228.221 289.431 228.603 290.09C228.986 290.749 229.519 291.308 230.16 291.72L247.31 301.62C247.982 301.981 248.737 302.161 249.5 302.14V296.22C248.737 296.229 247.984 296.047 247.31 295.69L230.15 285.79C229.06 285.17 229 284.19 229.82 283.49Z" fill="black"/>
<path d="M255.21 277.25C255.344 277.172 255.495 277.131 255.65 277.13C255.781 277.134 255.912 277.151 256.04 277.18L265.04 279.7L265.24 279.77C265.266 279.783 265.289 279.803 265.305 279.827C265.321 279.852 265.329 279.881 265.33 279.91C265.33 279.91 265.33 280 265.24 280.04L263.9 280.81C263.783 280.883 263.648 280.925 263.51 280.93C263.414 280.948 263.316 280.948 263.22 280.93L262.04 280.59L259.22 282.22L259.81 282.9C259.851 282.947 259.873 283.008 259.87 283.07C259.87 283.14 259.8 283.21 259.66 283.29L258.32 284.06C258.251 284.102 258.171 284.123 258.09 284.12C258.006 284.123 257.923 284.102 257.85 284.06C257.804 284.034 257.766 283.996 257.74 283.95L253.36 278.75C253.311 278.686 253.284 278.61 253.28 278.53C253.28 278.44 253.35 278.36 253.49 278.28L255.21 277.25ZM258.13 280.92L259.85 279.92L256.44 278.92L258.13 280.92Z" fill="#455A64"/>
<path d="M262 273.33C262.49 273.048 263.015 272.83 263.56 272.68C264.099 272.538 264.653 272.454 265.21 272.43C265.757 272.409 266.305 272.459 266.84 272.58C267.354 272.688 267.851 272.863 268.32 273.1L268.73 273.33L269.09 273.54L269.44 273.74L269.82 273.97C270.188 274.187 270.505 274.48 270.75 274.83C270.933 275.101 271.024 275.423 271.01 275.75C270.967 276.101 270.821 276.432 270.59 276.7C270.278 277.062 269.902 277.364 269.48 277.59L266.62 279.24C266.532 279.291 266.431 279.315 266.33 279.31C266.232 279.315 266.134 279.291 266.05 279.24L259.19 275.29C259.11 275.24 259.07 275.19 259.07 275.12C259.072 275.084 259.084 275.05 259.106 275.022C259.127 274.993 259.156 274.972 259.19 274.96L262 273.33ZM266.31 274.21C265.895 273.993 265.43 273.89 264.962 273.913C264.495 273.936 264.042 274.083 263.65 274.34L262.57 274.97L266.57 277.3L267.7 276.64C268.59 276.13 268.65 275.64 267.87 275.13L267.46 274.88L267.08 274.66L266.71 274.45L266.31 274.21Z" fill="#455A64"/>
<path d="M269.67 268.9C270.16 268.618 270.685 268.4 271.23 268.25C271.773 268.107 272.329 268.024 272.89 268C273.434 267.984 273.978 268.035 274.51 268.15C275.025 268.255 275.523 268.43 275.99 268.67L276.41 268.9L276.76 269.11L277.11 269.31L277.5 269.54C277.863 269.76 278.176 270.053 278.42 270.4C278.607 270.669 278.699 270.993 278.68 271.32C278.646 271.672 278.503 272.004 278.27 272.27C277.956 272.63 277.58 272.932 277.16 273.16L274.29 274.81C274.205 274.86 274.108 274.884 274.01 274.88C273.909 274.885 273.808 274.861 273.72 274.81L266.86 270.86C266.828 270.844 266.8 270.82 266.779 270.79C266.758 270.76 266.744 270.726 266.74 270.69C266.743 270.655 266.756 270.621 266.777 270.593C266.798 270.565 266.827 270.543 266.86 270.53L269.67 268.9ZM273.98 269.78C273.565 269.563 273.1 269.46 272.632 269.483C272.165 269.506 271.712 269.653 271.32 269.91L270.24 270.54L274.24 272.87L275.38 272.21C276.27 271.7 276.32 271.21 275.55 270.7L275.14 270.45C275.01 270.38 274.88 270.31 274.76 270.23L274.38 270.02L273.98 269.78Z" fill="#455A64"/>
<path d="M281.7 262C281.785 261.95 281.882 261.926 281.98 261.93C282.081 261.924 282.182 261.949 282.27 262L283.4 262.65C283.432 262.663 283.459 262.686 283.478 262.714C283.498 262.742 283.509 262.776 283.51 262.81C283.51 262.846 283.499 262.881 283.48 262.911C283.46 262.941 283.432 262.965 283.4 262.98L281.53 264L286.97 267.14C287.05 267.14 287.09 267.24 287.09 267.31C287.087 267.345 287.074 267.379 287.053 267.407C287.032 267.435 287.003 267.457 286.97 267.47L285.58 268.27C285.496 268.321 285.398 268.345 285.3 268.34C285.199 268.345 285.098 268.321 285.01 268.27L279.57 265.13L277.7 266.21C277.61 266.255 277.511 266.279 277.41 266.28C277.312 266.281 277.216 266.257 277.13 266.21L276 265.56C275.92 265.51 275.88 265.46 275.88 265.39C275.883 265.355 275.896 265.321 275.917 265.293C275.938 265.265 275.967 265.243 276 265.23L281.7 262Z" fill="#455A64"/>
<path d="M285.34 263.06C285.003 262.853 284.711 262.581 284.48 262.26C284.289 262 284.194 261.682 284.21 261.36C284.252 261.011 284.395 260.681 284.62 260.41C284.946 260.036 285.336 259.721 285.77 259.48C286.276 259.192 286.817 258.97 287.38 258.82C287.916 258.678 288.466 258.598 289.02 258.58C289.545 258.567 290.069 258.621 290.58 258.74C291.059 258.844 291.523 259.009 291.96 259.23L292.96 259.77L293.87 260.32C294.207 260.528 294.499 260.799 294.73 261.12C294.921 261.38 295.016 261.698 295 262.02C294.979 262.39 294.835 262.742 294.59 263.02C294.269 263.397 293.878 263.709 293.44 263.94C292.936 264.237 292.394 264.466 291.83 264.62C291.294 264.76 290.744 264.837 290.19 264.85C289.665 264.863 289.141 264.81 288.63 264.69C288.151 264.584 287.688 264.42 287.25 264.2C286.94 264.04 286.63 263.86 286.25 263.67L285.34 263.06ZM291.83 261.43L291.43 261.17L290.97 260.89L290.48 260.62L290.05 260.4C289.86 260.302 289.658 260.228 289.45 260.18C289.241 260.128 289.026 260.101 288.81 260.1C288.584 260.101 288.358 260.131 288.14 260.19C287.906 260.252 287.681 260.343 287.47 260.46C287.288 260.556 287.128 260.689 287 260.85C286.908 260.96 286.855 261.097 286.85 261.24C286.852 261.374 286.898 261.504 286.98 261.61C287.085 261.745 287.214 261.86 287.36 261.95C287.481 262.041 287.608 262.125 287.74 262.2C287.89 262.29 288.04 262.39 288.21 262.48L288.69 262.75C288.836 262.835 288.986 262.911 289.14 262.98C289.529 263.172 289.956 263.275 290.39 263.28C290.86 263.286 291.321 263.158 291.72 262.91C292.16 262.66 292.36 262.41 292.34 262.15C292.316 261.999 292.257 261.856 292.169 261.731C292.08 261.606 291.964 261.503 291.83 261.43Z" fill="#455A64"/>
<path d="M297.21 256.26L297.58 256.49L298.08 256.78L298.59 257.08L299 257.29C299.178 257.382 299.366 257.453 299.56 257.5C299.765 257.559 299.977 257.593 300.19 257.6C300.416 257.598 300.64 257.571 300.86 257.52C301.11 257.461 301.35 257.363 301.57 257.23C301.759 257.132 301.929 257 302.07 256.84C302.155 256.742 302.216 256.626 302.25 256.5C302.281 256.406 302.281 256.304 302.25 256.21C302.208 256.126 302.154 256.049 302.09 255.98C302.036 255.919 301.995 255.848 301.97 255.77C301.97 255.77 302.03 255.66 302.15 255.59L303.54 254.79C303.612 254.757 303.691 254.74 303.77 254.74C303.849 254.74 303.928 254.757 304 254.79C304.317 254.961 304.581 255.217 304.76 255.53C304.906 255.799 304.952 256.111 304.89 256.41C304.804 256.755 304.636 257.074 304.4 257.34C304.087 257.692 303.714 257.986 303.3 258.21C302.801 258.497 302.267 258.716 301.71 258.86C301.175 259.008 300.624 259.088 300.07 259.1C299.542 259.114 299.014 259.06 298.5 258.94C298.022 258.842 297.561 258.677 297.13 258.45C296.82 258.3 296.51 258.12 296.13 257.93C295.75 257.74 295.49 257.55 295.2 257.36C294.861 257.165 294.568 256.899 294.34 256.58C294.157 256.313 294.066 255.994 294.08 255.67C294.114 255.32 294.253 254.989 294.48 254.72C294.797 254.343 295.184 254.031 295.62 253.8C296.095 253.527 296.602 253.316 297.13 253.17C297.653 253.021 298.188 252.924 298.73 252.88C299.241 252.846 299.755 252.873 300.26 252.96C300.708 253.029 301.141 253.174 301.54 253.39C301.568 253.403 301.591 253.422 301.609 253.447C301.627 253.471 301.637 253.5 301.64 253.53C301.639 253.56 301.629 253.588 301.611 253.611C301.593 253.635 301.568 253.652 301.54 253.66L300.15 254.47C300.057 254.531 299.95 254.565 299.84 254.57C299.722 254.556 299.605 254.532 299.49 254.5C299.36 254.457 299.226 254.427 299.09 254.41C298.924 254.389 298.756 254.389 298.59 254.41C298.391 254.426 298.193 254.46 298 254.51C297.762 254.582 297.533 254.682 297.32 254.81C297.125 254.908 296.954 255.048 296.82 255.22C296.732 255.328 296.683 255.461 296.68 255.6C296.692 255.738 296.748 255.867 296.84 255.97C296.953 256.079 297.077 256.176 297.21 256.26Z" fill="#455A64"/>
<path d="M303.93 249.12C304.064 249.042 304.215 249.001 304.37 249C304.501 249.004 304.632 249.021 304.76 249.05L313.76 251.57L313.96 251.64C314.03 251.64 314.06 251.72 314.06 251.78C314.06 251.84 314.06 251.87 313.96 251.91L312.63 252.68C312.509 252.752 312.371 252.793 312.23 252.8C312.137 252.813 312.043 252.813 311.95 252.8L310.77 252.46L307.94 254.09L308.53 254.77C308.571 254.817 308.593 254.878 308.59 254.94C308.59 255.01 308.52 255.08 308.38 255.16L307.04 255.94C306.968 255.973 306.889 255.99 306.81 255.99C306.731 255.99 306.652 255.973 306.58 255.94C306.531 255.911 306.489 255.87 306.46 255.82L302.09 250.62C302.037 250.559 302.009 250.481 302.01 250.4C302.01 250.31 302.07 250.23 302.21 250.14L303.93 249.12ZM306.85 252.79L308.57 251.79L305.16 250.79L306.85 252.79Z" fill="#455A64"/>
<path d="M310.79 245.16C311.235 244.905 311.704 244.694 312.19 244.53C312.637 244.378 313.1 244.281 313.57 244.24C314.026 244.208 314.484 244.242 314.93 244.34C315.38 244.44 315.812 244.609 316.21 244.84C316.646 245.052 316.998 245.404 317.21 245.84C317.279 246.003 317.303 246.182 317.28 246.358C317.257 246.533 317.188 246.7 317.08 246.84L320.92 247.54C320.973 247.546 321.024 247.563 321.07 247.59C321.14 247.59 321.17 247.67 321.17 247.73C321.17 247.79 321.17 247.82 321.07 247.86L319.63 248.69C319.513 248.772 319.373 248.814 319.23 248.81H318.9L315.45 248.18L314.45 248.74L316.72 250.05C316.8 250.05 316.84 250.15 316.84 250.22C316.837 250.255 316.824 250.289 316.803 250.317C316.782 250.345 316.753 250.367 316.72 250.38L315.33 251.18C315.245 251.23 315.148 251.254 315.05 251.25C314.949 251.256 314.848 251.231 314.76 251.18L307.9 247.23C307.868 247.215 307.84 247.191 307.82 247.161C307.801 247.131 307.79 247.096 307.79 247.06C307.792 247.025 307.803 246.99 307.822 246.96C307.841 246.93 307.868 246.906 307.9 246.89L310.79 245.16ZM312.79 247.71L314 247C314.237 246.887 314.436 246.706 314.57 246.48C314.65 246.3 314.57 246.12 314.25 245.95C313.977 245.785 313.655 245.722 313.34 245.77C313.019 245.816 312.709 245.925 312.43 246.09L311.23 246.79L312.79 247.71Z" fill="#455A64"/>
<path d="M320.39 239.62C320.48 239.575 320.579 239.551 320.68 239.551C320.781 239.551 320.88 239.575 320.97 239.62L322.09 240.27C322.123 240.283 322.152 240.305 322.173 240.333C322.194 240.361 322.207 240.395 322.21 240.43C322.21 240.5 322.21 240.55 322.09 240.6L320.22 241.68L325.67 244.82C325.702 244.835 325.73 244.859 325.75 244.889C325.769 244.919 325.78 244.954 325.78 244.99C325.779 245.025 325.768 245.058 325.748 245.086C325.729 245.115 325.702 245.137 325.67 245.15L324.28 245.96C324.188 246 324.09 246.02 323.99 246.02C323.89 246.02 323.792 246 323.7 245.96L318.26 242.81L316.39 243.89C316.304 243.936 316.208 243.96 316.11 243.96C316.009 243.961 315.91 243.937 315.82 243.89L314.69 243.24C314.659 243.223 314.632 243.199 314.613 243.169C314.594 243.14 314.582 243.106 314.58 243.07C314.582 243.036 314.594 243.003 314.613 242.975C314.632 242.947 314.659 242.925 314.69 242.91L320.39 239.62Z" fill="#455A64"/>
<path d="M242 283C239.31 284.55 239.31 287.06 242 288.6C243.504 289.364 245.168 289.762 246.855 289.762C248.542 289.762 250.206 289.364 251.71 288.6C254.39 287.06 254.39 284.55 251.71 283C250.206 282.236 248.542 281.837 246.855 281.837C245.168 281.837 243.504 282.236 242 283ZM250 284.83L248.2 285.83L250 286.83C250.074 286.852 250.139 286.897 250.186 286.96C250.232 287.022 250.257 287.097 250.257 287.175C250.257 287.252 250.232 287.328 250.186 287.39C250.139 287.452 250.074 287.498 250 287.52C249.816 287.614 249.612 287.663 249.405 287.663C249.198 287.663 248.994 287.614 248.81 287.52L247 286.52L245.2 287.52C245.016 287.614 244.812 287.663 244.605 287.663C244.398 287.663 244.194 287.614 244.01 287.52C243.936 287.498 243.87 287.452 243.824 287.39C243.778 287.328 243.753 287.252 243.753 287.175C243.753 287.097 243.778 287.022 243.824 286.96C243.87 286.897 243.936 286.852 244.01 286.83L245.81 285.83L244.01 284.83C243.936 284.808 243.87 284.762 243.824 284.7C243.778 284.638 243.753 284.562 243.753 284.485C243.753 284.407 243.778 284.332 243.824 284.27C243.87 284.207 243.936 284.162 244.01 284.14C244.194 284.046 244.398 283.997 244.605 283.997C244.812 283.997 245.016 284.046 245.2 284.14L247 285.14L248.81 284.14C248.994 284.046 249.198 283.997 249.405 283.997C249.612 283.997 249.816 284.046 250 284.14C250.095 284.15 250.183 284.199 250.243 284.274C250.303 284.349 250.331 284.444 250.32 284.54C250.309 284.635 250.261 284.723 250.186 284.783C250.111 284.843 250.015 284.87 249.92 284.86L250 284.83Z" fill="#455A64"/>
<path d="M113.13 351.19L178.56 313.41C179.076 313.168 179.515 312.787 179.827 312.31C180.14 311.834 180.314 311.28 180.33 310.71C180.33 309.71 180.33 306.07 180.33 306.07C180.33 306.07 178.58 308.57 178.55 308.59L129 337.19L113.11 346.36C111.777 347.04 110.302 347.395 108.805 347.395C107.308 347.395 105.833 347.04 104.5 346.36L5.39996 289.15C5.39996 289.15 3.71995 287.15 3.67995 287.15C3.63995 287.15 3.58995 290.57 3.67995 291.71C3.75301 292.205 3.94864 292.673 4.24904 293.073C4.54944 293.473 4.94508 293.792 5.39996 294L104.51 351.2C105.845 351.881 107.322 352.236 108.821 352.234C110.32 352.232 111.797 351.874 113.13 351.19Z" fill="#CA9571"/>
<path opacity="0.15" d="M113.13 351.19L178.56 313.41C179.076 313.168 179.515 312.787 179.827 312.31C180.14 311.834 180.314 311.28 180.33 310.71C180.33 309.71 180.33 306.07 180.33 306.07C180.33 306.07 178.58 308.57 178.55 308.59L129 337.19L113.11 346.36C111.777 347.04 110.302 347.395 108.805 347.395C107.308 347.395 105.833 347.04 104.5 346.36L5.39996 289.15C5.39996 289.15 3.71995 287.15 3.67995 287.15C3.63995 287.15 3.58995 290.57 3.67995 291.71C3.75301 292.205 3.94864 292.673 4.24904 293.073C4.54944 293.473 4.94508 293.792 5.39996 294L104.51 351.2C105.845 351.881 107.322 352.236 108.821 352.234C110.32 352.232 111.797 351.874 113.13 351.19Z" fill="black"/>
<path d="M159.7 319.47V324.3L178.56 313.41C179.076 313.168 179.515 312.787 179.827 312.311C180.14 311.834 180.314 311.28 180.33 310.71C180.33 309.71 180.33 306.07 180.33 306.07C180.33 306.07 178.58 308.57 178.55 308.59L159.7 319.47Z" fill="#37474F"/>
<path d="M178.57 308.59C178.607 308.572 178.638 308.544 178.66 308.51C180.94 307.16 180.9 304.96 178.57 303.61L79.4499 246.39C78.1155 245.714 76.6407 245.362 75.1449 245.362C73.6492 245.362 72.1744 245.714 70.8399 246.39L5.39995 284.17C3.03995 285.53 3.02995 287.72 5.30995 289.08L5.39995 289.15L104.5 346.36C105.833 347.04 107.308 347.395 108.805 347.395C110.302 347.395 111.777 347.04 113.11 346.36L129 337.19L178.57 308.59Z" fill="#CA9571"/>
<path d="M159.7 319.47L178.57 308.59C178.607 308.572 178.638 308.544 178.66 308.51C180.94 307.16 180.9 304.96 178.57 303.61L79.45 246.39C78.1155 245.714 76.6408 245.362 75.145 245.362C73.6492 245.362 72.1745 245.714 70.84 246.39L52 257.28L159.7 319.47Z" fill="#455A64"/>
<path opacity="0.15" d="M3.67989 287.17C3.67989 287.17 3.58989 290.59 3.67989 291.73C3.75606 292.221 3.95312 292.686 4.25334 293.082C4.55357 293.478 4.94756 293.794 5.39989 294L104.51 351.2C106.182 352.092 108.09 352.442 109.97 352.2V347.37C108.087 347.601 106.179 347.252 104.5 346.37L5.39989 289.15C5.39989 289.15 3.71989 287.19 3.67989 287.17Z" fill="black"/>
<path d="M35.76 280.69L33.84 279.58C33.8052 279.564 33.7745 279.541 33.7502 279.511C33.726 279.482 33.7088 279.447 33.7 279.41C33.7 279.34 33.7 279.29 33.8 279.24C33.8901 279.196 33.9898 279.175 34.09 279.18C34.1947 279.184 34.2972 279.211 34.39 279.26L35.03 279.63L37.8 278C37.8637 277.973 37.9173 277.927 37.9532 277.867C37.9891 277.808 38.0055 277.739 38 277.67C38 277.53 37.89 277.42 37.72 277.31C37.6826 277.294 37.6496 277.269 37.6235 277.238C37.5975 277.207 37.5791 277.17 37.57 277.13C37.5711 277.096 37.582 277.062 37.6015 277.034C37.621 277.006 37.6482 276.983 37.68 276.97C37.7865 276.938 37.9012 276.949 38 277C38.1054 276.999 38.2091 277.027 38.3 277.08C38.4462 277.144 38.5752 277.241 38.6761 277.365C38.777 277.488 38.8469 277.634 38.88 277.79C38.8932 277.93 38.8615 278.07 38.7896 278.191C38.7176 278.311 38.6092 278.405 38.48 278.46L35.67 280L36.31 280.37C36.4 280.42 36.45 280.48 36.45 280.55C36.45 280.62 36.45 280.67 36.35 280.72C36.2552 280.748 36.1547 280.748 36.06 280.72C35.9591 280.738 35.8553 280.727 35.76 280.69Z" fill="white"/>
<path d="M41.57 282.13L40.29 281.39C40.1027 281.288 39.8933 281.233 39.68 281.23C39.4792 281.214 39.278 281.256 39.1 281.35L38.69 281.58C38.69 281.58 38.63 281.63 38.69 281.67C38.75 281.71 38.69 281.73 38.76 281.76L41.48 283.33C41.5148 283.346 41.5455 283.369 41.5697 283.399C41.594 283.428 41.6112 283.463 41.62 283.5C41.6247 283.536 41.6174 283.572 41.5993 283.602C41.5812 283.633 41.5533 283.657 41.52 283.67C41.4312 283.718 41.3304 283.739 41.23 283.73C41.1214 283.723 41.0156 283.692 40.92 283.64L37.73 281.8C37.6927 281.784 37.6596 281.759 37.6336 281.728C37.6075 281.697 37.5892 281.66 37.58 281.62C37.5776 281.586 37.5859 281.553 37.6039 281.524C37.6219 281.495 37.6485 281.473 37.68 281.46L38.51 280.98C38.8652 280.789 39.2682 280.706 39.67 280.74C40.1004 280.751 40.522 280.864 40.9 281.07L42.17 281.81C42.3607 281.914 42.5729 281.972 42.79 281.98C42.991 282 43.1932 281.958 43.37 281.86L43.92 281.55C43.9864 281.523 44.0425 281.475 44.0802 281.414C44.1179 281.353 44.1354 281.282 44.13 281.21C44.109 281.132 44.0713 281.059 44.0195 280.997C43.9677 280.935 43.903 280.885 43.83 280.85L42.56 280.12C42.3699 280.015 42.1573 279.957 41.94 279.95C41.7392 279.934 41.538 279.976 41.36 280.07C41.2732 280.113 41.1769 280.134 41.08 280.13C40.9706 280.128 40.8638 280.097 40.77 280.04C40.7338 280.025 40.7015 280.002 40.6755 279.972C40.6495 279.943 40.6305 279.908 40.62 279.87C40.6177 279.834 40.6271 279.798 40.6469 279.767C40.6667 279.736 40.6959 279.713 40.73 279.7C41.0807 279.507 41.4813 279.423 41.88 279.46C42.3121 279.468 42.7353 279.585 43.11 279.8L44.39 280.54C44.5363 280.604 44.6653 280.701 44.7662 280.825C44.8671 280.948 44.9369 281.094 44.97 281.25C44.9803 281.389 44.9461 281.528 44.8724 281.647C44.7987 281.766 44.6894 281.858 44.56 281.91L44.01 282.23C43.6548 282.421 43.2518 282.504 42.85 282.47C42.4013 282.468 41.9607 282.351 41.57 282.13Z" fill="white"/>
<path d="M47.6799 286L47.3999 286.16C47.0455 286.342 46.6472 286.422 46.2499 286.39C45.8074 286.366 45.3778 286.232 44.9999 286L43.7199 285.26C43.5736 285.196 43.4447 285.099 43.3438 284.975C43.2429 284.852 43.173 284.706 43.1399 284.55C43.1306 284.41 43.165 284.27 43.2384 284.15C43.3118 284.03 43.4207 283.936 43.5499 283.88C43.6398 283.836 43.7405 283.818 43.8399 283.83C43.9483 283.83 44.0549 283.858 44.1499 283.91C44.185 283.928 44.2157 283.953 44.2399 283.984C44.2641 284.016 44.2811 284.052 44.2899 284.09C44.2941 284.124 44.2864 284.159 44.2682 284.188C44.25 284.217 44.2224 284.239 44.1899 284.25C44.1244 284.278 44.0696 284.326 44.0335 284.387C43.9975 284.448 43.9822 284.519 43.9899 284.59C44.0056 284.668 44.0403 284.74 44.0909 284.802C44.1415 284.863 44.2064 284.91 44.2799 284.94L45.5499 285.68C45.7401 285.785 45.9527 285.844 46.1699 285.85C46.3676 285.867 46.5661 285.826 46.7399 285.73L47.0199 285.57C47.0837 285.543 47.1373 285.496 47.1732 285.437C47.2091 285.378 47.2254 285.309 47.2199 285.24C47.2058 285.16 47.1718 285.086 47.1211 285.023C47.0704 284.96 47.0047 284.911 46.9299 284.88L46.6199 284.7C46.5299 284.64 46.4799 284.59 46.4699 284.52C46.4599 284.45 46.4699 284.4 46.5699 284.35C46.6623 284.301 46.7653 284.275 46.8699 284.275C46.9745 284.275 47.0775 284.301 47.1699 284.35L47.4899 284.53C47.6765 284.635 47.8858 284.694 48.0999 284.7C48.3009 284.719 48.5032 284.678 48.6799 284.58L48.9599 284.42C49.0237 284.393 49.0773 284.347 49.1132 284.287C49.1491 284.228 49.1654 284.159 49.1599 284.09C49.1441 284.011 49.1095 283.937 49.059 283.874C49.0086 283.812 48.9437 283.762 48.8699 283.73L47.5899 283C47.4034 282.895 47.1941 282.836 46.9799 282.83C46.7791 282.814 46.5779 282.856 46.3999 282.95C46.3103 282.995 46.2094 283.012 46.1099 283C46.0014 283.001 45.8945 282.973 45.7999 282.92C45.7663 282.903 45.7366 282.879 45.7125 282.849C45.6885 282.82 45.6706 282.786 45.6599 282.75C45.6569 282.715 45.6648 282.679 45.6828 282.649C45.7007 282.619 45.7277 282.594 45.7599 282.58C46.1152 282.389 46.5182 282.306 46.9199 282.34C47.3516 282.351 47.7741 282.467 48.1499 282.68L49.4199 283.41C49.5662 283.474 49.6952 283.571 49.7961 283.695C49.897 283.818 49.9669 283.964 49.9999 284.12C50.0124 284.261 49.9793 284.402 49.9055 284.523C49.8316 284.643 49.721 284.737 49.5899 284.79L49.3199 284.95C49.1395 285.049 48.9433 285.117 48.7399 285.15C48.5104 285.17 48.2795 285.17 48.0499 285.15C48.0992 285.279 48.0992 285.421 48.0499 285.55C47.974 285.733 47.8452 285.89 47.6799 286Z" fill="white"/>
<path d="M51.39 289.62C51.2814 289.621 51.1746 289.593 51.08 289.54C51.045 289.522 51.0143 289.497 50.9901 289.466C50.9659 289.434 50.9488 289.398 50.94 289.36C50.9376 289.326 50.9459 289.292 50.9639 289.264C50.9819 289.235 51.0085 289.213 51.04 289.2L52.58 288.31C52.303 288.261 52.036 288.166 51.79 288.03L50.51 287.29C50.3637 287.226 50.2347 287.129 50.1338 287.005C50.033 286.882 49.9631 286.736 49.93 286.58C49.9198 286.441 49.9539 286.302 50.0276 286.183C50.1013 286.065 50.2106 285.973 50.34 285.92L51.72 285.12C51.8104 285.077 51.9099 285.056 52.01 285.06C52.1184 285.06 52.225 285.088 52.32 285.14C52.3551 285.158 52.3858 285.183 52.4099 285.215C52.4341 285.246 52.4512 285.282 52.46 285.32C52.46 285.39 52.46 285.44 52.36 285.49L50.98 286.29C50.9153 286.317 50.8604 286.363 50.8228 286.422C50.7852 286.481 50.7668 286.55 50.77 286.62C50.7894 286.696 50.8254 286.767 50.8756 286.828C50.9257 286.888 50.9887 286.937 51.06 286.97L52.34 287.71C52.527 287.814 52.7361 287.873 52.95 287.88C53.151 287.899 53.3532 287.858 53.53 287.76L54.91 286.96C55.0008 286.918 55.1 286.897 55.2 286.9C55.3079 286.904 55.4136 286.931 55.51 286.98C55.5455 286.997 55.5765 287.023 55.6008 287.054C55.625 287.085 55.6419 287.121 55.65 287.16C55.6547 287.195 55.6474 287.231 55.6293 287.262C55.6112 287.293 55.5833 287.317 55.55 287.33L51.68 289.57C51.5904 289.615 51.4895 289.632 51.39 289.62Z" fill="white"/>
<path d="M61.33 292.1C61.33 292.1 61.33 292.1 61.33 292.19C61.3429 292.227 61.3675 292.259 61.4 292.28L63.16 293.28C63.3062 293.344 63.4352 293.441 63.5361 293.565C63.637 293.688 63.7069 293.834 63.74 293.99C63.7508 294.131 63.7171 294.271 63.6434 294.392C63.5698 294.512 63.4601 294.606 63.33 294.66L62.78 294.98C62.422 295.163 62.0205 295.242 61.62 295.21C61.1927 295.2 60.7742 295.087 60.4 294.88L59.12 294.14C58.9737 294.077 58.8447 293.979 58.7438 293.856C58.6429 293.732 58.573 293.586 58.54 293.43C58.5291 293.29 58.5629 293.149 58.6365 293.029C58.7101 292.908 58.8198 292.814 58.95 292.76C59.0404 292.717 59.1399 292.696 59.24 292.7C59.3483 292.709 59.4538 292.739 59.55 292.79C59.585 292.808 59.6157 292.834 59.6399 292.865C59.6641 292.896 59.6812 292.932 59.69 292.97C59.6924 293.004 59.684 293.038 59.6661 293.066C59.6481 293.095 59.6214 293.118 59.59 293.13C59.5226 293.156 59.4656 293.203 59.4276 293.265C59.3897 293.326 59.373 293.398 59.38 293.47C59.3993 293.546 59.4354 293.617 59.4855 293.678C59.5357 293.738 59.5987 293.787 59.67 293.82L60.95 294.56C61.1372 294.662 61.3466 294.717 61.56 294.72C61.76 294.743 61.9621 294.704 62.14 294.61L62.69 294.29C62.7564 294.263 62.8125 294.215 62.8502 294.154C62.8879 294.093 62.9053 294.022 62.9 293.95C62.8806 293.874 62.8445 293.803 62.7944 293.742C62.7442 293.682 62.6812 293.633 62.61 293.6L60.69 292.49C60.6187 292.457 60.5557 292.408 60.5055 292.348C60.4554 292.287 60.4193 292.216 60.4 292.14C60.3935 292.07 60.4107 291.999 60.4487 291.939C60.4867 291.88 60.5434 291.834 60.61 291.81L61.99 291.01C62.0771 290.958 62.1793 290.937 62.28 290.95C62.3852 290.951 62.4885 290.978 62.58 291.03L65.78 292.87C65.815 292.888 65.8457 292.914 65.8699 292.945C65.8941 292.976 65.9112 293.012 65.92 293.05C65.92 293.12 65.92 293.17 65.82 293.22C65.7298 293.264 65.6301 293.285 65.53 293.28C65.4244 293.273 65.3219 293.242 65.23 293.19L62.51 291.62H62.36C62.3112 291.604 62.2587 291.604 62.21 291.62L61.33 292.1Z" fill="white"/>
<path d="M66.94 295.5L68.22 296.24C68.3663 296.304 68.4952 296.401 68.5961 296.525C68.697 296.648 68.7669 296.794 68.8 296.95C68.8109 297.091 68.7771 297.231 68.7035 297.351C68.6298 297.472 68.5201 297.566 68.39 297.62L67.84 297.94C67.4824 298.124 67.0805 298.203 66.68 298.17C66.2483 298.159 65.8258 298.043 65.45 297.83L64.18 297.1C64.0337 297.036 63.9047 296.939 63.8038 296.815C63.7029 296.692 63.633 296.546 63.6 296.39C63.5868 296.25 63.6184 296.11 63.6904 295.99C63.7623 295.869 63.8707 295.775 64 295.72L66.22 294.44C66.5744 294.258 66.9727 294.178 67.37 294.21C67.8006 294.219 68.2226 294.332 68.6 294.54L69.88 295.28C70.0263 295.344 70.1552 295.441 70.2561 295.565C70.357 295.688 70.4269 295.834 70.46 295.99C70.4709 296.131 70.4371 296.271 70.3635 296.391C70.2898 296.512 70.1801 296.606 70.05 296.66C69.9635 296.714 69.8607 296.735 69.76 296.72C69.6542 296.715 69.5513 296.684 69.46 296.63C69.4238 296.615 69.3915 296.592 69.3655 296.562C69.3395 296.533 69.3205 296.498 69.31 296.46C69.31 296.39 69.31 296.34 69.41 296.29C69.51 296.24 69.64 296.09 69.62 295.96C69.6024 295.88 69.566 295.806 69.5138 295.744C69.4616 295.681 69.3951 295.632 69.32 295.6L68.05 294.86C67.8591 294.758 67.6465 294.703 67.43 294.7C67.2336 294.685 67.0367 294.723 66.86 294.81L66.15 295.22C66.4266 295.271 66.6933 295.365 66.94 295.5ZM64.64 296.09C64.5762 296.117 64.5226 296.163 64.4867 296.223C64.4508 296.282 64.4345 296.351 64.44 296.42C64.4558 296.499 64.4904 296.573 64.5409 296.636C64.5914 296.698 64.6562 296.748 64.73 296.78L66.01 297.52C66.197 297.624 66.406 297.683 66.62 297.69C66.821 297.709 67.0232 297.668 67.2 297.57L67.76 297.25C67.8237 297.223 67.8773 297.177 67.9132 297.117C67.9491 297.058 67.9655 296.989 67.96 296.92C67.9424 296.84 67.906 296.766 67.8538 296.703C67.8016 296.641 67.7351 296.592 67.66 296.56L66.39 295.82C66.1999 295.715 65.9873 295.656 65.77 295.65C65.5723 295.633 65.3739 295.674 65.2 295.77L64.64 296.09Z" fill="white"/>
<path d="M74.31 299.91L70.52 300.44H70H69.92C69.8493 300.403 69.793 300.343 69.76 300.27C69.76 300.21 69.8 300.15 69.88 300.09C70.0224 300.046 70.1711 300.026 70.32 300.03C71.53 299.86 72.7 299.68 73.83 299.5C73.9444 299.489 74.056 299.459 74.16 299.41L74.43 299.31L74.52 299.26C74.5855 299.232 74.6404 299.184 74.6764 299.123C74.7124 299.062 74.7277 298.991 74.72 298.92C74.7044 298.842 74.6697 298.77 74.6191 298.708C74.5685 298.647 74.5035 298.6 74.43 298.57L73.79 298.2L73.48 298.02L72.2 297.28C72.1627 297.264 72.1296 297.239 72.1036 297.208C72.0775 297.177 72.0592 297.14 72.05 297.1C72.0476 297.066 72.0559 297.032 72.0739 297.004C72.0919 296.975 72.1185 296.953 72.15 296.94C72.2374 296.889 72.3394 296.867 72.44 296.88C72.5486 296.879 72.6555 296.907 72.75 296.96L74.03 297.7L74.35 297.88L74.99 298.25C75.1344 298.315 75.2614 298.413 75.3605 298.536C75.4596 298.66 75.528 298.805 75.56 298.96C75.5732 299.1 75.5416 299.24 75.4696 299.36C75.3977 299.481 75.2892 299.575 75.16 299.63C75.0148 299.704 74.8644 299.768 74.71 299.82C74.5796 299.862 74.4458 299.892 74.31 299.91Z" fill="white"/>
<path d="M78.33 303.67L78.05 303.83C77.6993 304.024 77.2987 304.107 76.9 304.07C76.4679 304.063 76.0447 303.946 75.67 303.73L74.39 303C74.2437 302.937 74.1147 302.839 74.0138 302.716C73.9129 302.592 73.843 302.446 73.81 302.29C73.8006 302.15 73.835 302.01 73.9085 301.89C73.9819 301.77 74.0907 301.676 74.22 301.62L74.5 301.46C74.6775 301.362 74.8702 301.295 75.07 301.26C75.299 301.23 75.531 301.23 75.76 301.26C75.7158 301.131 75.7158 300.99 75.76 300.86C75.8481 300.723 75.9682 300.61 76.11 300.53L76.38 300.37C76.7379 300.188 77.1395 300.108 77.54 300.14C77.9702 300.152 78.3916 300.265 78.77 300.47L80.04 301.21C80.1863 301.274 80.3152 301.371 80.4161 301.495C80.517 301.618 80.5869 301.764 80.62 301.92C80.6332 302.06 80.6015 302.2 80.5296 302.321C80.4577 302.441 80.3492 302.536 80.22 302.59L79.94 302.75C79.7589 302.846 79.5627 302.91 79.36 302.94C79.131 302.971 78.899 302.971 78.67 302.94C78.7192 303.069 78.7192 303.211 78.67 303.34C78.5911 303.481 78.473 303.596 78.33 303.67ZM79.63 302.19C79.6955 302.163 79.7503 302.115 79.7864 302.053C79.8224 301.992 79.8377 301.921 79.83 301.85C79.8127 301.773 79.7775 301.701 79.7271 301.64C79.6766 301.58 79.6125 301.532 79.54 301.5L78.26 300.76C78.0735 300.655 77.8641 300.597 77.65 300.59C77.4499 300.584 77.2513 300.625 77.07 300.71L76.8 300.87C76.7326 300.896 76.6756 300.943 76.6377 301.005C76.5997 301.066 76.583 301.138 76.59 301.21C76.6093 301.286 76.6454 301.357 76.6956 301.418C76.7457 301.478 76.8087 301.527 76.88 301.56L78.16 302.3C78.3473 302.402 78.5566 302.457 78.77 302.46C78.9696 302.475 79.1697 302.437 79.35 302.35L79.63 302.19ZM77.69 303.3C77.7557 303.276 77.8113 303.23 77.8476 303.17C77.8839 303.11 77.8989 303.04 77.89 302.97C77.8743 302.893 77.8396 302.82 77.789 302.759C77.7384 302.698 77.6735 302.65 77.6 302.62L76.33 301.88C76.1399 301.775 75.9273 301.717 75.71 301.71C75.5123 301.693 75.3139 301.735 75.14 301.83L74.86 301.99C74.7962 302.017 74.7426 302.064 74.7067 302.123C74.6708 302.182 74.6545 302.251 74.66 302.32C74.6741 302.4 74.7081 302.475 74.7588 302.537C74.8095 302.6 74.8752 302.65 74.95 302.68L76.22 303.41C76.4083 303.52 76.622 303.579 76.84 303.58C77.0377 303.598 77.2361 303.556 77.41 303.46L77.69 303.3Z" fill="white"/>
<path d="M85.8899 309.63L84.6099 308.89C84.4648 308.827 84.3366 308.731 84.2358 308.61C84.135 308.488 84.0644 308.344 84.0299 308.19C84.0175 308.049 84.0506 307.908 84.1244 307.787C84.1982 307.667 84.3088 307.573 84.4399 307.52C84.53 307.476 84.6298 307.455 84.7299 307.46C84.8391 307.464 84.9456 307.495 85.0399 307.55C85.0735 307.567 85.1033 307.591 85.1273 307.621C85.1514 307.65 85.1693 307.684 85.1799 307.72C85.183 307.755 85.175 307.79 85.1571 307.821C85.1392 307.851 85.1122 307.875 85.0799 307.89C85.0152 307.917 84.9603 307.963 84.9227 308.022C84.8851 308.081 84.8667 308.15 84.8699 308.22C84.8872 308.298 84.9224 308.371 84.9727 308.434C85.023 308.496 85.0871 308.546 85.1599 308.58L86.4399 309.31C86.63 309.415 86.8426 309.474 87.0599 309.48C87.2595 309.494 87.4593 309.456 87.6399 309.37L88.3399 308.96C88.0588 308.909 87.7884 308.811 87.5399 308.67L86.2699 307.94C86.1236 307.876 85.9947 307.779 85.8938 307.655C85.7929 307.532 85.723 307.386 85.6899 307.23C85.679 307.089 85.7128 306.949 85.7864 306.829C85.86 306.708 85.9697 306.614 86.0999 306.56L86.6499 306.24C87.0078 306.057 87.4094 305.978 87.8099 306.01C88.2372 306.02 88.6557 306.133 89.0299 306.34L90.3099 307.08C90.4562 307.143 90.5852 307.241 90.6861 307.365C90.787 307.488 90.8569 307.634 90.8899 307.79C90.9031 307.93 90.8715 308.07 90.7995 308.19C90.7276 308.311 90.6192 308.405 90.4899 308.46L88.2699 309.73C87.9192 309.923 87.5186 310.007 87.1199 309.97C86.6878 309.962 86.2646 309.845 85.8899 309.63ZM89.8899 308.09C89.9554 308.062 90.0103 308.014 90.0463 307.953C90.0823 307.892 90.0976 307.821 90.0899 307.75C90.0743 307.672 90.0396 307.599 89.989 307.538C89.9384 307.477 89.8734 307.43 89.7999 307.4L88.5199 306.66C88.3329 306.556 88.1239 306.497 87.9099 306.49C87.7089 306.47 87.5067 306.512 87.3299 306.61L86.7799 306.93C86.7152 306.957 86.6603 307.003 86.6227 307.062C86.5851 307.121 86.5667 307.19 86.5699 307.26C86.5872 307.338 86.6224 307.411 86.6727 307.474C86.723 307.536 86.7871 307.586 86.8599 307.62L88.1399 308.35C88.3245 308.46 88.5351 308.518 88.7499 308.52C88.953 308.54 89.1576 308.502 89.3399 308.41L89.8899 308.09Z" fill="white"/>
<path d="M90.67 312.4L88.76 311.29C88.7227 311.274 88.6896 311.249 88.6636 311.218C88.6375 311.187 88.6192 311.15 88.61 311.11C88.6058 311.076 88.6135 311.042 88.6317 311.012C88.6499 310.983 88.6775 310.961 88.71 310.95C88.7971 310.898 88.8993 310.877 89 310.89C89.1085 310.889 89.2154 310.917 89.31 310.97L89.95 311.34L92.71 309.74C92.7739 309.712 92.828 309.666 92.8654 309.607C92.9028 309.548 92.9218 309.48 92.92 309.41C92.9031 309.334 92.869 309.263 92.8205 309.203C92.772 309.142 92.7102 309.093 92.64 309.06C92.6038 309.045 92.5715 309.022 92.5455 308.992C92.5195 308.963 92.5005 308.928 92.49 308.89C92.49 308.82 92.49 308.77 92.59 308.72C92.6804 308.677 92.7799 308.656 92.88 308.66C92.9901 308.658 93.0983 308.689 93.19 308.75C93.3351 308.813 93.4633 308.909 93.5641 309.03C93.6649 309.152 93.7355 309.296 93.77 309.45C93.7809 309.591 93.7471 309.731 93.6735 309.851C93.5999 309.972 93.4902 310.066 93.36 310.12L90.6 311.72L91.23 312.09C91.2662 312.105 91.2985 312.128 91.3245 312.158C91.3505 312.187 91.3695 312.222 91.38 312.26C91.3823 312.296 91.3729 312.333 91.3531 312.363C91.3333 312.394 91.3041 312.417 91.27 312.43C91.1847 312.478 91.0872 312.498 90.99 312.49C90.8779 312.484 90.7686 312.454 90.67 312.4Z" fill="white"/>
<path d="M94.8299 314.79L93.5499 314.06C93.4036 313.997 93.2746 313.899 93.1737 313.775C93.0728 313.652 93.0029 313.506 92.9699 313.35C92.959 313.209 92.9928 313.069 93.0664 312.949C93.14 312.828 93.2497 312.734 93.3799 312.68L95.5899 311.4C95.9478 311.217 96.3494 311.138 96.7499 311.17C97.1772 311.18 97.5956 311.294 97.9699 311.5L99.2499 312.24C99.3962 312.304 99.5252 312.401 99.626 312.525C99.7269 312.648 99.7968 312.794 99.8299 312.95C99.8408 313.091 99.807 313.231 99.7334 313.351C99.6598 313.472 99.5501 313.566 99.4199 313.62L97.2099 314.89C96.8547 315.081 96.4516 315.164 96.0499 315.13C95.6211 315.121 95.2015 315.004 94.8299 314.79ZM94.0999 313.74L95.3799 314.48C95.4974 314.538 95.6217 314.582 95.7499 314.61L96.1799 311.8L93.9999 313.05C93.9352 313.077 93.8803 313.123 93.8427 313.182C93.8051 313.241 93.7867 313.31 93.7899 313.38C93.8092 313.46 93.8475 313.535 93.9014 313.598C93.9553 313.66 94.0233 313.709 94.0999 313.74ZM98.6999 312.56L97.4199 311.82C97.3035 311.759 97.1789 311.715 97.0499 311.69L96.6199 314.5L98.7799 313.25C98.8463 313.223 98.9024 313.175 98.9401 313.114C98.9778 313.053 98.9953 312.982 98.9899 312.91C98.9705 312.834 98.9345 312.763 98.8843 312.702C98.8342 312.642 98.7712 312.593 98.6999 312.56Z" fill="white"/>
<path d="M99.6099 317.56L97.6899 316.45C97.6549 316.432 97.6242 316.407 97.6 316.376C97.5758 316.345 97.5587 316.309 97.5499 316.27C97.5458 316.236 97.5534 316.202 97.5716 316.173C97.5898 316.144 97.6175 316.122 97.6499 316.11C97.7371 316.058 97.8393 316.037 97.9399 316.05C98.0485 316.049 98.1554 316.077 98.2499 316.13L98.8899 316.5L101.65 314.9C101.715 314.874 101.77 314.828 101.807 314.769C101.845 314.709 101.863 314.64 101.86 314.57C101.841 314.494 101.805 314.423 101.754 314.363C101.704 314.302 101.641 314.254 101.57 314.22C101.536 314.203 101.507 314.179 101.483 314.15C101.458 314.12 101.441 314.087 101.43 314.05C101.43 313.98 101.43 313.93 101.53 313.88C101.622 313.831 101.725 313.806 101.83 313.806C101.935 313.806 102.038 313.831 102.13 313.88C102.275 313.943 102.403 314.039 102.504 314.161C102.605 314.282 102.675 314.426 102.71 314.58C102.722 314.721 102.689 314.862 102.615 314.983C102.542 315.104 102.431 315.197 102.3 315.25L99.5299 316.85L100.17 317.22C100.207 317.237 100.24 317.261 100.266 317.292C100.292 317.324 100.311 317.361 100.32 317.4C100.319 317.435 100.308 317.468 100.288 317.496C100.269 317.525 100.242 317.547 100.21 317.56C100.122 317.609 100.02 317.63 99.9199 317.62C99.8135 317.623 99.7077 317.602 99.6099 317.56Z" fill="white"/>
<path d="M108.55 322.72L106.63 321.61C106.596 321.593 106.567 321.569 106.543 321.539C106.518 321.51 106.501 321.476 106.49 321.44C106.485 321.405 106.492 321.369 106.511 321.338C106.529 321.307 106.557 321.283 106.59 321.27C106.68 321.227 106.78 321.206 106.88 321.21C106.988 321.214 107.094 321.241 107.19 321.29L107.83 321.66L110.59 320.06C110.655 320.033 110.71 319.987 110.747 319.928C110.785 319.869 110.803 319.8 110.8 319.73C110.783 319.654 110.749 319.583 110.7 319.523C110.652 319.462 110.59 319.413 110.52 319.38C110.43 319.32 110.38 319.27 110.37 319.2C110.36 319.13 110.37 319.08 110.47 319.03C110.56 318.987 110.66 318.966 110.76 318.97C110.869 318.977 110.974 319.008 111.07 319.06C111.216 319.124 111.345 319.221 111.446 319.345C111.547 319.468 111.617 319.614 111.65 319.77C111.659 319.909 111.624 320.047 111.55 320.166C111.477 320.284 111.368 320.376 111.24 320.43L108.47 322.03L109.11 322.4C109.147 322.416 109.18 322.441 109.206 322.472C109.232 322.504 109.251 322.54 109.26 322.58C109.259 322.615 109.248 322.648 109.228 322.676C109.209 322.705 109.182 322.727 109.15 322.74C109.063 322.794 108.961 322.815 108.86 322.8C108.751 322.802 108.644 322.774 108.55 322.72Z" fill="white"/>
<path d="M114.36 324.16L113.09 323.42C112.9 323.315 112.687 323.256 112.47 323.25C112.272 323.233 112.074 323.274 111.9 323.37L111.48 323.61C111.473 323.622 111.469 323.636 111.469 323.65C111.469 323.664 111.473 323.678 111.48 323.69C111.484 323.709 111.492 323.728 111.505 323.743C111.517 323.759 111.532 323.771 111.55 323.78L114.27 325.35C114.36 325.35 114.41 325.46 114.41 325.53C114.41 325.6 114.41 325.65 114.31 325.7C114.22 325.744 114.12 325.765 114.02 325.76C113.914 325.753 113.812 325.722 113.72 325.67L110.52 323.83C110.484 323.814 110.452 323.789 110.427 323.758C110.403 323.726 110.387 323.689 110.38 323.65C110.38 323.58 110.38 323.53 110.48 323.48L111.31 323C111.664 322.818 112.063 322.738 112.46 322.77C112.891 322.779 113.313 322.892 113.69 323.1L114.97 323.84C115.157 323.945 115.366 324.004 115.58 324.01C115.781 324.03 115.983 323.988 116.16 323.89L116.72 323.57C116.784 323.543 116.837 323.497 116.873 323.437C116.909 323.378 116.926 323.309 116.92 323.24C116.903 323.162 116.868 323.088 116.817 323.026C116.767 322.964 116.703 322.914 116.63 322.88L115.35 322.14C115.162 322.039 114.953 321.984 114.74 321.98C114.539 321.961 114.337 322.002 114.16 322.1C114.065 322.126 113.965 322.126 113.87 322.1C113.761 322.101 113.655 322.073 113.56 322.02C113.525 322.002 113.494 321.977 113.47 321.946C113.446 321.914 113.429 321.878 113.42 321.84C113.416 321.806 113.423 321.771 113.442 321.742C113.46 321.713 113.488 321.691 113.52 321.68C113.875 321.488 114.278 321.405 114.68 321.44C115.109 321.449 115.528 321.566 115.9 321.78L117.18 322.51C117.326 322.574 117.455 322.671 117.556 322.795C117.657 322.918 117.727 323.064 117.76 323.22C117.775 323.36 117.744 323.501 117.672 323.622C117.6 323.743 117.49 323.837 117.36 323.89L116.8 324.21C116.449 324.403 116.049 324.487 115.65 324.45C115.203 324.46 114.76 324.36 114.36 324.16Z" fill="white"/>
<path d="M117.49 327.88L115.57 326.77C115.536 326.753 115.507 326.729 115.483 326.699C115.459 326.67 115.441 326.636 115.43 326.6C115.425 326.565 115.433 326.529 115.451 326.498C115.469 326.467 115.497 326.443 115.53 326.43C115.62 326.387 115.72 326.366 115.82 326.37C115.928 326.374 116.034 326.401 116.13 326.45L116.77 326.82L119.53 325.23C119.594 325.203 119.647 325.157 119.683 325.097C119.719 325.038 119.735 324.969 119.73 324.9C119.717 324.822 119.684 324.748 119.635 324.685C119.587 324.622 119.523 324.572 119.45 324.54C119.415 324.522 119.384 324.497 119.36 324.466C119.336 324.435 119.319 324.399 119.31 324.36C119.31 324.29 119.31 324.24 119.41 324.2C119.498 324.149 119.599 324.125 119.7 324.13C119.808 324.139 119.914 324.169 120.01 324.22C120.156 324.284 120.285 324.381 120.386 324.505C120.487 324.628 120.557 324.774 120.59 324.93C120.6 325.069 120.566 325.208 120.492 325.327C120.419 325.445 120.309 325.538 120.18 325.59L117.41 327.19L118.05 327.56C118.087 327.576 118.12 327.601 118.146 327.632C118.172 327.664 118.191 327.7 118.2 327.74C118.199 327.775 118.188 327.808 118.168 327.836C118.149 327.865 118.122 327.887 118.09 327.9C118.003 327.954 117.901 327.975 117.8 327.96C117.691 327.962 117.584 327.934 117.49 327.88Z" fill="white"/>
<path d="M124.3 330.22L124.03 330.38C123.672 330.563 123.27 330.642 122.87 330.61C122.443 330.6 122.024 330.487 121.65 330.28L120.37 329.54C120.224 329.477 120.095 329.379 119.994 329.256C119.893 329.132 119.823 328.986 119.79 328.83C119.779 328.689 119.813 328.549 119.886 328.429C119.96 328.308 120.07 328.214 120.2 328.16C120.286 328.116 120.384 328.099 120.48 328.11C120.589 328.109 120.695 328.137 120.79 328.19C120.827 328.206 120.86 328.231 120.886 328.262C120.912 328.294 120.931 328.33 120.94 328.37C120.94 328.403 120.93 328.436 120.913 328.464C120.895 328.493 120.87 328.515 120.84 328.53C120.773 328.556 120.716 328.603 120.678 328.665C120.64 328.726 120.623 328.798 120.63 328.87C120.647 328.947 120.682 329.019 120.733 329.08C120.783 329.141 120.847 329.189 120.92 329.22L122.2 329.96C122.386 330.065 122.596 330.124 122.81 330.13C123.011 330.15 123.213 330.108 123.39 330.01L123.67 329.85C123.735 329.823 123.79 329.775 123.826 329.713C123.862 329.652 123.878 329.581 123.87 329.51C123.853 329.433 123.817 329.361 123.767 329.3C123.717 329.239 123.653 329.191 123.58 329.16L123.26 328.98C123.224 328.962 123.192 328.936 123.167 328.905C123.141 328.874 123.122 328.839 123.11 328.8C123.11 328.764 123.121 328.729 123.14 328.699C123.16 328.669 123.187 328.645 123.22 328.63C123.307 328.587 123.403 328.566 123.5 328.57C123.609 328.577 123.714 328.608 123.81 328.66L124.13 328.84C124.32 328.946 124.533 329.004 124.75 329.01C124.951 329.026 125.152 328.984 125.33 328.89L125.6 328.73C125.664 328.702 125.718 328.656 125.755 328.597C125.793 328.538 125.812 328.47 125.81 328.4C125.791 328.322 125.756 328.25 125.705 328.188C125.655 328.125 125.592 328.075 125.52 328.04L124.24 327.31C124.052 327.2 123.838 327.142 123.62 327.14C123.422 327.123 123.224 327.164 123.05 327.26C122.959 327.302 122.86 327.323 122.76 327.32C122.651 327.313 122.546 327.282 122.45 327.23C122.413 327.214 122.38 327.189 122.354 327.158C122.327 327.127 122.309 327.09 122.3 327.05C122.301 327.016 122.312 326.982 122.332 326.954C122.351 326.926 122.378 326.904 122.41 326.89C122.761 326.697 123.161 326.613 123.56 326.65C123.992 326.658 124.415 326.775 124.79 326.99L126.07 327.72C126.216 327.784 126.345 327.881 126.446 328.005C126.547 328.128 126.617 328.274 126.65 328.43C126.661 328.571 126.627 328.711 126.553 328.832C126.48 328.952 126.37 329.046 126.24 329.1L125.96 329.26C125.782 329.358 125.59 329.426 125.39 329.46C125.16 329.481 124.93 329.481 124.7 329.46C124.744 329.586 124.744 329.724 124.7 329.85C124.609 330.013 124.469 330.142 124.3 330.22Z" fill="white"/>
<path d="M103.41 330L102.29 329.35C102.29 329.35 102.21 329.29 102.21 329.25C102.21 329.21 102.21 329.18 102.21 329.15C102.266 329.139 102.324 329.139 102.38 329.15C102.443 329.15 102.506 329.167 102.56 329.2L102.94 329.41L104.55 328.48C104.588 328.465 104.619 328.439 104.641 328.405C104.663 328.371 104.673 328.33 104.67 328.29C104.66 328.246 104.64 328.204 104.613 328.168C104.585 328.132 104.55 328.102 104.51 328.08C104.467 328.056 104.435 328.017 104.42 327.97C104.421 327.951 104.428 327.933 104.438 327.917C104.449 327.901 104.463 327.889 104.48 327.88C104.536 327.864 104.594 327.864 104.65 327.88C104.713 327.885 104.774 327.902 104.83 327.93C104.916 327.968 104.992 328.026 105.051 328.099C105.11 328.172 105.151 328.258 105.17 328.35C105.175 328.432 105.154 328.513 105.111 328.583C105.068 328.653 105.005 328.707 104.93 328.74L103.32 329.67L103.69 329.88C103.733 329.904 103.765 329.943 103.78 329.99C103.78 330.011 103.774 330.031 103.761 330.048C103.748 330.064 103.73 330.075 103.71 330.08C103.658 330.096 103.602 330.096 103.55 330.08C103.499 330.061 103.452 330.034 103.41 330Z" fill="white"/>
<path d="M106.8 330.85L106.06 330.42C105.949 330.36 105.826 330.326 105.7 330.32C105.582 330.314 105.465 330.338 105.36 330.39L105.12 330.53C105.116 330.538 105.113 330.547 105.113 330.555C105.113 330.564 105.116 330.573 105.12 330.58C105.114 330.596 105.114 330.614 105.12 330.63L106.71 331.55C106.76 331.55 106.79 331.61 106.79 331.65C106.79 331.69 106.79 331.72 106.73 331.75C106.675 331.772 106.615 331.772 106.56 331.75C106.504 331.765 106.446 331.765 106.39 331.75L104.52 330.68C104.498 330.67 104.48 330.655 104.466 330.636C104.452 330.616 104.443 330.594 104.44 330.57C104.436 330.552 104.439 330.533 104.449 330.516C104.458 330.5 104.472 330.487 104.49 330.48L104.98 330.2C105.184 330.088 105.418 330.039 105.65 330.06C105.902 330.063 106.15 330.128 106.37 330.25L107.12 330.68C107.228 330.746 107.353 330.781 107.48 330.78C107.595 330.797 107.712 330.772 107.81 330.71L108.14 330.53C108.178 330.514 108.211 330.486 108.232 330.45C108.254 330.414 108.263 330.372 108.26 330.33C108.26 330.25 108.19 330.19 108.08 330.12L107.34 329.69C107.229 329.633 107.105 329.602 106.98 329.6C106.862 329.584 106.742 329.609 106.64 329.67C106.584 329.683 106.526 329.683 106.47 329.67C106.41 329.669 106.351 329.652 106.3 329.62C106.279 329.611 106.26 329.597 106.245 329.58C106.229 329.562 106.217 329.542 106.21 329.52C106.211 329.5 106.216 329.48 106.227 329.463C106.237 329.445 106.252 329.431 106.27 329.42C106.479 329.311 106.715 329.263 106.95 329.28C107.2 329.286 107.444 329.354 107.66 329.48L108.41 329.91C108.495 329.947 108.57 330.004 108.629 330.075C108.688 330.146 108.729 330.23 108.75 330.32C108.758 330.403 108.739 330.485 108.695 330.556C108.652 330.626 108.587 330.68 108.51 330.71L108.19 330.9C107.98 331.008 107.745 331.057 107.51 331.04C107.261 331.035 107.018 330.97 106.8 330.85Z" fill="white"/>
<path d="M111.28 333.43L110.53 333C110.42 332.938 110.296 332.907 110.17 332.91C110.056 332.897 109.942 332.918 109.84 332.97L109.59 333.11C109.59 333.11 109.59 333.11 109.59 333.16C109.606 333.165 109.624 333.165 109.64 333.16L111.22 334.08C111.241 334.09 111.26 334.104 111.275 334.121C111.291 334.138 111.302 334.158 111.31 334.18C111.31 334.201 111.305 334.221 111.294 334.239C111.284 334.256 111.268 334.271 111.25 334.28C111.194 334.296 111.135 334.296 111.08 334.28C111.017 334.275 110.956 334.258 110.9 334.23L109 333.24C108.95 333.24 108.92 333.18 108.92 333.14C108.917 333.129 108.916 333.118 108.918 333.108C108.919 333.097 108.923 333.086 108.928 333.077C108.934 333.068 108.941 333.06 108.95 333.053C108.959 333.047 108.969 333.042 108.98 333.04L109.46 332.76C109.67 332.652 109.905 332.604 110.14 332.62C110.39 332.625 110.634 332.694 110.85 332.82L111.6 333.25C111.71 333.311 111.834 333.346 111.96 333.35C112.077 333.356 112.194 333.332 112.3 333.28L112.62 333.09C112.71 333.09 112.75 332.98 112.74 332.9C112.729 332.854 112.708 332.812 112.679 332.775C112.65 332.739 112.612 332.71 112.57 332.69L111.82 332.26C111.709 332.199 111.586 332.164 111.46 332.16C111.345 332.15 111.231 332.174 111.13 332.23C111.074 332.246 111.015 332.246 110.96 332.23C110.9 332.241 110.839 332.241 110.78 332.23C110.737 332.206 110.705 332.167 110.69 332.12C110.691 332.1 110.696 332.08 110.707 332.062C110.717 332.045 110.732 332.03 110.75 332.02C110.959 331.911 111.195 331.866 111.43 331.89C111.682 331.893 111.929 331.959 112.15 332.08L112.89 332.51C112.976 332.548 113.052 332.606 113.111 332.679C113.17 332.752 113.211 332.838 113.23 332.93C113.235 333.012 113.214 333.093 113.171 333.163C113.128 333.232 113.065 333.287 112.99 333.32L112.67 333.5C112.466 333.612 112.232 333.661 112 333.64C111.746 333.633 111.498 333.561 111.28 333.43Z" fill="white"/>
<path d="M114.84 335.68L114.68 335.77C114.476 335.882 114.242 335.931 114.01 335.91C113.757 335.903 113.51 335.834 113.29 335.71L112.55 335.28C112.464 335.245 112.387 335.19 112.328 335.118C112.269 335.046 112.228 334.961 112.21 334.87C112.202 334.788 112.221 334.705 112.265 334.635C112.308 334.564 112.373 334.51 112.45 334.48C112.502 334.463 112.558 334.463 112.61 334.48C112.669 334.464 112.731 334.464 112.79 334.48C112.833 334.504 112.865 334.543 112.88 334.59C112.879 334.61 112.873 334.63 112.863 334.648C112.852 334.665 112.838 334.68 112.82 334.69C112.73 334.74 112.69 334.8 112.7 334.88C112.711 334.926 112.731 334.968 112.761 335.004C112.79 335.041 112.828 335.07 112.87 335.09L113.61 335.52C113.721 335.579 113.844 335.613 113.97 335.62C114.087 335.626 114.204 335.602 114.31 335.55L114.47 335.45C114.56 335.45 114.6 335.34 114.59 335.26C114.579 335.214 114.558 335.172 114.529 335.135C114.5 335.099 114.462 335.07 114.42 335.05L114.23 334.94C114.23 334.94 114.15 334.88 114.15 334.84C114.15 334.8 114.15 334.77 114.21 334.74C114.266 334.728 114.324 334.728 114.38 334.74C114.439 334.725 114.501 334.725 114.56 334.74L114.74 334.85C114.85 334.91 114.974 334.941 115.1 334.94C115.218 334.956 115.338 334.932 115.44 334.87L115.6 334.78C115.638 334.765 115.669 334.739 115.691 334.705C115.713 334.67 115.723 334.63 115.72 334.59C115.709 334.544 115.688 334.502 115.659 334.466C115.63 334.429 115.592 334.4 115.55 334.38L114.81 333.95C114.698 333.891 114.576 333.857 114.45 333.85C114.333 333.844 114.215 333.868 114.11 333.92C114.055 333.941 113.995 333.941 113.94 333.92C113.881 333.931 113.819 333.931 113.76 333.92C113.738 333.91 113.72 333.895 113.706 333.875C113.692 333.856 113.683 333.834 113.68 333.81C113.68 333.81 113.68 333.74 113.74 333.71C113.947 333.606 114.179 333.561 114.41 333.58C114.662 333.583 114.909 333.649 115.13 333.77L115.87 334.2C115.956 334.238 116.032 334.296 116.091 334.369C116.15 334.442 116.191 334.528 116.21 334.62C116.215 334.702 116.194 334.783 116.151 334.853C116.108 334.922 116.045 334.977 115.97 335.01L115.81 335.1C115.707 335.156 115.596 335.193 115.48 335.21C115.344 335.23 115.206 335.23 115.07 335.21C115.099 335.287 115.099 335.373 115.07 335.45C115.024 335.552 114.942 335.634 114.84 335.68Z" fill="white"/>
<path d="M107.05 332.56C107.04 332.53 107.041 332.496 107.054 332.467C107.067 332.437 107.091 332.413 107.12 332.4L110.36 331.05C110.375 331.044 110.391 331.04 110.408 331.041C110.424 331.041 110.44 331.044 110.455 331.051C110.47 331.057 110.484 331.067 110.495 331.079C110.506 331.091 110.514 331.105 110.52 331.12C110.527 331.135 110.53 331.15 110.531 331.166C110.532 331.182 110.529 331.198 110.523 331.213C110.518 331.228 110.509 331.241 110.498 331.253C110.488 331.264 110.475 331.274 110.46 331.28L107.22 332.63C107.188 332.643 107.152 332.643 107.12 332.63C107.089 332.617 107.063 332.592 107.05 332.56Z" fill="white"/>
<path d="M145.84 317.51L135 323.77C134.545 324.002 134.041 324.123 133.53 324.123C133.019 324.123 132.515 324.002 132.06 323.77L118.83 316.23C118.652 316.171 118.498 316.058 118.388 315.906C118.278 315.754 118.219 315.572 118.219 315.385C118.219 315.198 118.278 315.015 118.388 314.864C118.498 314.712 118.652 314.599 118.83 314.54L129.67 308.28C130.125 308.048 130.629 307.927 131.14 307.927C131.651 307.927 132.155 308.048 132.61 308.28C136.19 310.35 142.25 313.74 145.83 315.82C146.008 315.878 146.163 315.99 146.274 316.141C146.384 316.292 146.444 316.474 146.446 316.661C146.447 316.848 146.389 317.031 146.28 317.184C146.171 317.336 146.017 317.45 145.84 317.51Z" fill="#CA9571"/>
<mask id="mask0_106_210" style="mask-type:luminance" maskUnits="userSpaceOnUse" x="118" y="307" width="29" height="18">
<path d="M145.84 317.51L135 323.77C134.545 324.002 134.041 324.123 133.53 324.123C133.019 324.123 132.515 324.002 132.06 323.77L118.83 316.23C118.652 316.171 118.498 316.058 118.388 315.906C118.278 315.754 118.219 315.572 118.219 315.385C118.219 315.198 118.278 315.015 118.388 314.864C118.498 314.712 118.652 314.599 118.83 314.54L129.67 308.28C130.125 308.048 130.629 307.927 131.14 307.927C131.651 307.927 132.155 308.048 132.61 308.28C136.19 310.35 142.25 313.74 145.83 315.82C146.008 315.878 146.163 315.99 146.274 316.141C146.384 316.292 146.444 316.474 146.446 316.661C146.447 316.848 146.389 317.031 146.28 317.184C146.171 317.336 146.017 317.45 145.84 317.51Z" fill="white"/>
</mask>
<g mask="url(#mask0_106_210)">
<path opacity="0.8" d="M145.84 317.51L135 323.77C134.545 324.002 134.041 324.123 133.53 324.123C133.019 324.123 132.515 324.002 132.06 323.77L118.83 316.23C118.652 316.171 118.498 316.058 118.388 315.906C118.278 315.754 118.219 315.572 118.219 315.385C118.219 315.198 118.278 315.015 118.388 314.864C118.498 314.712 118.652 314.599 118.83 314.54L129.67 308.28C130.125 308.048 130.629 307.927 131.14 307.927C131.651 307.927 132.155 308.048 132.61 308.28C136.19 310.35 142.25 313.74 145.83 315.82C146.008 315.878 146.163 315.99 146.274 316.141C146.384 316.292 146.444 316.474 146.446 316.661C146.447 316.848 146.389 317.031 146.28 317.184C146.171 317.336 146.017 317.45 145.84 317.51Z" fill="white"/>
<path d="M145.44 320.74L146.43 320.54L124.76 308.13L123.76 308.32L145.44 320.74Z" fill="#CA9571"/>
<path d="M131.65 318.96L132.65 319.15L138.17 315.96L137.17 315.77L131.65 318.96Z" fill="#CA9571"/>
<path d="M126.49 316.1L127.49 316.29L133 313.11L132.01 312.92L126.49 316.1Z" fill="#CA9571"/>
<path d="M139.9 323.93L140.9 323.74L119.23 311.32L118.23 311.52L139.9 323.93Z" fill="#CA9571"/>
</g>
<path d="M76.6899 316.15L24.9099 286.26C24.4049 286.004 23.8464 285.87 23.2799 285.87C22.7135 285.87 22.155 286.004 21.6499 286.26L21.4199 286.39C21.2269 286.46 21.0601 286.588 20.9422 286.756C20.8243 286.924 20.7611 287.125 20.7611 287.33C20.7611 287.536 20.8243 287.736 20.9422 287.904C21.0601 288.072 21.2269 288.2 21.4199 288.27L73.2099 318.17C73.715 318.427 74.2735 318.56 74.8399 318.56C75.4064 318.56 75.9649 318.427 76.4699 318.17L76.6899 318.04C76.8864 317.972 77.0568 317.845 77.1774 317.675C77.298 317.506 77.3629 317.303 77.3629 317.095C77.3629 316.887 77.298 316.685 77.1774 316.515C77.0568 316.346 76.8864 316.218 76.6899 316.15Z" fill="#455A64"/>
<path d="M71.88 258.77C71.9791 258.751 72.0809 258.751 72.18 258.77C72.2707 258.774 72.3595 258.798 72.44 258.84L73.25 259.31C73.33 259.36 73.37 259.41 73.37 259.47C73.37 259.53 73.37 259.59 73.25 259.63C72.9323 259.79 72.5966 259.911 72.25 259.99C71.8265 260.083 71.3933 260.123 70.96 260.11C70.4666 260.092 69.9768 260.018 69.5 259.89C68.9561 259.745 68.4346 259.526 67.95 259.24C67.5682 259.028 67.2291 258.746 66.95 258.41C66.7468 258.169 66.6306 257.866 66.62 257.55C66.6235 257.245 66.7291 256.949 66.92 256.71C67.1642 256.401 67.4582 256.134 67.79 255.92L68.62 255.42L69.49 254.94C69.9243 254.718 70.3844 254.55 70.86 254.44C71.3374 254.321 71.8278 254.26 72.32 254.26C72.8191 254.264 73.316 254.328 73.8 254.45C74.3055 254.583 74.7901 254.784 75.24 255.05C75.6673 255.276 76.0502 255.578 76.37 255.94C76.574 256.181 76.7027 256.477 76.74 256.79C76.7595 257.054 76.6852 257.316 76.53 257.53C76.3628 257.764 76.1564 257.967 75.92 258.13C75.8385 258.179 75.7448 258.203 75.65 258.2C75.5531 258.195 75.4581 258.171 75.37 258.13L74.55 257.65C74.5207 257.638 74.4946 257.618 74.4738 257.594C74.453 257.57 74.438 257.541 74.43 257.51C74.43 257.45 74.46 257.39 74.52 257.33C74.6247 257.246 74.71 257.14 74.77 257.02C74.8047 256.899 74.8047 256.771 74.77 256.65C74.7271 256.489 74.6446 256.341 74.53 256.22C74.3587 256.04 74.1595 255.888 73.94 255.77C73.6884 255.622 73.4151 255.514 73.13 255.45C72.8653 255.383 72.5931 255.349 72.32 255.35C72.0537 255.353 71.7886 255.387 71.53 255.45C71.2798 255.515 71.0381 255.609 70.81 255.73L69.94 256.2L69.12 256.7C68.9411 256.817 68.7795 256.958 68.64 257.12C68.5367 257.248 68.4771 257.406 68.47 257.57C68.4659 257.741 68.5226 257.908 68.63 258.04C68.7846 258.235 68.9789 258.396 69.2 258.51C69.4442 258.657 69.7064 258.771 69.98 258.85C70.2176 258.923 70.4623 258.97 70.71 258.99C70.9293 259.016 71.1507 259.016 71.37 258.99C71.5494 258.941 71.721 258.867 71.88 258.77Z" fill="#CA9571"/>
<path d="M82.14 259.13C82.98 259.62 83.43 260.13 83.47 260.58C83.51 261.03 83.2 261.49 82.47 261.89C81.9785 262.174 81.434 262.355 80.87 262.42C80.2804 262.491 79.6828 262.446 79.11 262.29L78.01 264.54L77.93 264.62C77.8582 264.654 77.7795 264.671 77.7 264.67C77.6239 264.67 77.5487 264.653 77.48 264.62L76.62 264.12C76.49 264.05 76.42 263.97 76.42 263.9C76.403 263.838 76.403 263.772 76.42 263.71L77.42 261.59L76.08 260.82L73.73 262.18C73.6459 262.221 73.5535 262.241 73.46 262.24C73.3632 262.243 73.2673 262.222 73.18 262.18L72.37 261.71C72.339 261.696 72.3124 261.673 72.293 261.645C72.2737 261.617 72.2623 261.584 72.26 261.55C72.2611 261.516 72.2721 261.482 72.2916 261.454C72.3111 261.426 72.3383 261.403 72.37 261.39L78.88 257.63C78.9647 257.58 79.0619 257.556 79.16 257.56C79.255 257.556 79.3492 257.58 79.43 257.63L82.14 259.13ZM77.45 260.13L78.91 260.98C79.2542 261.186 79.6342 261.325 80.03 261.39C80.4164 261.437 80.8073 261.352 81.14 261.15C81.52 260.93 81.66 260.72 81.56 260.51C81.3787 260.235 81.1265 260.014 80.83 259.87L79.37 259.03L77.45 260.13Z" fill="#CA9571"/>
<path d="M84.9299 267.44C84.9643 267.449 84.9948 267.469 85.0166 267.497C85.0384 267.525 85.0502 267.56 85.0502 267.595C85.0502 267.631 85.0384 267.665 85.0166 267.693C84.9948 267.721 84.9643 267.741 84.9299 267.75L84.2099 268.17C84.1253 268.21 84.0332 268.23 83.9399 268.23C83.8466 268.23 83.7545 268.21 83.6699 268.17L79.2399 265.61C79.2082 265.597 79.181 265.575 79.1615 265.546C79.142 265.518 79.131 265.485 79.1299 265.45C79.1321 265.416 79.1435 265.383 79.1629 265.355C79.1823 265.327 79.2089 265.304 79.2399 265.29L85.7599 261.53C85.8432 261.487 85.9362 261.466 86.0299 261.47C86.1234 261.468 86.2162 261.488 86.2999 261.53L90.6499 264.04C90.6809 264.054 90.7075 264.077 90.7269 264.105C90.7462 264.133 90.7576 264.166 90.7599 264.2C90.7558 264.234 90.7436 264.266 90.7245 264.294C90.7053 264.322 90.6797 264.344 90.6499 264.36L89.9299 264.77C89.8453 264.81 89.7532 264.83 89.6599 264.83C89.5666 264.83 89.4745 264.81 89.3899 264.77L86.1299 262.89L84.5199 263.81L87.5199 265.57C87.5516 265.584 87.5788 265.606 87.5983 265.634C87.6178 265.662 87.6288 265.696 87.6299 265.73C87.6295 265.764 87.6186 265.796 87.5989 265.823C87.5792 265.85 87.5516 265.87 87.5199 265.88L86.8099 266.3C86.7226 266.342 86.6267 266.363 86.5299 266.36C86.4362 266.364 86.3432 266.343 86.2599 266.3L83.2599 264.54L81.5899 265.54L84.9299 267.44Z" fill="#CA9571"/>
<path d="M94.9999 266.56C95.4149 266.783 95.7873 267.078 96.0999 267.43C96.3106 267.666 96.4372 267.965 96.4599 268.28C96.4542 268.586 96.3408 268.88 96.1399 269.11C95.8855 269.428 95.5775 269.699 95.2299 269.91C94.7599 270.22 94.2299 270.5 93.7399 270.78C93.2966 271.003 92.8306 271.177 92.3499 271.3C91.8806 271.428 91.3962 271.492 90.9099 271.49C90.4166 271.487 89.9259 271.42 89.4499 271.29C88.9351 271.148 88.4409 270.94 87.9799 270.67L85.4399 269.2C85.4055 269.191 85.375 269.171 85.3532 269.143C85.3314 269.115 85.3196 269.081 85.3196 269.045C85.3196 269.01 85.3314 268.975 85.3532 268.947C85.375 268.919 85.4055 268.899 85.4399 268.89L91.9599 265.12C92.0436 265.078 92.1363 265.058 92.2299 265.06C92.3267 265.058 92.4226 265.078 92.5099 265.12L94.9999 266.56ZM93.8699 269.13C94.0478 269.016 94.2064 268.874 94.3399 268.71C94.4452 268.58 94.5049 268.418 94.5099 268.25C94.5035 268.07 94.4366 267.898 94.3199 267.76C94.1387 267.556 93.9218 267.387 93.6799 267.26L92.3299 266.48L87.7899 269.1L89.1899 269.91C89.6933 270.207 90.2658 270.365 90.8499 270.37C91.1162 270.367 91.3812 270.334 91.6399 270.27C91.8933 270.206 92.1383 270.112 92.3699 269.99C92.9199 269.72 93.4199 269.43 93.8899 269.13H93.8699Z" fill="#CA9571"/>
<path d="M92.57 273.3C92.5383 273.29 92.5106 273.27 92.4909 273.243C92.4712 273.216 92.4604 273.184 92.46 273.15C92.4598 273.115 92.4702 273.082 92.4899 273.053C92.5095 273.024 92.5375 273.002 92.57 272.99L99.08 269.23C99.1646 269.18 99.2618 269.156 99.36 269.16C99.455 269.156 99.5491 269.18 99.63 269.23L100.45 269.7C100.484 269.709 100.515 269.729 100.537 269.757C100.558 269.785 100.57 269.82 100.57 269.855C100.57 269.891 100.558 269.925 100.537 269.953C100.515 269.981 100.484 270.001 100.45 270.01L93.9299 273.78C93.8459 273.821 93.7534 273.841 93.66 273.84C93.5632 273.843 93.4672 273.822 93.38 273.78L92.57 273.3Z" fill="#CA9571"/>
<path d="M107 273.48C107.032 273.493 107.059 273.516 107.078 273.544C107.098 273.572 107.109 273.606 107.11 273.64C107.11 273.7 107.07 273.75 106.99 273.79L106.28 274.21C106.196 274.251 106.103 274.271 106.01 274.27C105.913 274.273 105.817 274.252 105.73 274.21L103.92 273.21L98.3899 276.4C98.3054 276.441 98.2136 276.465 98.1199 276.47C98.023 276.465 97.928 276.441 97.8399 276.4L97.0299 275.93C96.9982 275.915 96.9706 275.893 96.9496 275.865C96.9287 275.837 96.915 275.805 96.9099 275.77C96.9148 275.737 96.9285 275.705 96.9496 275.679C96.9706 275.652 96.9984 275.632 97.0299 275.62L102.56 272.42L100.74 271.37C100.708 271.36 100.681 271.34 100.661 271.313C100.641 271.286 100.63 271.253 100.63 271.22C100.63 271.185 100.64 271.151 100.66 271.123C100.679 271.094 100.707 271.072 100.74 271.06L101.46 270.64C101.543 270.597 101.636 270.576 101.73 270.58C101.823 270.578 101.916 270.598 102 270.64L107 273.48Z" fill="#CA9571"/>
<path d="M109.84 280.69C109.934 280.649 110.037 280.632 110.14 280.64C110.227 280.644 110.313 280.668 110.39 280.71L111.21 281.18C111.243 281.192 111.273 281.213 111.294 281.242C111.316 281.27 111.328 281.305 111.33 281.34C111.33 281.4 111.29 281.45 111.21 281.49C110.892 281.65 110.556 281.771 110.21 281.85C109.786 281.943 109.353 281.983 108.92 281.97C108.427 281.956 107.937 281.885 107.46 281.76C106.914 281.616 106.392 281.394 105.91 281.1C105.524 280.894 105.184 280.612 104.91 280.27C104.707 280.032 104.59 279.733 104.58 279.42C104.577 279.11 104.683 278.81 104.88 278.57C105.124 278.261 105.418 277.994 105.75 277.78L106.58 277.28C106.89 277.1 107.18 276.95 107.45 276.81C107.885 276.587 108.345 276.416 108.82 276.3C109.297 276.179 109.788 276.122 110.28 276.13C110.779 276.129 111.277 276.193 111.76 276.32C112.266 276.445 112.752 276.643 113.2 276.91C113.63 277.136 114.014 277.441 114.33 277.81C114.535 278.046 114.664 278.339 114.7 278.65C114.721 278.917 114.647 279.183 114.49 279.4C114.325 279.633 114.118 279.833 113.88 279.99C113.797 280.044 113.698 280.069 113.6 280.06C113.506 280.058 113.413 280.034 113.33 279.99L112.51 279.52C112.481 279.504 112.455 279.483 112.435 279.457C112.414 279.431 112.399 279.402 112.39 279.37C112.39 279.31 112.39 279.25 112.47 279.19C112.578 279.111 112.666 279.008 112.73 278.89C112.765 278.766 112.765 278.634 112.73 278.51C112.685 278.353 112.603 278.208 112.49 278.09C112.319 277.909 112.119 277.758 111.9 277.64C111.647 277.493 111.374 277.382 111.09 277.31C110.825 277.246 110.553 277.216 110.28 277.22C110.013 277.218 109.748 277.252 109.49 277.32C109.241 277.386 109 277.476 108.77 277.59L107.9 278.07L107.08 278.57C106.897 278.681 106.734 278.823 106.6 278.99C106.498 279.12 106.436 279.276 106.42 279.44C106.428 279.61 106.487 279.774 106.59 279.91C106.747 280.103 106.941 280.262 107.16 280.38C107.406 280.523 107.668 280.637 107.94 280.72C108.179 280.788 108.423 280.835 108.67 280.86C108.889 280.881 109.11 280.881 109.33 280.86C109.507 280.827 109.678 280.77 109.84 280.69Z" fill="#CA9571"/>
<path d="M120.48 281.26C120.58 281.32 120.64 281.39 120.63 281.45C120.619 281.537 120.581 281.618 120.52 281.68L116.61 286.79C116.61 286.79 116.61 286.79 116.55 286.79C116.465 286.83 116.373 286.85 116.28 286.85C116.187 286.85 116.095 286.83 116.01 286.79L115.28 286.37C115.15 286.29 115.08 286.22 115.08 286.16C115.088 286.1 115.108 286.042 115.14 285.99L115.82 285.1L112.63 283.26L111.08 283.65C110.987 283.662 110.893 283.662 110.8 283.65C110.668 283.652 110.539 283.614 110.43 283.54L109.71 283.12C109.678 283.108 109.65 283.086 109.63 283.057C109.61 283.029 109.6 282.995 109.6 282.96C109.603 282.928 109.615 282.896 109.634 282.87C109.653 282.843 109.68 282.823 109.71 282.81H109.79L118.64 280.56C118.77 280.521 118.904 280.497 119.04 280.49C119.156 280.492 119.269 280.523 119.37 280.58L120.48 281.26ZM116.6 284.14L118.37 281.84L114.37 282.84L116.6 284.14Z" fill="#CA9571"/>
<path d="M127.14 285.11C127.98 285.59 128.42 286.11 128.47 286.55C128.52 286.99 128.19 287.47 127.47 287.87C126.978 288.153 126.434 288.334 125.87 288.4C125.28 288.471 124.683 288.427 124.11 288.27L123.01 290.51C122.991 290.544 122.964 290.572 122.93 290.59C122.861 290.633 122.781 290.653 122.7 290.65C122.622 290.652 122.546 290.631 122.48 290.59L121.63 290.1C121.49 290.02 121.42 289.94 121.42 289.87C121.409 289.811 121.409 289.75 121.42 289.69L122.42 287.57L121.08 286.8L118.73 288.15C118.649 288.2 118.555 288.225 118.46 288.22C118.365 288.226 118.27 288.202 118.19 288.15L117.37 287.68C117.337 287.668 117.309 287.646 117.29 287.618C117.27 287.589 117.26 287.555 117.26 287.52C117.26 287.487 117.271 287.455 117.291 287.428C117.311 287.401 117.338 287.381 117.37 287.37L124 283.6C124.084 283.561 124.177 283.541 124.27 283.541C124.363 283.541 124.455 283.561 124.54 283.6L127.14 285.11ZM122.44 286.11L123.9 286.95C124.249 287.156 124.631 287.298 125.03 287.37C125.414 287.417 125.803 287.329 126.13 287.12C126.51 286.9 126.65 286.69 126.55 286.49C126.374 286.211 126.12 285.988 125.82 285.85L124.36 285L122.44 286.11Z" fill="#CA9571"/>
<path d="M133.89 289C134.306 289.218 134.678 289.509 134.99 289.86C135.207 290.092 135.334 290.393 135.35 290.71C135.342 291.017 135.233 291.312 135.04 291.55C134.777 291.863 134.466 292.133 134.12 292.35C133.65 292.65 133.12 292.94 132.63 293.21C132.186 293.435 131.721 293.613 131.24 293.74C130.773 293.86 130.292 293.92 129.81 293.92C129.313 293.918 128.819 293.85 128.34 293.72C127.83 293.579 127.339 293.374 126.88 293.11L124.34 291.64C124.309 291.626 124.282 291.603 124.263 291.575C124.244 291.547 124.232 291.514 124.23 291.48C124.231 291.446 124.242 291.412 124.262 291.384C124.281 291.356 124.308 291.333 124.34 291.32L130.85 287.56C130.935 287.513 131.033 287.492 131.13 287.5C131.224 287.493 131.318 287.513 131.4 287.56L133.89 289ZM132.76 291.56C132.941 291.447 133.103 291.305 133.24 291.14C133.345 291.009 133.405 290.848 133.41 290.68C133.399 290.499 133.329 290.327 133.21 290.19C133.032 289.989 132.819 289.823 132.58 289.7L131.23 288.92L126.69 291.54L128.09 292.35C128.349 292.503 128.628 292.618 128.92 292.69C129.19 292.765 129.47 292.802 129.75 292.8C130.017 292.801 130.282 292.768 130.54 292.7C130.793 292.634 131.038 292.54 131.27 292.42C131.79 292.19 132.29 291.9 132.76 291.6V291.56Z" fill="#CA9571"/>
<path d="M214.749 27.0909L205.047 32.7777L205.077 3.38822L199.196 0L172.568 15.3739L172.523 51.6294L157 60.4209L191.748 82.9593L220.63 30.4791L214.749 27.0909Z" fill="#CA9571"/>
<path d="M178.449 18.7621L178.404 55.0176L162.881 63.824L191.748 82.9593L220.63 30.4791L205.032 39.6437L205.077 3.38818L178.449 18.7621Z" fill="#455A64"/>
<path d="M172.568 15.3735L178.449 18.7617L178.404 55.0173L172.523 51.629L172.568 15.3735Z" fill="#CA9571"/>
<path d="M173.8 240.4L230.18 207.85L225.48 140.03L173.8 169.87V240.4Z" fill="#CA9571"/>
<path opacity="0.6" d="M173.8 240.4L230.18 207.85L225.48 140.03L173.8 169.87V240.4Z" fill="#91542A"/>
<path d="M173.8 169.87V164.44L159.7 161.73L211.38 131.89L216.08 140.03H225.48L173.8 169.87Z" fill="#CA9571"/>
<path d="M173.8 169.87V164.44L159.7 161.73L211.38 131.89L216.08 140.03H225.48L173.8 169.87Z" fill="#A86E46" fill-opacity="0.8"/>
<path d="M211.38 131.89V148.17L216.08 145.46V140.03L211.38 131.89Z" fill="#CA9571"/>
<path opacity="0.1" d="M211.38 131.89V148.17L216.08 145.46V140.03L211.38 131.89Z" fill="#CA9571"/>
<path d="M225.48 140.03H216.08V145.46L225.48 140.03Z" fill="#CA9571"/>
<path opacity="0.2" d="M225.48 140.03H216.08V145.46L225.48 140.03Z" fill="#CA9571"/>
<path d="M159.7 161.73L155 229.55L173.8 240.4V169.87V164.44L159.7 161.73Z" fill="#CA9571"/>
<path d="M159.7 161.73L155 229.55L173.8 240.4V169.87V164.44L159.7 161.73Z" fill="#A86E46"/>
<path d="M173.8 164.44L164.4 234.97L173.8 240.4V164.44Z" fill="#CA9571"/>
<path opacity="0.8" d="M173.8 164.44L164.4 234.97L173.8 240.4V164.44Z" fill="#A86E46"/>
<path d="M173.8 240.4L165.18 229.09L155 229.55L173.8 240.4Z" fill="#CA9571"/>
<path d="M174.94 161.01C174.94 161.93 175.58 162.31 176.38 161.85C176.801 161.574 177.152 161.203 177.403 160.767C177.655 160.331 177.801 159.842 177.83 159.34C177.83 158.42 177.18 158.04 176.38 158.5C175.96 158.776 175.611 159.147 175.361 159.583C175.111 160.019 174.967 160.508 174.94 161.01Z" fill="#455A64"/>
<path d="M194.17 150.16C194.17 151.08 194.82 151.46 195.62 150.99C196.041 150.717 196.392 150.348 196.644 149.913C196.896 149.479 197.042 148.991 197.07 148.49C197.07 147.57 196.42 147.19 195.62 147.65C195.198 147.925 194.847 148.296 194.596 148.732C194.344 149.168 194.198 149.657 194.17 150.16Z" fill="#455A64"/>
<path d="M176.38 159.96C176.254 159.957 176.133 159.906 176.043 159.816C175.954 159.727 175.903 159.606 175.9 159.48V147.63C175.9 142.46 180.32 135.71 185.76 132.57C188.76 130.82 191.66 130.48 193.65 131.63C195.24 132.54 196.11 134.32 196.11 136.63V148.63C196.107 148.758 196.055 148.88 195.963 148.97C195.871 149.06 195.748 149.11 195.62 149.11C195.493 149.11 195.371 149.059 195.281 148.969C195.191 148.879 195.14 148.757 195.14 148.63V136.63C195.14 134.63 194.45 133.19 193.14 132.45C191.46 131.45 188.93 131.82 186.22 133.39C181.05 136.39 176.84 142.75 176.84 147.61V159.48C176.838 159.603 176.789 159.721 176.704 159.81C176.619 159.899 176.503 159.952 176.38 159.96Z" fill="#455A64"/>
<path d="M189.23 169.15C189.23 170.07 189.88 170.44 190.68 169.98C191.101 169.707 191.452 169.338 191.704 168.904C191.956 168.469 192.102 167.981 192.13 167.48C192.13 166.56 191.48 166.18 190.68 166.64C190.258 166.915 189.907 167.286 189.656 167.722C189.404 168.158 189.258 168.647 189.23 169.15Z" fill="#455A64"/>
<path d="M208.49 158.3C208.49 159.22 209.14 159.59 209.94 159.13C210.361 158.857 210.712 158.488 210.964 158.053C211.216 157.619 211.362 157.131 211.39 156.63C211.39 155.7 210.74 155.33 209.94 155.79C209.517 156.064 209.165 156.434 208.913 156.87C208.661 157.307 208.516 157.797 208.49 158.3Z" fill="#455A64"/>
<path d="M190.7 168.1C190.576 168.097 190.458 168.047 190.37 167.959C190.283 167.872 190.233 167.754 190.23 167.63V155.76C190.23 150.6 194.65 143.85 200.09 140.76C203.09 139.01 205.99 138.67 207.98 139.82C209.56 140.73 210.43 142.51 210.43 144.82V156.82C210.431 156.884 210.42 156.947 210.396 157.007C210.373 157.066 210.338 157.12 210.293 157.166C210.248 157.211 210.195 157.248 210.136 157.272C210.077 157.297 210.014 157.31 209.95 157.31C209.886 157.31 209.822 157.297 209.762 157.272C209.703 157.248 209.649 157.212 209.604 157.166C209.558 157.121 209.522 157.067 209.497 157.007C209.473 156.948 209.46 156.884 209.46 156.82V144.82C209.46 142.82 208.78 141.39 207.46 140.65C205.78 139.65 203.26 140.02 200.54 141.59C195.37 144.59 191.17 150.95 191.17 155.8V167.63C191.165 167.753 191.114 167.87 191.027 167.957C190.94 168.044 190.823 168.095 190.7 168.1Z" fill="#455A64"/>
</svg>
