<svg width="500" height="500" viewBox="0 0 500 500" fill="none" xmlns="http://www.w3.org/2000/svg">
<path d="M182.24 74.33C180.176 74.0567 178.088 74.6102 176.43 75.87C174.75 77.04 173.17 79.43 171.85 81V81.48V80.98C170.29 79.65 168.33 77.56 166.47 76.68C164.622 75.7101 162.466 75.5088 160.47 76.12C159.348 76.5853 158.361 77.3258 157.601 78.2731C156.841 79.2204 156.331 80.3439 156.12 81.54C155.724 83.9435 156.073 86.4107 157.12 88.61C158.546 91.7394 160.814 94.41 163.672 96.3228C166.53 98.2356 169.864 99.315 173.3 99.44C176.692 98.7703 179.828 97.1651 182.355 94.806C184.882 92.4468 186.699 89.4277 187.6 86.09C188.262 83.7464 188.199 81.2574 187.42 78.95C187.016 77.8058 186.329 76.7823 185.423 75.9746C184.518 75.1669 183.423 74.6012 182.24 74.33Z" fill="#455A64"/>
<path d="M400.86 194.82C398.799 194.547 396.714 195.101 395.06 196.36C393.37 197.53 391.79 199.92 390.47 201.49V201.97L390.42 201.47C388.86 200.14 386.9 198.05 385.05 197.17C383.199 196.208 381.047 196.008 379.05 196.61C377.928 197.075 376.941 197.816 376.181 198.763C375.421 199.71 374.911 200.834 374.7 202.03C374.308 204.434 374.657 206.899 375.7 209.1C377.132 212.249 379.418 214.934 382.3 216.848C385.181 218.763 388.542 219.83 392 219.93C395.39 219.251 398.522 217.638 401.042 215.271C403.562 212.905 405.37 209.88 406.26 206.54C406.932 204.198 406.869 201.706 406.08 199.4C405.667 198.258 404.971 197.24 404.059 196.439C403.146 195.638 402.046 195.081 400.86 194.82Z" fill="#455A64"/>
<path d="M151.29 404.42C149.229 404.148 147.145 404.702 145.49 405.96C143.81 407.13 142.23 409.52 140.9 411.09V411.57V411.07C139.33 409.74 137.38 407.64 135.52 406.77C133.672 405.8 131.516 405.599 129.52 406.21C128.396 406.672 127.407 407.412 126.647 408.36C125.886 409.308 125.378 410.433 125.17 411.63C124.774 414.034 125.123 416.501 126.17 418.7C127.596 421.83 129.864 424.5 132.722 426.413C135.58 428.326 138.914 429.405 142.35 429.53C145.741 428.854 148.874 427.241 151.395 424.874C153.915 422.507 155.722 419.482 156.61 416.14C157.281 413.795 157.222 411.301 156.44 408.99C156.035 407.857 155.351 406.844 154.45 406.045C153.55 405.247 152.463 404.688 151.29 404.42Z" fill="#455A64"/>
<path d="M116.9 172.05C114.067 171.896 111.287 172.854 109.15 174.72C106.97 176.49 105.05 179.9 103.41 182.17L103.51 182.81L103.4 182.14C101.13 180.48 98.2601 177.82 95.6501 176.81C93.0434 175.687 90.1011 175.626 87.4501 176.64C85.9674 177.383 84.6966 178.488 83.756 179.854C82.8153 181.219 82.2354 182.8 82.0701 184.45C81.7735 187.771 82.4992 191.104 84.1501 194C86.4019 198.118 89.7553 201.529 93.835 203.849C97.9147 206.17 102.56 207.309 107.25 207.14V207.2C111.799 205.942 115.905 203.435 119.104 199.965C122.303 196.494 124.466 192.197 125.35 187.56C126.032 184.3 125.704 180.909 124.41 177.84C123.746 176.322 122.709 174.995 121.397 173.983C120.084 172.971 118.538 172.306 116.9 172.05Z" fill="#455A64"/>
<path d="M125.92 356.77C123.086 356.606 120.302 357.565 118.17 359.44C115.99 361.21 114.07 364.61 112.42 366.88L112.52 367.53L112.42 366.85C110.15 365.2 107.28 362.54 104.67 361.53C102.066 360.396 99.1192 360.335 96.47 361.36C94.9873 362.102 93.7165 363.208 92.7759 364.573C91.8352 365.939 91.2553 367.52 91.09 369.17C90.7943 372.485 91.5201 375.81 93.17 378.7C95.4187 382.821 98.7712 386.235 102.851 388.558C106.932 390.88 111.578 392.02 116.27 391.85C120.818 390.593 124.924 388.089 128.123 384.62C131.322 381.15 133.486 376.855 134.37 372.22C135.048 368.96 134.72 365.57 133.43 362.5C132.758 360.993 131.718 359.678 130.406 358.677C129.094 357.676 127.551 357.02 125.92 356.77Z" fill="#A86E46"/>
<path d="M444 226.24C441.166 226.076 438.382 227.035 436.25 228.91C434.07 230.67 432.15 234.08 430.5 236.35L430.6 237L430.5 236.32C428.23 234.67 425.36 232.01 422.75 231C420.146 229.866 417.199 229.805 414.55 230.83C413.069 231.572 411.799 232.676 410.858 234.039C409.918 235.403 409.337 236.982 409.17 238.63C408.874 241.948 409.6 245.277 411.25 248.17C413.499 252.292 416.851 255.705 420.931 258.028C425.012 260.351 429.658 261.491 434.35 261.32V261.37C438.902 260.115 443.012 257.61 446.213 254.139C449.413 250.668 451.578 246.369 452.46 241.73C453.138 238.473 452.81 235.087 451.52 232.02C450.855 230.501 449.817 229.175 448.502 228.164C447.188 227.154 445.639 226.492 444 226.24Z" fill="#A86E46"/>
<path d="M317.42 252.09L197.77 250.94L161.51 250.77H151.65H149.08C148.789 250.765 148.498 250.782 148.21 250.82C148.498 250.866 148.789 250.886 149.08 250.88L151.65 250.94L161.5 251.06L197.76 251.26L317.42 251.34C364.12 251.34 406.42 251.39 437.03 251.62C452.33 251.73 464.72 251.87 473.28 252.04C477.57 252.12 480.89 252.21 483.14 252.3C484.293 252.268 485.445 252.355 486.58 252.56C485.443 252.74 484.291 252.814 483.14 252.78C480.89 252.85 477.56 252.9 473.28 252.94C464.72 253.01 452.33 253.03 437.02 252.94C406.4 253 364.12 252.58 317.42 252.09Z" fill="#C88368"/>
<path d="M316.49 262.63L198.49 242.89L162.7 237.09L152.95 235.58L150.41 235.22C149.843 235.154 149.553 235.124 149.54 235.13C149.82 235.223 150.108 235.29 150.4 235.33L152.92 235.79L162.64 237.45L198.43 243.28L316.6 261.94C362.73 269.18 404.5 275.81 434.71 280.79C449.82 283.28 462.03 285.35 470.46 286.85C474.68 287.59 477.95 288.2 480.16 288.64C481.3 288.793 482.422 289.058 483.51 289.43C482.359 289.437 481.211 289.333 480.08 289.12C477.84 288.84 474.55 288.37 470.32 287.75C461.85 286.49 449.6 284.59 434.49 282.16C404.26 277.32 362.54 270.38 316.49 262.63Z" fill="#C88368"/>
<path d="M313.91 272.9L200.48 234.82L166.05 223.45L156.66 220.45L154.21 219.69C153.936 219.595 153.655 219.521 153.37 219.47C153.629 219.605 153.9 219.715 154.18 219.8L156.6 220.65L165.93 223.82L200.36 235.21L314.14 272.21C358.56 286.63 398.76 299.75 427.81 309.42C442.33 314.26 454.07 318.23 462.16 321.03C466.16 322.44 469.34 323.55 471.45 324.33C472.557 324.657 473.626 325.099 474.64 325.65C473.501 325.477 472.383 325.192 471.3 324.8C469.13 324.17 465.95 323.19 461.87 321.91C453.7 319.34 441.87 315.53 427.37 310.75C398.28 301.23 358.17 287.8 313.91 272.9Z" fill="#C88368"/>
<path d="M309.76 282.63L203.76 227.17L171.55 210.53L162.75 206.07L160.45 204.93C160.195 204.788 159.927 204.67 159.65 204.58C159.886 204.752 160.137 204.903 160.4 205.03L162.66 206.25L171.38 210.85L203.58 227.52L310.08 282C351.68 303.24 389.32 322.52 416.48 336.65C430.06 343.71 441.03 349.47 448.58 353.52C452.35 355.52 455.27 357.13 457.24 358.23C458.277 358.731 459.262 359.334 460.18 360.03C459.084 359.671 458.023 359.213 457.01 358.66C455.01 357.66 452.01 356.23 448.16 354.32C440.5 350.49 429.46 344.88 415.85 337.87C388.62 323.87 351.13 304.3 309.76 282.63Z" fill="#C88368"/>
<path d="M304.13 291.58L208.07 220.24L178.86 198.76L170.86 192.98L168.77 191.5C168.525 191.316 168.268 191.149 168 191C168.206 191.209 168.43 191.4 168.67 191.57L170.67 193.12L178.56 199.03C185.49 204.12 195.45 211.46 207.77 220.53L304.55 291C342.32 318.48 376.48 343.41 401.1 361.61C413.41 370.7 423.34 378.11 430.16 383.28C433.58 385.87 436.16 387.9 437.98 389.28C438.926 389.941 439.807 390.691 440.61 391.52C439.578 391.005 438.6 390.388 437.69 389.68C435.83 388.41 433.11 386.49 429.63 384C422.63 379 412.63 371.75 400.28 362.71C375.58 344.64 341.6 319.45 304.13 291.58Z" fill="#C88368"/>
<path d="M297.18 299.55L213.38 214.13L187.86 188.37L180.86 181.37C180.06 180.6 179.45 180.01 179.02 179.58C178.823 179.362 178.602 179.167 178.36 179C178.542 179.23 178.735 179.45 178.94 179.66L180.71 181.51L187.59 188.57L213.09 214.35L297.66 299C330.66 332 360.56 362 382.05 383.76C392.8 394.66 401.45 403.53 407.39 409.7C410.39 412.78 412.65 415.19 414.18 416.85C415.009 417.649 415.759 418.527 416.42 419.47C415.487 418.793 414.62 418.029 413.83 417.19C412.19 415.65 409.83 413.33 406.75 410.33C400.64 404.33 391.86 395.59 381.07 384.73C359.5 363.07 329.86 332.91 297.18 299.55Z" fill="#C88368"/>
<path d="M289.07 306.34L219.58 208.92L198.38 179.51L192.56 171.51L191 169.5C190.833 169.261 190.649 169.034 190.45 168.82C190.575 169.084 190.729 169.332 190.91 169.56C191.26 170.07 191.74 170.77 192.37 171.67L198.07 179.72L219.25 209.15L289.63 305.92C317.12 343.67 341.97 377.92 359.8 402.78C368.72 415.22 375.9 425.32 380.8 432.34C383.26 435.85 385.14 438.59 386.4 440.46C387.095 441.377 387.701 442.358 388.21 443.39C387.389 442.584 386.649 441.7 386 440.75C384.62 438.96 382.62 436.31 380.07 432.87C375 426 367.68 416 358.7 403.59C340.75 378.78 316.17 344.37 289.07 306.34Z" fill="#C88368"/>
<path d="M280 311.78C259.15 269.96 240.28 232.12 226.6 204.7C219.71 191.05 214.13 180 210.25 172.33C208.31 168.54 206.79 165.6 205.74 163.56L204.55 161.29C204.423 161.027 204.272 160.776 204.1 160.54C204.196 160.815 204.313 161.083 204.45 161.34L205.56 163.65C206.56 165.71 208.04 168.65 209.93 172.49L226.25 204.87C240.18 232.17 259.39 269.87 280.63 311.46C301.87 353.05 321.08 390.73 334.8 418.09C341.67 431.77 347.17 442.87 350.92 450.57C352.79 454.42 354.23 457.42 355.17 459.47C355.718 460.483 356.164 461.548 356.5 462.65C355.818 461.707 355.226 460.703 354.73 459.65C353.65 457.65 352.09 454.74 350.11 450.94C346.11 443.36 340.49 432.33 333.56 418.68C319.72 391.41 300.82 353.58 280 311.78Z" fill="#C88368"/>
<path d="M270.2 315.73C256.2 271.15 243.51 230.82 234.31 201.58C229.66 187.02 225.88 175.23 223.31 167.04C221.98 163.04 220.95 159.85 220.23 157.68C219.88 156.63 219.6 155.83 219.4 155.25C219.313 154.971 219.209 154.697 219.09 154.43C219.131 154.72 219.202 155.005 219.3 155.28C219.47 155.87 219.72 156.68 220.03 157.74C220.71 159.92 221.69 163.09 222.96 167.15L233.96 201.7L270.89 315.51C285.34 359.92 298.37 400.16 307.62 429.34C312.25 443.93 315.94 455.76 318.42 463.95C319.67 468.05 320.61 471.24 321.22 473.41C321.609 474.495 321.88 475.618 322.03 476.76C321.502 475.737 321.074 474.665 320.75 473.56C319.99 471.44 318.91 468.29 317.55 464.23C314.83 456.11 310.98 444.34 306.29 429.77C296.89 400.62 284.17 360.29 270.2 315.73Z" fill="#C88368"/>
<path d="M259.89 318.09C253.06 271.86 246.89 230.03 242.41 199.71C240.1 184.6 238.23 172.36 236.93 163.87C236.26 159.66 235.73 156.39 235.37 154.13C235.18 153.05 235.04 152.21 234.94 151.61C234.899 151.319 234.836 151.031 234.75 150.75C234.752 151.042 234.779 151.333 234.83 151.62C234.91 152.23 235.02 153.07 235.17 154.16C235.49 156.43 235.97 159.71 236.58 163.92C237.87 172.42 239.73 184.66 242.02 199.77C246.78 230.05 253.34 271.77 260.59 317.98C267.84 364.19 274.4 405.89 278.94 436.17C281.22 451.31 283 463.57 284.17 472.05C284.75 476.29 285.17 479.59 285.45 481.83C285.654 482.965 285.745 484.117 285.72 485.27C285.365 484.172 285.111 483.044 284.96 481.9C284.54 479.69 283.96 476.41 283.27 472.19C281.86 463.74 279.91 451.51 277.57 436.38C272.89 406.12 266.68 364.29 259.89 318.09Z" fill="#C88368"/>
<path d="M249.34 318.8C249.76 272.08 250.14 229.8 250.41 199.15C250.48 183.86 250.53 171.49 250.57 162.89C250.57 158.63 250.57 155.32 250.57 153.03C250.57 151.93 250.57 151.08 250.57 150.47C250.582 150.176 250.565 149.881 250.52 149.59C250.505 149.883 250.505 150.177 250.52 150.47C250.52 151.08 250.52 151.93 250.46 153.03C250.46 155.32 250.39 158.63 250.34 162.89C250.34 171.48 250.24 183.89 250.17 199.15C250.17 229.8 250.17 272.08 250.17 318.81C250.17 365.54 250.17 407.81 249.96 438.41C249.86 453.72 249.72 466.11 249.57 474.67C249.49 478.95 249.4 482.28 249.31 484.53C249.334 485.682 249.25 486.833 249.06 487.97C248.872 486.833 248.795 485.681 248.83 484.53C248.76 482.27 248.71 478.95 248.67 474.67C248.59 466.1 248.56 453.67 248.6 438.41C248.54 407.79 248.88 365.5 249.34 318.8Z" fill="#C88368"/>
<path d="M238.79 317.88C246.47 271.79 253.42 230.08 258.46 199.88C260.9 184.79 262.87 172.57 264.24 164.08C264.89 159.87 265.39 156.6 265.74 154.34C265.9 153.25 266.02 152.4 266.1 151.8C266.157 151.514 266.187 151.222 266.19 150.93C266.096 151.206 266.029 151.491 265.99 151.78C265.89 152.38 265.73 153.22 265.54 154.31C265.15 156.56 264.6 159.83 263.88 164.02C262.51 172.51 260.52 184.73 258.08 199.82C253.31 230.09 246.75 271.82 239.49 318.02C232.23 364.22 225.67 405.93 220.71 436.14C218.23 451.25 216.17 463.47 214.71 471.9C213.96 476.12 213.36 479.39 212.93 481.6C212.777 482.741 212.509 483.863 212.13 484.95C212.13 483.8 212.233 482.652 212.44 481.52C212.72 479.28 213.19 475.99 213.81 471.75C215.06 463.28 216.95 451.04 219.37 435.92C224.16 405.66 231.08 363.94 238.79 317.88Z" fill="#C88368"/>
<path d="M228.52 315.31C243.37 271.01 256.8 230.92 266.52 201.86C271.3 187.33 275.18 175.58 277.87 167.42L280.87 158.03C281.19 156.97 281.44 156.16 281.62 155.58C281.716 155.302 281.793 155.018 281.85 154.73C281.718 154.99 281.607 155.261 281.52 155.54C281.32 156.12 281.04 156.92 280.67 157.96C279.93 160.13 278.87 163.27 277.51 167.3L266.13 201.73C256.66 230.88 243.6 271.1 229.13 315.54C214.66 359.98 201.64 400.18 191.98 429.23C187.16 443.76 183.2 455.49 180.4 463.59C179 467.59 177.89 470.77 177.11 472.88C176.783 473.987 176.341 475.056 175.79 476.07C175.962 474.932 176.243 473.814 176.63 472.73C177.27 470.56 178.24 467.38 179.52 463.3C182.09 455.13 185.89 443.3 190.65 428.79C200.25 399.69 213.65 359.58 228.52 315.31Z" fill="#C88368"/>
<path d="M218.8 311.17C240.43 269.75 260 232.27 274.18 205.1L290.81 172.87L295.26 164.08L296.4 161.78C296.542 161.525 296.66 161.257 296.75 160.98C296.575 161.214 296.424 161.465 296.3 161.73L295.08 164C294.01 166 292.47 168.95 290.49 172.72C286.54 180.35 280.86 191.35 273.84 204.93L219.42 311.49C198.21 353.1 179 390.75 164.84 417.92C157.79 431.5 152 442.47 148 450C146 453.77 144.39 456.69 143.29 458.66C142.792 459.699 142.189 460.684 141.49 461.6C141.846 460.508 142.302 459.45 142.85 458.44C143.85 456.44 145.28 453.44 147.19 449.58C151.01 441.92 156.62 430.87 163.62 417.25C177.61 390.05 197.15 352.55 218.8 311.17Z" fill="#C88368"/>
<path d="M209.84 305.54C237.68 268.02 262.84 234.06 281.12 209.44C290.17 197.11 297.5 187.14 302.58 180.21L308.36 172.21L309.84 170.11C310.022 169.883 310.179 169.639 310.31 169.38C310.11 169.592 309.923 169.815 309.75 170.05L308.19 172.05L302.29 179.95L280.81 209.16L210.41 306C182.96 343.78 158.05 378 139.86 402.59C130.78 414.91 123.37 424.84 118.21 431.67C115.62 435.08 113.6 437.72 112.21 439.49C111.546 440.431 110.8 441.311 109.98 442.12C110.492 441.088 111.105 440.11 111.81 439.2C113.09 437.34 115 434.62 117.48 431.13C122.48 424.13 129.72 414.13 138.76 401.77C156.82 377 182 343 209.84 305.54Z" fill="#C88368"/>
<path d="M201.87 298.6L287.23 214.75C298.09 204 306.87 195.26 313 189.21L319.95 182.21C320.71 181.41 321.31 180.8 321.73 180.37C321.948 180.173 322.143 179.952 322.31 179.71C322.082 179.891 321.865 180.084 321.66 180.29L319.8 182.06L312.8 188.95L287 214.48L202.37 299.1C169.37 332.1 139.45 362.03 117.66 383.54C106.76 394.29 97.9 403 91.74 408.89C88.65 411.89 86.24 414.16 84.59 415.69C83.8002 416.518 82.9329 417.268 82 417.93C82.6752 416.998 83.4351 416.131 84.27 415.34C85.82 413.7 88.13 411.34 91.13 408.25C97.13 402.14 105.87 393.36 116.72 382.56C138.38 361 168.53 331.3 201.87 298.6Z" fill="#C88368"/>
<path d="M195.08 290.49L292.44 220.94L321.85 199.72L329.8 193.89L331.85 192.35C332.091 192.189 332.315 192.005 332.52 191.8C332.261 191.931 332.016 192.089 331.79 192.27C331.28 192.61 330.58 193.1 329.68 193.73L321.68 199.43L292.26 220.63L195.53 291.07C157.8 318.59 123.59 343.45 98.72 361.3C86.28 370.23 76.19 377.41 69.17 382.3C65.66 384.76 62.92 386.64 61.05 387.9C60.1362 388.6 59.1547 389.206 58.12 389.71C58.9262 388.89 59.8103 388.15 60.76 387.5C62.55 386.12 65.2 384.12 68.64 381.57C75.51 376.46 85.51 369.14 97.91 360.16C122.66 342.22 157.05 317.61 195.08 290.49Z" fill="#C88368"/>
<path d="M189.63 281.43L296.63 227.96L329 211.6L337.77 207.08L340.03 205.88C340.297 205.759 340.552 205.611 340.79 205.44C340.512 205.537 340.241 205.654 339.98 205.79L337.67 206.9L328.84 211.28L296.5 227.62L190 282.06C148.43 303.34 110.75 322.56 83.4001 336.3C69.7201 343.18 58.62 348.69 50.93 352.44C47 354.32 44 355.75 42 356.7C40.9795 357.239 39.9075 357.675 38.8 358C39.7398 357.313 40.7446 356.72 41.8 356.23C43.8 355.14 46.71 353.58 50.51 351.6C58.09 347.6 69.1101 341.97 82.7601 335.03C110 321.2 147.83 302.27 189.63 281.43Z" fill="#C88368"/>
<path d="M185.67 271.63L299.8 235.63L334.33 224.56L343.69 221.48L346.12 220.65C346.398 220.565 346.669 220.458 346.93 220.33C346.644 220.373 346.363 220.444 346.09 220.54L343.63 221.28L334.22 224.21L299.68 235.21L185.89 272.21C141.49 286.69 101.26 299.74 72.08 309C57.49 313.64 45.67 317.34 37.48 319.83C33.38 321.08 30.19 322.03 28.02 322.64C26.9319 323.017 25.81 323.288 24.67 323.45C25.6946 322.925 26.7659 322.496 27.87 322.17C29.99 321.41 33.14 320.33 37.2 318.96C45.31 316.23 57.09 312.38 71.66 307.68C100.79 298.37 141.12 285.63 185.67 271.63Z" fill="#C88368"/>
<path d="M183.31 261.32L301.67 243.76L337.51 238.26L347.24 236.7L349.77 236.26C350.061 236.22 350.349 236.156 350.63 236.07C350.335 236.079 350.041 236.105 349.75 236.15L347.21 236.49L337.46 237.91L301.61 243.38L183.41 262C137.29 269.31 95.51 275.86 65.24 280.42C50.1 282.71 37.84 284.5 29.36 285.67C25.12 286.26 21.82 286.67 19.58 286.96C18.4452 287.165 17.2928 287.255 16.14 287.23C17.2349 286.876 18.3594 286.622 19.5 286.47C21.72 286.05 25 285.47 29.22 284.77C37.66 283.36 49.9 281.4 65.03 279.05C95.28 274.37 137.11 268.13 183.31 261.32Z" fill="#C88368"/>
<path d="M182.58 250.77L302.24 251.77L338.5 251.9H348.35H350.92C351.211 251.899 351.501 251.882 351.79 251.85C351.502 251.804 351.211 251.784 350.92 251.79L348.36 251.73L338.5 251.62L302.24 251.47L182.58 251.54C135.88 251.6 93.58 251.59 62.97 251.41C47.67 251.32 35.28 251.18 26.72 251.03C22.43 250.95 19.11 250.87 16.86 250.79C15.7078 250.809 14.5564 250.722 13.42 250.53C14.5572 250.348 15.7088 250.271 16.86 250.3C19.11 250.23 22.44 250.18 26.72 250.13C35.28 250.05 47.72 250.01 62.98 250.04C93.6 250 135.88 250.34 182.58 250.77Z" fill="#C88368"/>
<path d="M183.5 240.22L301.5 259.81L337.3 265.57L347.05 267.06L349.59 267.42C349.877 267.477 350.168 267.507 350.46 267.51C350.179 267.424 349.891 267.361 349.6 267.32L347.08 266.86L337.36 265.21L301.56 259.43L183.39 240.92C137.24 233.73 95.4701 227.15 65.2501 222.21C50.1501 219.74 37.9301 217.69 29.4901 216.21C25.2801 215.47 22.0101 214.87 19.7901 214.44C18.6517 214.279 17.5304 214.014 16.4401 213.65C17.5905 213.635 18.7396 213.736 19.8701 213.95C22.1101 214.23 25.4001 214.69 29.6401 215.31C38.1101 216.56 50.3601 218.45 65.4701 220.85C95.7101 225.65 137.44 232.54 183.5 240.22Z" fill="#C88368"/>
<path d="M186.06 230L299.54 267.94L334 279.22L343.39 282.22L345.84 282.98C346.116 283.078 346.401 283.152 346.69 283.2C346.427 283.067 346.152 282.957 345.87 282.87L343.45 282.02L334.11 278.87L299.68 267.51L185.84 230.63C141.4 216.26 101.18 203.19 72.12 193.55C57.59 188.74 45.85 184.78 37.76 181.99C33.76 180.59 30.57 179.48 28.46 178.7C27.3569 178.367 26.2886 177.929 25.27 177.39C26.4078 177.562 27.5263 177.843 28.61 178.23C30.78 178.86 33.96 179.83 38.04 181.11C46.21 183.67 58.04 187.47 72.56 192.22C101.66 201.73 141.78 215.11 186.06 230Z" fill="#C88368"/>
<path d="M190.2 220.22L296.3 275.54L328.54 292.14L337.34 296.59C338.34 297.08 339.09 297.46 339.64 297.72C339.899 297.857 340.166 297.977 340.44 298.08C340.204 297.908 339.953 297.758 339.69 297.63L337.43 296.41L328.7 291.82L296.48 275.19L189.88 220.84C148.26 199.66 110.6 180.42 83.42 166.33C69.82 159.33 58.85 153.54 51.3 149.51C47.52 147.51 44.6 145.91 42.63 144.8C41.5754 144.3 40.5708 143.701 39.63 143.01C40.7276 143.362 41.789 143.817 42.8 144.37C44.8 145.37 47.8 146.8 51.66 148.7C59.33 152.52 70.38 158.12 84 165.11C111.29 179.08 148.81 198.6 190.2 220.22Z" fill="#C88368"/>
<path d="M195.82 211.26L292 282.48L321.24 303.92L329.24 309.69L331.34 311.17C331.569 311.354 331.817 311.511 332.08 311.64C331.866 311.439 331.639 311.252 331.4 311.08L329.4 309.53L321.49 303.63L292.26 282.17L195.4 211.83C157.6 184.4 123.4 159.51 98.7701 141.35C86.4401 132.26 76.5001 124.87 69.6701 119.7C66.2601 117.12 63.6201 115.1 61.8501 113.7C60.9006 113.047 60.0194 112.3 59.2201 111.47C60.2486 111.991 61.2262 112.607 62.1401 113.31C64.0001 114.58 66.7201 116.49 70.2101 118.97C77.2101 123.97 87.2101 131.2 99.5801 140.23C124.31 158.29 158.31 183.43 195.82 211.26Z" fill="#C88368"/>
<path d="M202.76 203.28L286.66 288.59L312.22 314.32L319.22 321.27L321.06 323.05C321.257 323.268 321.478 323.463 321.72 323.63C321.543 323.399 321.35 323.182 321.14 322.98L319.37 321.12C317.77 319.49 315.45 317.12 312.48 314.07L286.94 288.33C265.26 266.67 235.33 236.8 202.27 203.78C169.21 170.76 139.27 140.9 117.78 119.12C107 108.24 98.3401 99.3902 92.3901 93.2202C89.3901 90.1402 87.1301 87.7302 85.5901 86.0802C84.7629 85.2827 84.0129 84.4088 83.3501 83.4702C84.2835 84.1392 85.1508 84.896 85.9401 85.7302C87.5801 87.2802 89.9401 89.5902 93.0301 92.5802C99.1501 98.5802 107.94 107.31 118.74 118.15C140.36 139.84 170 170 202.76 203.28Z" fill="#C88368"/>
<path d="M210.86 196.49L280.47 293.81L301.71 323.2L307.54 331.15C308.21 332.03 308.72 332.71 309.08 333.2C309.249 333.438 309.436 333.662 309.64 333.87C309.503 333.612 309.346 333.364 309.17 333.13L307.71 331.03C306.39 329.16 304.47 326.46 302 323.03L280.78 293.62C262.72 268.86 237.78 234.69 210.29 196.94C182.8 159.19 157.86 125 140 100.13C131.06 87.7003 123.87 77.6103 119 70.6003C116.54 67.0903 114.65 64.3603 113.4 62.4803C112.7 61.5646 112.091 60.5834 111.58 59.5503C112.402 60.3589 113.142 61.2465 113.79 62.2003C115.18 63.9803 117.18 66.6303 119.79 70.0703C124.9 76.9403 132.22 86.9303 141.21 99.3203C159.09 124.1 183.72 158.48 210.86 196.49Z" fill="#C88368"/>
<path d="M219.92 191L273.45 298C280.36 311.63 285.95 322.68 289.84 330.34C291.84 334.13 293.31 337.07 294.36 339.1L295.56 341.37C295.689 341.63 295.836 341.881 296 342.12C295.909 341.845 295.795 341.577 295.66 341.32C295.39 340.77 295.02 340.01 294.54 339.01C293.54 336.96 292.05 334.01 290.16 330.18L273.8 297.87C259.8 270.59 240.57 232.95 219.29 191.35C198.01 149.75 178.74 112.13 165 84.7903C158.11 71.1103 152.6 60.0203 148.84 52.3303C146.96 48.4803 145.52 45.4803 144.57 43.4303C144.034 42.4147 143.589 41.354 143.24 40.2603C143.934 41.1952 144.527 42.2008 145.01 43.2603C146.1 45.2603 147.66 48.1703 149.65 51.9603C153.65 59.5503 159.3 70.5703 166.24 84.2103C180.1 111.45 199.05 149.25 219.92 191Z" fill="#C88368"/>
<path d="M229.72 187.07L265.72 301.17L276.81 335.69C278.15 339.74 279.18 342.89 279.9 345.06C280.26 346.06 280.53 346.91 280.73 347.48C280.811 347.763 280.918 348.037 281.05 348.3C281 348.011 280.927 347.727 280.83 347.45C280.66 346.87 280.42 346.05 280.1 344.99L277.16 335.58C274.54 327.4 270.76 315.58 266.1 301.05L229.05 187.29C214.54 142.9 201.47 102.68 192.18 73.5001C187.53 58.9201 183.83 47.0901 181.33 38.9001C180.08 34.8101 179.13 31.6201 178.52 29.4501C178.138 28.3628 177.864 27.2408 177.7 26.1001C178.23 27.1249 178.665 28.1961 179 29.3001C179.76 31.4201 180.84 34.5701 182.21 38.6201C184.94 46.7401 188.81 58.5101 193.51 73.0801C202.92 102.21 215.69 142.53 229.72 187.07Z" fill="#C88368"/>
<path d="M240 184.7C246.88 230.91 253.11 272.7 257.63 303.05C259.96 318.16 261.84 330.39 263.15 338.89C263.83 343.09 264.36 346.36 264.72 348.62C264.91 349.71 265.06 350.55 265.16 351.15C265.201 351.438 265.265 351.722 265.35 352C265.348 351.709 265.321 351.418 265.27 351.13C265.19 350.53 265.07 349.68 264.93 348.59C264.6 346.32 264.12 343.05 263.51 338.83C262.2 330.34 260.33 318.1 258.01 302.99C253.22 272.72 246.61 230.99 239.3 184.81C231.99 138.63 225.38 96.9103 220.8 66.6403C218.5 51.5003 216.7 39.2503 215.52 30.7603C214.93 26.5203 214.52 23.2303 214.23 20.9903C214.033 19.8544 213.94 18.703 213.95 17.5503C214.317 18.642 214.575 19.7676 214.72 20.9103C215.14 23.1303 215.72 26.4003 216.42 30.6303C217.85 39.0703 219.81 51.3003 222.17 66.4303C226.91 96.6803 233.18 138.5 240 184.7Z" fill="#C88368"/>
<path d="M250.58 184C250.22 230.72 249.89 273 249.65 303.65C249.65 318.94 249.57 331.32 249.54 339.91C249.54 344.17 249.54 347.48 249.54 349.77C249.54 350.87 249.54 351.72 249.54 352.33C249.525 352.623 249.525 352.917 249.54 353.21C249.586 352.919 249.606 352.625 249.6 352.33C249.6 351.73 249.6 350.87 249.65 349.77C249.65 347.48 249.71 344.17 249.76 339.91C249.76 331.32 249.83 318.91 249.89 303.65C249.89 273 249.8 230.72 249.74 184C249.68 137.28 249.63 95.0001 249.8 64.3901C249.88 49.0801 250 36.6901 250.15 28.1301C250.23 23.8501 250.31 20.5301 250.39 18.2701C250.366 17.1177 250.453 15.9657 250.65 14.8301C250.831 15.9674 250.908 17.1188 250.88 18.2701C250.95 20.5301 251 23.8501 251.05 28.1301C251.14 36.7001 251.19 49.1301 251.17 64.3901C251.27 95.0001 251 137.27 250.58 184Z" fill="#C88368"/>
<path d="M261.12 184.88C253.5 230.98 246.61 272.69 241.61 302.93L235.87 338.74C235.23 342.95 234.73 346.22 234.38 348.48C234.23 349.58 234.11 350.42 234.03 351.02C233.974 351.307 233.944 351.598 233.94 351.89C234.035 351.615 234.099 351.33 234.13 351.04C234.24 350.44 234.39 349.6 234.59 348.52C234.97 346.26 235.52 342.99 236.23 338.8C237.6 330.31 239.56 318.09 241.99 303C246.71 272.71 253.23 230.93 260.43 184.77C267.63 138.61 274.13 96.8403 279.06 66.6203C281.51 51.5103 283.56 39.2903 285.06 30.8603C285.8 26.6403 286.4 23.3703 286.83 21.1603C286.978 20.0163 287.243 18.8904 287.62 17.8003C287.628 18.9505 287.528 20.099 287.32 21.2303C287.04 23.4703 286.58 26.7703 285.96 31.0003C284.72 39.4803 282.84 51.7203 280.44 66.8403C275.64 97.0803 268.77 138.81 261.12 184.88Z" fill="#C88368"/>
<path d="M271.39 187.43L233.53 300.94C228.76 315.46 224.9 327.23 222.23 335.39L219.23 344.78C218.91 345.84 218.66 346.65 218.48 347.23C218.385 347.507 218.311 347.791 218.26 348.08C218.395 347.821 218.505 347.549 218.59 347.27L219.43 344.85C220.17 342.68 221.22 339.54 222.58 335.51C225.27 327.34 229.14 315.58 233.91 301.06L270.73 187.21C285.06 142.76 298.11 102.53 307.73 73.4699C312.54 58.9399 316.48 47.1899 319.27 39.0999C320.67 35.0499 321.77 31.9099 322.55 29.7899C322.884 28.6903 323.322 27.6254 323.86 26.6099C323.682 27.7647 323.394 28.8999 323 29.9999C322.37 32.1699 321.4 35.3499 320.13 39.4299C317.57 47.6099 313.79 59.4299 309.04 73.9599C299.56 103 286.21 143.14 271.39 187.43Z" fill="#C88368"/>
<path d="M281.13 191.57C259.55 233 240 270.52 225.88 297.7C218.88 311.3 213.22 322.31 209.29 329.95L204.85 338.75L203.72 341.05C203.578 341.305 203.46 341.573 203.37 341.85C203.54 341.613 203.691 341.362 203.82 341.1C204.11 340.57 204.51 339.82 205.03 338.84C206.1 336.84 207.64 333.84 209.61 330.11L226.22 297.88C240.13 270.57 259.31 232.88 280.5 191.24C301.69 149.6 320.87 111.94 335 84.75C342 71.15 347.77 60.17 351.8 52.62C353.8 48.84 355.4 45.91 356.5 43.94C356.985 42.9067 357.567 41.9222 358.24 41C357.889 42.0976 357.433 43.159 356.88 44.17C355.88 46.17 354.46 49.17 352.56 53.03C348.75 60.7 343.15 71.75 336.17 85.38C322.22 112.63 302.72 150.16 281.13 191.57Z" fill="#C88368"/>
<path d="M290.09 197.18L218.93 293.37L197.51 322.63L191.74 330.63L190.27 332.72C190.094 332.956 189.934 333.203 189.79 333.46C189.997 333.255 190.185 333.031 190.35 332.79L191.91 330.79L197.8 322.88L219.24 293.64L289.52 196.8C316.92 158.98 341.79 124.8 359.94 100.12C369 87.7503 376.41 77.8103 381.57 71.0003C384.15 67.5903 386.17 65.0003 387.57 63.1703C388.225 62.2251 388.972 61.3474 389.8 60.5503C389.294 61.5661 388.692 62.5306 388 63.4303C386.73 65.3003 384.82 68.0203 382.34 71.5103C377.34 78.5103 370.12 88.5103 361.1 100.9C343 125.63 317.9 159.65 290.09 197.18Z" fill="#C88368"/>
<path d="M298.07 204.11L212.81 288.11L187.1 313.64L180.16 320.64C179.4 321.44 178.8 322.05 178.38 322.49C178.164 322.685 177.97 322.903 177.8 323.14C178.031 322.963 178.248 322.77 178.45 322.56L180.31 320.79L187.31 313.89L213.04 288.34L297.53 203.61C330.53 170.52 360.37 140.61 382.14 119.07C393.02 108.3 401.86 99.6201 408.02 93.6801C411.1 90.6801 413.51 88.4101 415.16 86.8701C415.96 86.0422 416.833 85.2891 417.77 84.6201C417.103 85.5583 416.346 86.4291 415.51 87.2201C413.96 88.8601 411.66 91.2201 408.66 94.3201C402.66 100.44 393.94 109.23 383.11 120.04C361.48 141.67 331.37 171.37 298.07 204.11Z" fill="#C88368"/>
<path d="M304.88 212.21L207.6 281.88L178.22 303.14L170.28 309L168.23 310.54C167.986 310.704 167.758 310.892 167.55 311.1C167.806 310.959 168.053 310.802 168.29 310.63L170.4 309.17L178.4 303.45L207.79 282.21L304.43 211.66C342.13 184.09 376.3 159.18 401.15 141.3C413.58 132.35 423.66 125.16 430.67 120.24C434.18 117.78 436.91 115.89 438.79 114.63C439.704 113.931 440.685 113.324 441.72 112.82C440.913 113.624 440.037 114.353 439.1 115C437.32 116.38 434.67 118.39 431.24 120.95C424.37 126.06 414.38 133.39 401.99 142.38C377.22 160.39 342.86 185 304.88 212.21Z" fill="#C88368"/>
<path d="M310.33 221.26L203.33 274.87L171 291.27L162.24 295.8L160 297C159.733 297.126 159.479 297.277 159.24 297.45C159.518 297.353 159.789 297.236 160.05 297.1L162.35 295.99L171.18 291.6L203.53 275.22L310 220.63C351.55 199.3 389.2 180.04 416.54 166.26C430.2 159.36 441.29 153.84 448.99 150.08C452.83 148.2 455.83 146.76 457.87 145.81C458.885 145.263 459.95 144.814 461.05 144.47C460.128 145.16 459.14 145.756 458.1 146.25C456.1 147.33 453.19 148.9 449.4 150.89C441.82 154.89 430.8 160.54 417.16 167.49C389.9 181.4 352.1 200.37 310.33 221.26Z" fill="#C88368"/>
<path d="M314.3 231.06L200.22 267.17L165.71 278.28L156.35 281.38L153.92 282.21C153.64 282.289 153.369 282.397 153.11 282.53C153.399 282.479 153.683 282.405 153.96 282.31L156.41 281.58L165.82 278.63L200.35 267.54L314.09 230.39C358.47 215.86 398.68 202.76 427.85 193.45C442.43 188.79 454.25 185.08 462.44 182.58C466.53 181.32 469.72 180.37 471.89 179.76C472.977 179.378 474.099 179.104 475.24 178.94C474.215 179.466 473.144 179.898 472.04 180.23C469.92 180.99 466.77 182.08 462.72 183.45C454.6 186.19 442.84 190.06 428.27 194.77C399.15 204.21 358.84 217 314.3 231.06Z" fill="#C88368"/>
<path d="M316.68 241.37L198.34 259.08L162.51 264.62L152.78 266.2L150.25 266.64C149.962 266.678 149.677 266.742 149.4 266.83C149.692 266.828 149.983 266.801 150.27 266.75L152.81 266.41L162.56 264.98L198.4 259.46L316.57 240.67C362.69 233.3 404.46 226.67 434.73 222.09C449.86 219.79 462.12 217.98 470.6 216.8C474.84 216.2 478.14 215.8 480.38 215.5C481.511 215.291 482.66 215.197 483.81 215.22C482.717 215.583 481.592 215.841 480.45 215.99C478.24 216.41 474.96 216.99 470.74 217.7C462.3 219.12 450.06 221.1 434.94 223.46C404.69 228.2 362.87 234.49 316.68 241.37Z" fill="#C88368"/>
<path d="M296.94 130.48C295.08 124.89 290.46 120.55 285.23 117.85C282.23 116.31 278.43 114.33 278.71 110.98C278.94 108.26 280.64 105.98 281.56 103.46C282.36 101.21 280.17 98.68 278.79 97.55C273.71 93.4 264.44 100.47 263.6 93.98C262.76 87.49 271.15 83.11 270.15 64.98C270.121 62.3729 269.612 59.7933 268.65 57.37C266.72 52.68 262.56 48.74 257.56 47.97C253.31 47.31 248.96 48.97 245.5 51.49C242.04 54.01 238.84 59.11 236.16 62.49L236.26 63.49L236.15 62.49C232.8 59.79 228.6 55.49 224.67 53.77C220.74 52.05 216.15 51.36 212.14 52.91C207.42 54.74 204.2 59.48 203.32 64.47C202.44 69.46 203.66 74.63 205.81 79.22C206.454 80.5761 207.186 81.8889 208 83.15C209.721 85.8281 211.774 88.2776 214.11 90.44C225 101.63 242 112 255.48 112.31C258.18 112.38 261.48 112.61 262.62 115.08C263.62 117.22 262.15 119.72 262.56 122.08C263.14 125.41 267.14 126.91 270.56 126.92C273.98 126.93 277.47 126.1 280.56 127.37C281.843 127.906 282.964 128.767 283.812 129.867C284.661 130.968 285.208 132.271 285.4 133.648C285.592 135.025 285.421 136.428 284.906 137.719C284.39 139.01 283.547 140.144 282.46 141.01C278.62 144.01 273.03 142.94 268.46 144.6C266.084 145.512 264.043 147.13 262.613 149.236C261.183 151.342 260.432 153.835 260.46 156.38C263.15 151.19 269.91 149.83 275.75 149.72C281.59 149.61 288 150.01 292.67 146.49C297.34 142.97 298.8 136.06 296.94 130.48Z" fill="#A86E46"/>
<g opacity="0.8">
<path d="M296.94 130.48C295.08 124.89 290.46 120.55 285.23 117.85C282.23 116.31 278.43 114.33 278.71 110.98C278.94 108.26 280.64 105.98 281.56 103.46C282.36 101.21 280.17 98.68 278.79 97.55C273.71 93.4 264.44 100.47 263.6 93.98C262.76 87.49 271.15 83.11 270.15 64.98C270.121 62.3729 269.612 59.7933 268.65 57.37C266.72 52.68 262.56 48.74 257.56 47.97C253.31 47.31 248.96 48.97 245.5 51.49C242.04 54.01 238.84 59.11 236.16 62.49L236.26 63.49L236.15 62.49C232.8 59.79 228.6 55.49 224.67 53.77C220.74 52.05 216.15 51.36 212.14 52.91C207.42 54.74 204.2 59.48 203.32 64.47C202.44 69.46 203.66 74.63 205.81 79.22C206.454 80.5761 207.186 81.8889 208 83.15C209.721 85.8281 211.774 88.2776 214.11 90.44C225 101.63 242 112 255.48 112.31C258.18 112.38 261.48 112.61 262.62 115.08C263.62 117.22 262.15 119.72 262.56 122.08C263.14 125.41 267.14 126.91 270.56 126.92C273.98 126.93 277.47 126.1 280.56 127.37C281.843 127.906 282.964 128.767 283.812 129.867C284.661 130.968 285.208 132.271 285.4 133.648C285.592 135.025 285.421 136.428 284.906 137.719C284.39 139.01 283.547 140.144 282.46 141.01C278.62 144.01 273.03 142.94 268.46 144.6C266.084 145.512 264.043 147.13 262.613 149.236C261.183 151.342 260.432 153.835 260.46 156.38C263.15 151.19 269.91 149.83 275.75 149.72C281.59 149.61 288 150.01 292.67 146.49C297.34 142.97 298.8 136.06 296.94 130.48Z" fill="#C3875E"/>
</g>
<path d="M313 94.0003C311.732 93.2494 310.222 93.0234 308.79 93.3703C307.238 93.8643 305.748 94.5354 304.35 95.3703L304.24 95.6903L304.36 95.3503C303.763 93.831 302.995 92.3849 302.07 91.0403C301.134 89.9091 299.791 89.1908 298.33 89.0403C297.468 89.0258 296.617 89.229 295.855 89.631C295.093 90.0331 294.444 90.621 293.97 91.3403C293.037 92.7994 292.572 94.5094 292.64 96.2403C292.687 98.6788 293.412 101.056 294.733 103.106C296.054 105.157 297.919 106.799 300.12 107.85C302.519 108.367 305.015 108.202 307.325 107.373C309.635 106.544 311.667 105.085 313.19 103.16C314.284 101.818 314.946 100.176 315.09 98.4503C315.14 97.5931 314.975 96.737 314.61 95.9598C314.245 95.1826 313.692 94.509 313 94.0003Z" fill="#A86E46"/>
<g opacity="0.8">
<path d="M313 94.0003C311.732 93.2494 310.222 93.0234 308.79 93.3703C307.238 93.8643 305.748 94.5354 304.35 95.3703L304.24 95.6903L304.36 95.3503C303.763 93.831 302.995 92.3849 302.07 91.0403C301.134 89.9091 299.791 89.1908 298.33 89.0403C297.468 89.0258 296.617 89.229 295.855 89.631C295.093 90.0331 294.444 90.621 293.97 91.3403C293.037 92.7994 292.572 94.5094 292.64 96.2403C292.687 98.6788 293.412 101.056 294.733 103.106C296.054 105.157 297.919 106.799 300.12 107.85C302.519 108.367 305.015 108.202 307.325 107.373C309.635 106.544 311.667 105.085 313.19 103.16C314.284 101.818 314.946 100.176 315.09 98.4503C315.14 97.5931 314.975 96.737 314.61 95.9598C314.245 95.1826 313.692 94.509 313 94.0003Z" fill="#C3875E"/>
</g>
<path d="M296.58 63.57C295.641 63.1849 294.589 63.1849 293.65 63.57C292.633 64.0514 291.679 64.6559 290.81 65.37L290.76 65.59L290.81 65.35C290.265 64.3662 289.611 63.447 288.86 62.61C288.121 61.9112 287.137 61.5306 286.12 61.55C285.528 61.6215 284.964 61.8426 284.481 62.1925C283.998 62.5425 283.612 63.0096 283.36 63.55C282.85 64.6308 282.686 65.8425 282.89 67.02C283.148 68.6611 283.856 70.1987 284.934 71.4625C286.013 72.7262 287.42 73.6668 289 74.18C290.684 74.3152 292.373 73.9767 293.875 73.2027C295.377 72.4287 296.633 71.2501 297.5 69.8C298.124 68.7866 298.427 67.6086 298.37 66.42C298.335 65.8328 298.153 65.2639 297.84 64.7658C297.527 64.2676 297.094 63.8564 296.58 63.57Z" fill="#A86E46"/>
<g opacity="0.8">
<path d="M296.58 63.57C295.641 63.1849 294.589 63.1849 293.65 63.57C292.633 64.0514 291.679 64.6559 290.81 65.37L290.76 65.59L290.81 65.35C290.265 64.3662 289.611 63.447 288.86 62.61C288.121 61.9112 287.137 61.5306 286.12 61.55C285.528 61.6215 284.964 61.8426 284.481 62.1925C283.998 62.5425 283.612 63.0096 283.36 63.55C282.85 64.6308 282.686 65.8425 282.89 67.02C283.148 68.6611 283.856 70.1987 284.934 71.4625C286.013 72.7262 287.42 73.6668 289 74.18C290.684 74.3152 292.373 73.9767 293.875 73.2027C295.377 72.4287 296.633 71.2501 297.5 69.8C298.124 68.7866 298.427 67.6086 298.37 66.42C298.335 65.8328 298.153 65.2639 297.84 64.7658C297.527 64.2676 297.094 63.8564 296.58 63.57Z" fill="#C3875E"/>
</g>
<path d="M198.1 102.63C195.15 103.293 192.579 105.089 190.94 107.63C189.22 110.07 188.24 114.13 187.21 116.93L187.5 117.57L187.2 116.9C184.39 115.9 180.68 113.98 177.7 113.7C174.703 113.301 171.668 114.095 169.25 115.91C167.946 117.102 166.965 118.605 166.397 120.278C165.828 121.951 165.692 123.74 166 125.48C166.665 128.968 168.377 132.171 170.91 134.66C174.417 138.229 178.847 140.75 183.706 141.942C188.565 143.135 193.66 142.95 198.42 141.41V141.46C202.719 138.848 206.2 135.084 208.47 130.595C210.739 126.106 211.706 121.07 211.26 116.06C211.011 112.52 209.689 109.139 207.47 106.37C206.348 105.01 204.901 103.955 203.264 103.301C201.626 102.647 199.85 102.417 198.1 102.63Z" fill="#A86E46"/>
<g opacity="0.8">
<path d="M198.1 102.63C195.15 103.293 192.579 105.089 190.94 107.63C189.22 110.07 188.24 114.13 187.21 116.93L187.5 117.57L187.2 116.9C184.39 115.9 180.68 113.98 177.7 113.7C174.703 113.301 171.668 114.095 169.25 115.91C167.946 117.102 166.965 118.605 166.397 120.278C165.828 121.951 165.692 123.74 166 125.48C166.665 128.968 168.377 132.171 170.91 134.66C174.417 138.229 178.847 140.75 183.706 141.942C188.565 143.135 193.66 142.95 198.42 141.41V141.46C202.719 138.848 206.2 135.084 208.47 130.595C210.739 126.106 211.706 121.07 211.26 116.06C211.011 112.52 209.689 109.139 207.47 106.37C206.348 105.01 204.901 103.955 203.264 103.301C201.626 102.647 199.85 102.417 198.1 102.63Z" fill="#C3875E"/>
</g>
<path d="M209.65 189.61C208.172 189.559 206.734 190.095 205.65 191.1C204.537 192.297 203.567 193.619 202.76 195.04L202.82 195.37L202.76 195.02C201.498 193.978 200.123 193.083 198.66 192.35C197.294 191.795 195.766 191.795 194.4 192.35C193.64 192.758 192.995 193.349 192.523 194.071C192.051 194.792 191.768 195.621 191.7 196.48C191.594 198.205 192.016 199.921 192.91 201.4C194.124 203.526 195.908 205.27 198.06 206.436C200.212 207.602 202.647 208.144 205.09 208C207.438 207.287 209.541 205.932 211.159 204.087C212.778 202.242 213.849 199.981 214.25 197.56C214.554 195.869 214.338 194.126 213.63 192.56C213.271 191.771 212.718 191.087 212.021 190.571C211.325 190.055 210.509 189.724 209.65 189.61Z" fill="#A86E46"/>
<g opacity="0.8">
<path d="M209.65 189.61C208.172 189.559 206.734 190.095 205.65 191.1C204.537 192.297 203.567 193.619 202.76 195.04L202.82 195.37L202.76 195.02C201.498 193.978 200.123 193.083 198.66 192.35C197.294 191.795 195.766 191.795 194.4 192.35C193.64 192.758 192.995 193.349 192.523 194.071C192.051 194.792 191.768 195.621 191.7 196.48C191.594 198.205 192.016 199.921 192.91 201.4C194.124 203.526 195.908 205.27 198.06 206.436C200.212 207.602 202.647 208.144 205.09 208C207.438 207.287 209.541 205.932 211.159 204.087C212.778 202.242 213.849 199.981 214.25 197.56C214.554 195.869 214.338 194.126 213.63 192.56C213.271 191.771 212.718 191.087 212.021 190.571C211.325 190.055 210.509 189.724 209.65 189.61Z" fill="#C3875E"/>
</g>
<path d="M203 156.08C202.029 156.374 201.213 157.038 200.73 157.93C200.274 158.961 199.939 160.042 199.73 161.15L199.84 161.35L199.72 161.14C198.669 160.739 197.575 160.46 196.46 160.31C195.955 160.286 195.451 160.362 194.975 160.534C194.5 160.706 194.063 160.969 193.69 161.31C193.284 161.743 192.994 162.272 192.847 162.847C192.7 163.422 192.701 164.025 192.85 164.6C193.164 165.748 193.82 166.773 194.73 167.54C195.996 168.643 197.544 169.372 199.2 169.646C200.857 169.92 202.557 169.727 204.11 169.09C205.484 168.108 206.554 166.759 207.198 165.198C207.842 163.636 208.033 161.925 207.75 160.26C207.575 159.08 207.045 157.981 206.23 157.11C205.822 156.68 205.312 156.361 204.747 156.181C204.183 156 203.582 155.966 203 156.08Z" fill="#A86E46"/>
<g opacity="0.8">
<path d="M203 156.08C202.029 156.374 201.213 157.038 200.73 157.93C200.274 158.961 199.939 160.042 199.73 161.15L199.84 161.35L199.72 161.14C198.669 160.739 197.575 160.46 196.46 160.31C195.955 160.286 195.451 160.362 194.975 160.534C194.5 160.706 194.063 160.969 193.69 161.31C193.284 161.743 192.994 162.272 192.847 162.847C192.7 163.422 192.701 164.025 192.85 164.6C193.164 165.748 193.82 166.773 194.73 167.54C195.996 168.643 197.544 169.372 199.2 169.646C200.857 169.92 202.557 169.727 204.11 169.09C205.484 168.108 206.554 166.759 207.198 165.198C207.842 163.636 208.033 161.925 207.75 160.26C207.575 159.08 207.045 157.981 206.23 157.11C205.822 156.68 205.312 156.361 204.747 156.181C204.183 156 203.582 155.966 203 156.08Z" fill="#C3875E"/>
</g>
<path d="M298.51 205.85C297.568 205.464 296.512 205.464 295.57 205.85C294.553 206.331 293.599 206.936 292.73 207.65L292.68 207.88L292.73 207.63C292.167 206.645 291.496 205.726 290.73 204.89C289.992 204.195 289.013 203.815 288 203.83C287.406 203.9 286.84 204.12 286.355 204.47C285.87 204.82 285.483 205.288 285.23 205.83C284.725 206.909 284.561 208.116 284.76 209.29C285.006 210.952 285.713 212.512 286.8 213.793C287.886 215.075 289.31 216.026 290.91 216.54C292.594 216.68 294.283 216.344 295.784 215.569C297.286 214.795 298.539 213.613 299.4 212.16C300.028 211.149 300.332 209.969 300.27 208.78C300.251 208.182 300.079 207.599 299.771 207.086C299.463 206.574 299.029 206.148 298.51 205.85Z" fill="#A86E46"/>
<g opacity="0.8">
<path d="M298.51 205.85C297.568 205.464 296.512 205.464 295.57 205.85C294.553 206.331 293.599 206.936 292.73 207.65L292.68 207.88L292.73 207.63C292.167 206.645 291.496 205.726 290.73 204.89C289.992 204.195 289.013 203.815 288 203.83C287.406 203.9 286.84 204.12 286.355 204.47C285.87 204.82 285.483 205.288 285.23 205.83C284.725 206.909 284.561 208.116 284.76 209.29C285.006 210.952 285.713 212.512 286.8 213.793C287.886 215.075 289.31 216.026 290.91 216.54C292.594 216.68 294.283 216.344 295.784 215.569C297.286 214.795 298.539 213.613 299.4 212.16C300.028 211.149 300.332 209.969 300.27 208.78C300.251 208.182 300.079 207.599 299.771 207.086C299.463 206.574 299.029 206.148 298.51 205.85Z" fill="#C3875E"/>
</g>
<path d="M369.87 229.67C325.15 192.4 277.63 232.47 277.63 232.47L277.77 189.47C277.87 189.23 277.96 189.21 278.05 189.19C280.982 188.584 283.616 186.984 285.505 184.661C287.395 182.338 288.424 179.434 288.42 176.44V154.07C287.42 143.22 253.42 143.38 251.36 143.4C244.21 143.49 218.94 144.47 218.03 154.07V176.48C218.025 179.473 219.053 182.376 220.941 184.699C222.828 187.021 225.459 188.622 228.39 189.23L228.68 189.29L228.81 231C228.81 231 174.68 189.16 134.86 228.53C96.73 266.24 129.25 326.46 146.33 350.9C161.71 372.9 224.96 431.43 252.67 433.56C279.48 432.77 334.85 383.56 348.78 367.17C372.45 339.36 414.59 266.93 369.87 229.67Z" fill="#FAFAFA"/>
<path d="M369.87 229.67L370.87 230.51L373.67 233.05C377.168 236.502 380.179 240.414 382.62 244.68C386.466 251.62 388.788 259.301 389.43 267.21C389.831 272.205 389.774 277.226 389.26 282.21C388.604 287.832 387.514 293.395 386 298.85C382.401 311.561 377.292 323.795 370.78 335.29C367.148 341.823 363.183 348.164 358.9 354.29C354.363 360.933 349.286 367.191 343.72 373C337.95 378.94 331.67 384.75 325.06 390.54C318.45 396.33 311.46 402.07 304.06 407.64C296.517 413.41 288.633 418.72 280.45 423.54C276.204 426.025 271.801 428.233 267.27 430.15C262.648 432.187 257.715 433.431 252.68 433.83C248.512 433.34 244.442 432.221 240.61 430.51C236.712 428.819 232.918 426.895 229.25 424.75C221.76 420.321 214.544 415.446 207.64 410.15C193.19 399.116 179.493 387.129 166.64 374.27C159.9 367.67 153.577 360.657 147.71 353.27C142.057 345.446 137.009 337.202 132.61 328.61C128.055 319.888 124.319 310.762 121.45 301.35C118.438 291.792 116.897 281.831 116.88 271.81C116.92 265.221 117.931 258.674 119.88 252.38C121.862 246.151 124.907 240.311 128.88 235.12C132.791 229.987 137.449 225.471 142.7 221.72C147.897 218.01 153.705 215.242 159.86 213.54C165.933 211.882 172.233 211.207 178.52 211.54C184.701 211.912 190.819 213 196.75 214.78C208.306 218.315 219.201 223.727 229 230.8L228.58 231C228.54 216.773 228.5 202.87 228.46 189.29L228.66 189.53C226.922 189.22 225.265 188.562 223.787 187.597C222.309 186.631 221.042 185.377 220.06 183.91C219.096 182.454 218.417 180.829 218.06 179.12C217.797 177.43 217.706 175.718 217.79 174.01C217.79 167.263 217.79 160.617 217.79 154.07C217.899 153.17 218.199 152.304 218.67 151.53C219.151 150.771 219.753 150.096 220.45 149.53C221.824 148.453 223.36 147.599 225 147C228.188 145.812 231.493 144.968 234.86 144.48C238.19 143.95 241.51 143.62 244.8 143.41C248.09 143.2 251.38 143.1 254.62 143.19C260.991 143.283 267.345 143.885 273.62 144.99C276.679 145.535 279.67 146.41 282.54 147.6C283.961 148.208 285.279 149.031 286.45 150.04C287.652 151.056 288.436 152.481 288.65 154.04C288.65 161.227 288.65 168.203 288.65 174.97C288.742 176.668 288.577 178.371 288.16 180.02C287.701 181.639 286.945 183.158 285.93 184.5C284.931 185.824 283.685 186.941 282.26 187.79C281.56 188.212 280.819 188.564 280.05 188.84C279.668 188.984 279.277 189.104 278.88 189.2L278.29 189.35C278.03 189.42 278.06 189.35 277.98 189.55V189.48C277.92 205.13 277.86 219.38 277.81 232.48L277.55 232.36C280.583 229.946 283.788 227.756 287.14 225.81C290.287 223.955 293.539 222.286 296.88 220.81C302.945 218.042 309.326 216.027 315.88 214.81C321.521 213.75 327.278 213.443 333 213.9C337.764 214.27 342.466 215.22 347 216.73C349.07 217.33 350.91 218.19 352.67 218.87C354.43 219.55 355.98 220.45 357.44 221.19L361.36 223.47L364.45 225.56C364.91 225.88 365.35 226.16 365.75 226.45L366.82 227.29L368.48 228.6C369.37 229.3 369.81 229.67 369.81 229.67L368.45 228.67L366.78 227.39L365.7 226.55L364.4 225.67L361.3 223.6L357.38 221.35C355.92 220.62 354.33 219.83 352.61 219.05C350.89 218.27 349.01 217.53 346.95 216.94C342.414 215.446 337.713 214.513 332.95 214.16C327.24 213.715 321.496 214.034 315.87 215.11C309.365 216.305 303.029 218.283 297 221C293.671 222.48 290.429 224.149 287.29 226C283.963 227.952 280.778 230.137 277.76 232.54L277.49 232.76V232.41C277.49 219.35 277.56 205.1 277.6 189.41V189.34C277.648 189.207 277.735 189.092 277.85 189.01C277.959 188.962 278.073 188.925 278.19 188.9L278.77 188.76C279.155 188.671 279.532 188.554 279.9 188.41C280.643 188.144 281.359 187.809 282.04 187.41C283.424 186.586 284.633 185.498 285.6 184.21C286.58 182.904 287.312 181.43 287.76 179.86C288.164 178.246 288.322 176.581 288.23 174.92C288.23 168.147 288.23 161.17 288.23 153.99C288.029 152.535 287.29 151.208 286.16 150.27C285.027 149.289 283.748 148.489 282.37 147.9C279.527 146.731 276.567 145.869 273.54 145.33C267.287 144.236 260.957 143.641 254.61 143.55C251.38 143.47 248.12 143.55 244.83 143.78C241.54 144.01 238.24 144.32 234.94 144.85C231.604 145.336 228.329 146.174 225.17 147.35C223.584 147.936 222.1 148.766 220.77 149.81C220.119 150.337 219.552 150.961 219.09 151.66C218.662 152.371 218.389 153.165 218.29 153.99V174C218.204 175.671 218.295 177.347 218.56 179C218.893 180.645 219.542 182.211 220.47 183.61C221.413 185.022 222.632 186.229 224.053 187.159C225.474 188.088 227.068 188.721 228.74 189.02H228.95V189.24C228.99 202.813 229.037 216.717 229.09 230.95V231.47L228.67 231.16C218.91 224.107 208.059 218.701 196.55 215.16C190.649 213.411 184.565 212.351 178.42 212C172.19 211.681 165.948 212.356 159.93 214C153.835 215.694 148.082 218.438 142.93 222.11C137.724 225.829 133.106 230.309 129.23 235.4C125.302 240.542 122.297 246.328 120.35 252.5C118.409 258.741 117.398 265.234 117.35 271.77C117.376 281.736 118.906 291.641 121.89 301.15C124.755 310.527 128.481 319.619 133.02 328.31C137.399 336.877 142.431 345.094 148.07 352.89C153.913 360.282 160.219 367.296 166.95 373.89C179.775 386.739 193.446 398.716 207.87 409.74C214.758 415.028 221.957 419.897 229.43 424.32C233.081 426.453 236.854 428.369 240.73 430.06C244.516 431.749 248.534 432.858 252.65 433.35C257.627 432.954 262.502 431.723 267.07 429.71C271.583 427.81 275.966 425.615 280.19 423.14C288.358 418.33 296.232 413.038 303.77 407.29C311.17 401.73 318.14 395.99 324.77 390.22C331.4 384.45 337.65 378.65 343.43 372.72C348.974 366.94 354.041 360.719 358.58 354.12C362.857 347.992 366.819 341.651 370.45 335.12C376.967 323.659 382.087 311.459 385.7 298.78C387.222 293.332 388.325 287.776 389 282.16C389.512 277.199 389.579 272.203 389.2 267.23C388.576 259.346 386.285 251.683 382.48 244.75C380.056 240.489 377.073 236.571 373.61 233.1L370.83 230.54C370.18 230 369.87 229.67 369.87 229.67Z" fill="#A86E46"/>
<path d="M235.55 190.74H272.55V250.69C272.55 250.69 275.5 248.13 277.06 246.75C277.06 246.75 322.35 204.1 361.35 236.5C401.87 270.15 361.76 335.32 340.35 360.5C327.75 375.31 277.64 419.86 253.35 420.57C228.27 418.64 168.78 361.34 157.13 345.78C144.13 328.36 107.13 266.91 147.6 233.21C184.9 202.15 230.29 244.36 230.29 244.36L236 250L235.56 190.76" fill="#F5F5F5"/>
<path d="M288.05 154.19C288.05 160.24 272.75 165.52 253.43 165.52C234.11 165.52 217.96 160.6 218.43 154.52C219.01 147.31 234.1 143.57 253.43 143.57C272.76 143.57 288.05 148.15 288.05 154.19Z" fill="#EBEBEB"/>
<path d="M248.85 280C180.59 260 142.94 286.93 133.77 294.82C132.981 295.502 132.45 296.435 132.268 297.462C132.086 298.49 132.263 299.548 132.77 300.46C137.06 308.22 156.34 326.46 242.95 334.01C349.07 343.26 378.65 278.91 378.65 278.91C378.65 278.91 328.19 303.17 248.85 280Z" fill="#A86E46"/>
<path d="M133 300.93C139.51 317.66 148.93 333.3 156.48 344.45C172.12 367.55 227.62 417.32 252.7 419.24C276.95 418.53 327.05 373.98 339.7 359.18C353.95 342.44 372.33 317.34 378.7 278.87C378.7 278.87 336.02 307.62 324.42 307.3C274.68 306 133 300.93 133 300.93Z" fill="#A86E46"/>
<g opacity="0.4">
<path d="M248.85 280C180.59 260 142.94 286.93 133.77 294.82C132.981 295.502 132.45 296.435 132.268 297.462C132.086 298.49 132.263 299.548 132.77 300.46C137.06 308.22 156.34 326.46 242.95 334.01C349.07 343.26 378.65 278.91 378.65 278.91C378.65 278.91 328.19 303.17 248.85 280Z" fill="#CA9571"/>
</g>
<g opacity="0.2">
<path d="M299.35 348.43C297.28 347.518 294.933 347.46 292.82 348.27C290.7 348.98 288.32 350.99 286.46 352.27L286.36 352.78L286.46 352.24C285.24 350.38 283.83 347.6 282.16 346.11C280.527 344.549 278.349 343.688 276.09 343.71C274.781 343.848 273.528 344.313 272.446 345.063C271.364 345.813 270.489 346.823 269.9 348C268.756 350.394 268.372 353.081 268.8 355.7C269.335 359.401 270.889 362.881 273.29 365.749C275.69 368.617 278.841 370.761 282.39 371.94C286.14 372.269 289.908 371.541 293.266 369.839C296.624 368.137 299.438 365.529 301.39 362.31C302.809 360.066 303.507 357.442 303.39 354.79C303.306 353.476 302.891 352.204 302.185 351.092C301.479 349.98 300.504 349.065 299.35 348.43Z" fill="#A86E46"/>
</g>
<g opacity="0.1">
<path d="M254.32 355.91C253.193 356.14 252.201 356.804 251.56 357.76C250.933 358.869 250.436 360.047 250.08 361.27L250.19 361.51L250.08 361.26C248.938 360.692 247.733 360.259 246.49 359.97C245.355 359.802 244.199 360.086 243.27 360.76C242.768 361.204 242.386 361.768 242.159 362.399C241.932 363.029 241.867 363.707 241.97 364.37C242.194 365.7 242.822 366.929 243.77 367.89C245.075 369.272 246.74 370.261 248.578 370.747C250.416 371.233 252.352 371.196 254.17 370.64C255.822 369.679 257.172 368.273 258.064 366.583C258.957 364.893 259.358 362.986 259.22 361.08C259.155 359.735 258.676 358.443 257.85 357.38C257.431 356.859 256.889 356.452 256.272 356.196C255.655 355.939 254.984 355.841 254.32 355.91Z" fill="#A86E46"/>
</g>
<g opacity="0.1">
<path d="M327.89 343.35C326.818 343.016 325.658 343.116 324.66 343.63C323.606 344.284 322.63 345.055 321.75 345.93V346.18V345.92C321.044 344.898 320.222 343.961 319.3 343.13C318.405 342.455 317.283 342.154 316.17 342.29C315.532 342.43 314.94 342.73 314.451 343.163C313.961 343.595 313.589 344.144 313.37 344.76C312.936 346 312.894 347.344 313.25 348.61C313.72 350.4 314.677 352.024 316.015 353.302C317.354 354.581 319.02 355.462 320.83 355.85C322.691 355.802 324.502 355.235 326.058 354.214C327.614 353.193 328.855 351.758 329.64 350.07C330.214 348.887 330.413 347.558 330.21 346.26C330.097 345.619 329.826 345.018 329.421 344.509C329.015 344.001 328.489 343.602 327.89 343.35Z" fill="#A86E46"/>
</g>
<g opacity="0.2">
<path d="M281.53 377.52C280.767 377.663 280.09 378.097 279.64 378.73C279.219 379.473 278.883 380.261 278.64 381.08L278.71 381.24L278.64 381.07C277.877 380.676 277.072 380.371 276.24 380.16C275.479 380.033 274.698 380.205 274.06 380.64C273.713 380.932 273.446 381.307 273.283 381.73C273.12 382.153 273.068 382.611 273.13 383.06C273.263 383.958 273.672 384.793 274.3 385.45C275.163 386.405 276.276 387.098 277.514 387.452C278.751 387.805 280.063 387.805 281.3 387.45C282.425 386.825 283.353 385.896 283.977 384.77C284.601 383.644 284.896 382.366 284.83 381.08C284.802 380.169 284.495 379.29 283.95 378.56C283.668 378.195 283.298 377.908 282.875 377.726C282.451 377.544 281.988 377.473 281.53 377.52Z" fill="white"/>
</g>
<g opacity="0.2">
<path d="M224.36 377.88C224.016 377.709 223.643 377.609 223.26 377.583C222.877 377.557 222.493 377.607 222.13 377.73C221.336 378.059 220.584 378.482 219.89 378.99V379.16V378.98C219.518 378.207 219.055 377.482 218.51 376.82C217.987 376.268 217.27 375.941 216.51 375.91C216.058 375.936 215.621 376.077 215.239 376.321C214.857 376.564 214.544 376.901 214.33 377.3C213.904 378.099 213.733 379.01 213.84 379.91C213.964 381.186 214.443 382.401 215.223 383.419C216.002 384.437 217.051 385.217 218.25 385.67C219.527 385.841 220.826 385.651 222 385.121C223.174 384.59 224.175 383.741 224.89 382.67C225.408 381.925 225.684 381.037 225.68 380.13C225.671 379.673 225.545 379.226 225.313 378.832C225.082 378.439 224.754 378.111 224.36 377.88Z" fill="white"/>
</g>
<g opacity="0.2">
<path d="M246.9 342.1C246.283 341.632 245.509 341.42 244.74 341.51C243.901 341.679 243.085 341.948 242.31 342.31L242.23 342.47L242.31 342.3C242.09 341.471 241.778 340.669 241.38 339.91C241.177 339.584 240.912 339.302 240.599 339.079C240.287 338.856 239.934 338.696 239.56 338.61C239.112 338.545 238.655 338.597 238.233 338.76C237.811 338.923 237.438 339.191 237.15 339.54C236.57 340.24 236.221 341.103 236.15 342.01C236.023 343.283 236.254 344.567 236.815 345.717C237.377 346.867 238.248 347.837 239.33 348.52C240.551 348.927 241.861 348.989 243.116 348.7C244.37 348.41 245.52 347.781 246.44 346.88C247.089 346.244 247.534 345.429 247.72 344.54C247.797 344.097 247.763 343.642 247.619 343.216C247.476 342.79 247.229 342.406 246.9 342.1Z" fill="white"/>
</g>
<g opacity="0.2">
<path d="M344 324.8C343.266 325.042 342.653 325.557 342.29 326.24C341.946 327.027 341.698 327.853 341.55 328.7L341.64 328.85L341.54 328.69C340.737 328.392 339.901 328.19 339.05 328.09C338.668 328.071 338.286 328.127 337.925 328.256C337.565 328.384 337.234 328.583 336.95 328.84C336.644 329.174 336.427 329.581 336.319 330.021C336.21 330.461 336.214 330.921 336.33 331.36C336.584 332.229 337.093 333.002 337.79 333.58C338.765 334.412 339.952 334.955 341.218 335.15C342.485 335.344 343.781 335.181 344.96 334.68C345.997 333.916 346.8 332.877 347.277 331.68C347.754 330.484 347.887 329.178 347.66 327.91C347.517 327.01 347.101 326.176 346.47 325.52C346.15 325.205 345.757 324.974 345.326 324.848C344.895 324.722 344.439 324.706 344 324.8Z" fill="white"/>
</g>
<g opacity="0.2">
<path d="M189.72 352.09C189.103 351.622 188.329 351.41 187.56 351.5C186.72 351.67 185.901 351.935 185.12 352.29C184.91 351.456 184.601 350.65 184.2 349.89C183.787 349.236 183.133 348.773 182.38 348.6C181.931 348.535 181.473 348.587 181.049 348.75C180.626 348.913 180.251 349.181 179.96 349.53C179.384 350.232 179.035 351.094 178.96 352C178.834 353.274 179.066 354.558 179.63 355.708C180.193 356.858 181.066 357.828 182.15 358.51C183.37 358.924 184.681 358.988 185.935 358.697C187.19 358.405 188.338 357.769 189.25 356.86C189.907 356.234 190.354 355.42 190.53 354.53C190.609 354.088 190.577 353.633 190.435 353.207C190.294 352.78 190.048 352.396 189.72 352.09Z" fill="white"/>
</g>
<g opacity="0.1">
<path d="M173.58 331.13C172.512 330.796 171.355 330.896 170.36 331.41C169.302 332.059 168.326 332.831 167.45 333.71V333.97V333.7C166.738 332.683 165.913 331.75 164.99 330.92C164.102 330.239 162.981 329.933 161.87 330.07C161.232 330.212 160.64 330.513 160.149 330.945C159.657 331.377 159.283 331.925 159.06 332.54C158.631 333.782 158.589 335.124 158.94 336.39C159.409 338.183 160.367 339.811 161.707 341.091C163.048 342.371 164.717 343.254 166.53 343.64C168.392 343.591 170.203 343.023 171.76 342C173.317 340.977 174.557 339.54 175.34 337.85C175.91 336.667 176.106 335.337 175.9 334.04C175.789 333.399 175.518 332.796 175.113 332.288C174.707 331.779 174.18 331.381 173.58 331.13Z" fill="#A86E46"/>
</g>
<g opacity="0.2">
<path d="M225.14 352C223.573 350.984 221.669 350.625 219.84 351C218.01 351.28 215.79 352.59 214.1 353.35L213.94 353.75L214.11 353.32C213.36 351.63 212.6 349.17 211.44 347.73C210.894 346.98 210.204 346.347 209.411 345.866C208.618 345.386 207.737 345.067 206.82 344.93C205.73 344.862 204.64 345.072 203.652 345.539C202.664 346.006 201.81 346.715 201.17 347.6C199.895 349.392 199.197 351.531 199.17 353.73C199.093 356.824 199.879 359.879 201.44 362.551C203.002 365.223 205.277 367.408 208.01 368.86C211.021 369.648 214.193 369.577 217.166 368.654C220.139 367.731 222.794 365.994 224.83 363.64C226.295 362.003 227.226 359.959 227.5 357.78C227.624 356.696 227.473 355.598 227.061 354.587C226.648 353.577 225.988 352.687 225.14 352Z" fill="#A86E46"/>
</g>
<g opacity="0.2">
<path d="M261.89 392.66C260.616 391.823 259.066 391.518 257.57 391.81C255.941 392.265 254.37 392.91 252.89 393.73L252.76 394.05L252.89 393.71C252.349 392.109 251.62 390.579 250.72 389.15C249.814 387.92 248.459 387.097 246.95 386.86C246.061 386.808 245.172 386.98 244.367 387.361C243.561 387.742 242.864 388.319 242.34 389.04C241.313 390.506 240.755 392.249 240.74 394.04C240.683 396.568 241.332 399.062 242.615 401.242C243.897 403.422 245.762 405.201 248 406.38C250.455 407.019 253.04 406.959 255.463 406.206C257.886 405.453 260.05 404.038 261.71 402.12C262.909 400.787 263.67 399.119 263.89 397.34C263.981 396.454 263.845 395.56 263.495 394.741C263.145 393.922 262.593 393.206 261.89 392.66Z" fill="#A86E46"/>
</g>
<path d="M327.26 299.72L326.79 299.85L325.4 300.2C324.79 300.34 324.04 300.55 323.14 300.73L320.02 301.31C313.36 302.375 306.607 302.751 299.87 302.43C289.89 301.885 279.976 300.477 270.24 298.22C259.24 295.81 247.3 292.4 234.66 289.38C222.02 286.36 209.77 284.23 198.51 284.02C188.529 283.715 178.564 285.025 169 287.9C162.587 289.878 156.517 292.829 151 296.65L148.46 298.53C147.73 299.09 147.16 299.62 146.67 300.01L145.58 300.93L145.19 301.23C145.19 301.23 145.31 301.1 145.54 300.89L146.6 299.89C147.08 299.48 147.6 298.94 148.36 298.36L150.88 296.44C156.374 292.519 162.447 289.483 168.88 287.44C178.464 284.508 188.462 283.157 198.48 283.44C209.79 283.62 222.09 285.76 234.74 288.77C247.39 291.78 259.31 295.22 270.3 297.65C280.009 299.926 289.895 301.371 299.85 301.97C306.565 302.32 313.298 302.002 319.95 301.02L323.07 300.49C323.97 300.32 324.72 300.14 325.34 300.01L326.73 299.72H327.26Z" fill="white"/>
<path d="M342.87 300.83C342.655 301.047 342.42 301.244 342.17 301.42L340.09 303L338.58 304.16C338.02 304.57 337.39 304.98 336.72 305.44C335.37 306.35 333.88 307.44 332.11 308.44L329.38 310.12C328.38 310.7 327.38 311.23 326.38 311.81C324.29 313.01 321.96 314.1 319.53 315.29C308.876 320.24 297.557 323.608 285.93 325.29C283.25 325.63 280.71 325.99 278.31 326.13C277.11 326.22 275.95 326.34 274.84 326.38L271.63 326.48C269.63 326.59 267.74 326.48 266.11 326.48C265.3 326.48 264.55 326.48 263.85 326.43L261.96 326.29L259.33 326.09C259.025 326.073 258.721 326.036 258.42 325.98C258.726 325.954 259.034 325.954 259.34 325.98L261.97 326.08L263.86 326.17C264.56 326.17 265.31 326.17 266.12 326.17C267.74 326.17 269.58 326.23 271.62 326.1L274.81 325.97C275.92 325.91 277.07 325.78 278.27 325.69C280.66 325.53 283.19 325.15 285.86 324.79C291.633 323.891 297.342 322.618 302.95 320.98C308.536 319.28 314.004 317.215 319.32 314.8C321.75 313.63 324.08 312.56 326.16 311.39C327.21 310.81 328.25 310.29 329.21 309.73L331.95 308.09C333.72 307.09 335.23 306.01 336.59 305.09C337.26 304.64 337.9 304.24 338.47 303.85L340.01 302.73L342.14 301.21C342.376 301.069 342.62 300.942 342.87 300.83Z" fill="white"/>
<path d="M356.8 328.53C356.755 328.623 356.705 328.713 356.65 328.8L356.17 329.54L354.31 332.38C353.5 333.62 352.49 335.12 351.25 336.82C350.01 338.52 348.67 340.49 347.04 342.57L344.52 345.86C343.64 347 342.67 348.15 341.69 349.36C339.76 351.79 337.56 354.28 335.27 356.92C330.6 362.12 325.27 367.66 319.38 373.16C313.49 378.66 307.53 383.55 302 387.82C299.2 389.92 296.56 391.93 294 393.68C292.72 394.56 291.51 395.45 290.3 396.24L286.83 398.52C284.64 399.99 282.57 401.2 280.83 402.3C279.09 403.4 277.48 404.3 276.18 405.02L273.18 406.67L272.4 407.09L272.13 407.22C272.206 407.15 272.29 407.09 272.38 407.04L273.13 406.58L276.05 404.83C277.32 404.09 278.87 403.17 280.64 402.04C282.41 400.91 284.46 399.69 286.64 398.19L290.09 395.9C291.28 395.09 292.49 394.2 293.76 393.31C296.31 391.55 298.93 389.53 301.76 387.43C307.26 383.14 313.16 378.23 319.07 372.77C324.98 367.31 330.28 361.77 334.95 356.58C337.25 353.96 339.46 351.49 341.4 349.07C342.4 347.87 343.4 346.73 344.25 345.6L346.79 342.34C348.44 340.27 349.79 338.34 351.07 336.64C352.35 334.94 353.36 333.48 354.19 332.26L356.14 329.48C356.36 329.19 356.53 328.95 356.66 328.76C356.7 328.679 356.747 328.602 356.8 328.53Z" fill="white"/>
<path d="M378.65 278.87C378.65 278.87 378.56 279.09 378.36 279.52L377.49 281.39L376.84 282.77C376.58 283.27 376.26 283.77 375.93 284.38C375.2 285.725 374.399 287.03 373.53 288.29C373.05 289.01 372.53 289.77 372 290.56L370.15 293C369.82 293.41 369.49 293.84 369.15 294.27C368.81 294.7 368.41 295.1 368.04 295.53C367.27 296.38 366.53 297.31 365.66 298.18C361.815 302.211 357.618 305.892 353.12 309.18C347.682 313.178 341.918 316.714 335.89 319.75C328.954 323.201 321.734 326.052 314.31 328.27C297.257 333.274 279.538 335.635 261.77 335.27C224.02 334.37 190.15 328.27 166.44 321.27C161.132 319.586 155.993 317.41 151.09 314.77C147.392 312.767 143.879 310.441 140.59 307.82C139.22 306.76 138.1 305.71 137.09 304.82C136.08 303.93 135.3 303.14 134.67 302.49L133.24 300.99L132.76 300.47L133.28 300.95L134.74 302.41C135.39 303.05 136.23 303.8 137.2 304.7C138.17 305.6 139.35 306.59 140.72 307.63C144.018 310.214 147.535 312.506 151.23 314.48C156.133 317.081 161.265 319.226 166.56 320.89C190.23 327.75 224.1 333.8 261.78 334.69C279.493 335.068 297.161 332.738 314.17 327.78C321.57 325.582 328.769 322.759 335.69 319.34C341.704 316.329 347.457 312.823 352.89 308.86C357.385 305.606 361.585 301.962 365.44 297.97C366.31 297.11 367.05 296.19 367.82 295.35L368.94 294.1L369.94 292.84L371.8 290.47L373.35 288.23C374.35 286.83 375.1 285.49 375.78 284.35C376.11 283.77 376.44 283.25 376.71 282.76L377.38 281.39C377.78 280.59 378.09 279.98 378.3 279.54C378.51 279.1 378.65 278.87 378.65 278.87Z" fill="white"/>
<path d="M330.73 292C330.582 292.035 330.432 292.059 330.28 292.07L328.94 292.23C327.76 292.38 326.01 292.49 323.76 292.61C319.25 292.81 312.76 292.79 304.67 292.34C296.58 291.89 287.05 291.02 276.49 289.53C271.22 288.78 265.69 287.85 260.04 286.53C254.39 285.21 248.61 283.6 242.67 282.02C236.73 280.44 230.91 279.02 225.21 277.95C219.738 276.958 214.205 276.333 208.65 276.08C203.34 275.82 198.28 275.88 193.55 276.08C188.82 276.28 184.45 276.84 180.46 277.39C174.173 278.311 167.96 279.685 161.87 281.5L159.01 282.38L156.94 283.1L155.66 283.53C155.513 283.584 155.363 283.628 155.21 283.66C155.348 283.588 155.492 283.528 155.64 283.48L156.9 283L158.96 282.23C159.78 281.95 160.73 281.65 161.81 281.3C167.89 279.404 174.105 277.967 180.4 277C184.4 276.43 188.79 275.9 193.53 275.62C198.572 275.333 203.625 275.303 208.67 275.53C214.251 275.773 219.81 276.388 225.31 277.37C231.03 278.37 236.86 279.86 242.81 281.45C248.76 283.04 254.53 284.64 260.16 285.96C265.79 287.28 271.3 288.26 276.57 289.03C287.1 290.55 296.66 291.42 304.69 291.95C312.72 292.48 319.25 292.53 323.75 292.39C326 292.3 327.75 292.22 328.93 292.11L330.27 292.01L330.73 292Z" fill="white"/>
<path d="M269.83 253.11C269.83 253.11 269.91 253.01 270.09 252.85C270.27 252.69 270.55 252.42 270.89 252.12L274 249.38C276.72 247.03 280.68 243.63 285.9 239.85C291.989 235.371 298.648 231.722 305.7 229C314.387 225.701 323.642 224.158 332.93 224.46C337.734 224.65 342.494 225.443 347.1 226.82C351.384 228.133 355.461 230.045 359.21 232.5C365.559 236.71 370.723 242.477 374.21 249.25C375.488 251.86 376.493 254.594 377.21 257.41C377.49 258.66 377.73 259.83 377.89 260.91C378.05 261.99 378.16 263 378.19 263.91C378.22 264.82 378.19 265.61 378.24 266.31C378.29 267.01 378.15 267.59 378.12 268.06L378.03 269.14C378.028 269.261 378.012 269.382 377.98 269.5C377.967 269.377 377.967 269.253 377.98 269.13C377.98 268.86 377.98 268.51 377.98 268.06C377.98 267.61 378.05 267 378.05 266.31C378.05 265.62 377.98 264.82 377.95 263.93C377.92 263.04 377.73 262.05 377.61 260.93C377.49 259.81 377.18 258.7 376.89 257.46C376.135 254.676 375.1 251.975 373.8 249.4C370.302 242.727 365.173 237.047 358.89 232.89C355.173 230.474 351.133 228.595 346.89 227.31C342.338 225.956 337.635 225.173 332.89 224.98C323.684 224.682 314.509 226.201 305.89 229.45C298.863 232.149 292.22 235.756 286.13 240.18C280.9 243.91 276.91 247.26 274.13 249.56L271 252.2L270.17 252.89C270.063 252.972 269.949 253.046 269.83 253.11Z" fill="white"/>
<path d="M238.83 253.37L238.61 253.13L238 252.41C237.46 251.78 236.66 250.85 235.56 249.72C232.439 246.548 229.068 243.632 225.48 241C223.22 239.31 220.71 237.5 218 235.59C215.29 233.68 212.36 231.68 209.15 229.8C205.808 227.81 202.277 226.155 198.61 224.86C194.664 223.495 190.568 222.612 186.41 222.23C182.253 221.833 178.064 221.93 173.93 222.52C170.078 223.052 166.3 224.025 162.67 225.42C156.526 227.792 150.874 231.281 146 235.71C142.693 238.678 139.759 242.035 137.26 245.71C136.4 247.03 135.73 248.05 135.33 248.78C135.12 249.11 134.96 249.38 134.84 249.59C134.72 249.8 134.66 249.86 134.65 249.85C134.64 249.84 134.65 249.75 134.79 249.56L135.23 248.72C135.61 247.98 136.23 246.93 137.08 245.59C143.21 236.257 152.09 229.062 162.49 225C166.15 223.561 169.966 222.554 173.86 222C182.239 220.789 190.787 221.598 198.79 224.36C202.486 225.665 206.04 227.341 209.4 229.36C212.63 231.26 215.56 233.28 218.26 235.21C220.96 237.14 223.46 238.97 225.71 240.68C229.292 243.351 232.638 246.325 235.71 249.57C236.79 250.72 237.56 251.68 238.08 252.33L238.65 253.09C238.78 253.27 238.84 253.36 238.83 253.37Z" fill="white"/>
<path d="M288.05 155.29C287.906 155.499 287.745 155.696 287.57 155.88C287.091 156.42 286.58 156.931 286.04 157.41C284.017 159.166 281.698 160.548 279.19 161.49C275.518 162.947 271.684 163.954 267.77 164.49C262.974 165.117 258.135 165.368 253.3 165.24C244.524 165.067 235.799 163.872 227.3 161.68C224.03 160.86 221.49 159.58 220.16 158.2C219.637 157.688 219.198 157.098 218.86 156.45C218.743 156.223 218.649 155.985 218.58 155.74C219.031 156.596 219.615 157.376 220.31 158.05C222.362 159.709 224.795 160.83 227.39 161.31C235.883 163.384 244.579 164.52 253.32 164.7C258.127 164.824 262.937 164.59 267.71 164C271.593 163.473 275.402 162.496 279.06 161.09C281.546 160.188 283.862 158.873 285.91 157.2C286.62 156.6 287.15 156.1 287.5 155.75C287.666 155.577 287.851 155.423 288.05 155.29Z" fill="#A86E46"/>
<path d="M240 257.27C239.85 257.27 239.73 250.71 239.73 242.62C239.73 234.53 239.83 228 240 228C240.17 228 240.28 234.56 240.28 242.66C240.28 250.76 240.13 257.27 240 257.27Z" fill="white"/>
<path d="M221.34 166.15C221.023 169.429 221.087 172.735 221.53 176C221.981 179.292 223.557 182.327 225.99 184.59C227.1 185.59 228.77 186.27 229.99 185.44C230.44 185.052 230.76 184.535 230.907 183.959C231.054 183.383 231.02 182.776 230.81 182.22C230.372 181.115 229.808 180.065 229.13 179.09C228.171 177.413 227.629 175.53 227.55 173.6C227.49 172.33 227.64 171.05 227.63 169.77C227.672 168.488 227.364 167.219 226.74 166.1C226.423 165.543 225.958 165.085 225.397 164.776C224.836 164.467 224.2 164.319 223.56 164.35C223.245 164.383 222.941 164.479 222.664 164.632C222.387 164.785 222.144 164.993 221.949 165.242C221.754 165.491 221.612 165.777 221.529 166.082C221.447 166.387 221.427 166.706 221.47 167.02" fill="white"/>
<path d="M275.17 151.63C274.788 152.046 274.37 152.428 273.92 152.77C272.741 153.762 271.502 154.68 270.21 155.52C268.283 156.778 266.194 157.767 264 158.46C261.296 159.268 258.481 159.646 255.66 159.58C252.855 159.559 250.055 159.342 247.28 158.93C245.008 158.593 242.785 157.982 240.66 157.11C239.248 156.517 237.907 155.769 236.66 154.88C236.314 154.644 235.98 154.39 235.66 154.12C235.542 154.033 235.434 153.932 235.34 153.82C235.834 154.084 236.312 154.377 236.77 154.7C238.063 155.518 239.433 156.208 240.86 156.76C242.972 157.568 245.17 158.131 247.41 158.44C250.165 158.815 252.94 159.015 255.72 159.04C258.484 159.1 261.242 158.742 263.9 157.98C266.064 157.324 268.131 156.386 270.05 155.19C271.7 154.19 272.97 153.25 273.84 152.6C274.255 152.239 274.7 151.915 275.17 151.63Z" fill="#A86E46"/>
<g opacity="0.3">
<path d="M269.77 155.29L280.9 147.58C280.9 147.58 273.9 144.87 270.48 144.69C267.06 144.51 269.77 155.29 269.77 155.29Z" fill="#A86E46"/>
</g>
<path d="M333.34 269.8C331.73 264.51 329.18 259.36 325.12 255.61C321.06 251.86 315.3 249.67 309.89 250.8C304.63 251.9 300.45 255.8 295.52 257.94C291.819 259.52 287.754 260.049 283.771 259.471C279.789 258.892 276.043 257.228 272.944 254.661C269.845 252.094 267.512 248.723 266.203 244.918C264.893 241.113 264.657 237.021 265.52 233.09C266.59 228.23 269.32 223.57 268.79 218.62C268.27 213.85 264.79 209.98 262.85 205.62C260.91 201.26 261.45 196.2 265.57 191.5L255.4 191.98C252.62 195.15 254.2 202.75 255.48 206.77C256.76 210.79 258.69 214.77 258.27 219.01C257.67 225.01 252.4 229.65 251.13 235.56C249.54 242.91 254.38 249.97 259.07 255.84C263.76 261.71 269.2 267.84 276.59 269.1C286.65 270.82 295.97 262.85 306.17 262.46C318 262 328.65 273.82 327 285.53C330.31 285.62 333.15 282.77 334.05 279.58C334.95 276.39 334.3 273 333.34 269.8Z" fill="#A86E46"/>
<g opacity="0.8">
<path d="M333.34 269.8C331.73 264.51 329.18 259.36 325.12 255.61C321.06 251.86 315.3 249.67 309.89 250.8C304.63 251.9 300.45 255.8 295.52 257.94C291.819 259.52 287.754 260.049 283.771 259.471C279.789 258.892 276.043 257.228 272.944 254.661C269.845 252.094 267.512 248.723 266.203 244.918C264.893 241.113 264.657 237.021 265.52 233.09C266.59 228.23 269.32 223.57 268.79 218.62C268.27 213.85 264.79 209.98 262.85 205.62C260.91 201.26 261.45 196.2 265.57 191.5L255.4 191.98C252.62 195.15 254.2 202.75 255.48 206.77C256.76 210.79 258.69 214.77 258.27 219.01C257.67 225.01 252.4 229.65 251.13 235.56C249.54 242.91 254.38 249.97 259.07 255.84C263.76 261.71 269.2 267.84 276.59 269.1C286.65 270.82 295.97 262.85 306.17 262.46C318 262 328.65 273.82 327 285.53C330.31 285.62 333.15 282.77 334.05 279.58C334.95 276.39 334.3 273 333.34 269.8Z" fill="#CA9571"/>
</g>
<path d="M379.36 263.19C379.373 263.273 379.373 263.357 379.36 263.44C379.36 263.64 379.36 263.89 379.36 264.19C379.36 264.89 379.36 265.85 379.36 267.06C379.36 267.69 379.36 268.38 379.36 269.14L379.2 271.61C379.14 272.5 379.08 273.44 379.01 274.45C378.94 275.46 378.75 276.5 378.61 277.61C377.951 282.801 376.945 287.943 375.6 293C373.871 299.169 371.794 305.235 369.38 311.17C366.76 317.47 363.89 323.3 361.11 328.51C358.33 333.72 355.52 338.24 352.98 341.92C352.36 342.85 351.78 343.74 351.2 344.57L349.53 346.87C348.53 348.31 347.59 349.53 346.8 350.5L345 352.74L344.52 353.31C344.413 353.437 344.353 353.497 344.34 353.49C344.374 353.414 344.417 353.344 344.47 353.28L344.91 352.67L346.63 350.37C347.4 349.37 348.28 348.14 349.29 346.69L350.92 344.37C351.49 343.54 352.05 342.64 352.66 341.71C355.15 338.01 357.82 333.42 360.66 328.27C363.5 323.12 366.26 317.27 368.86 310.96C371.274 305.046 373.36 299.003 375.11 292.86C376.505 287.838 377.574 282.73 378.31 277.57C378.46 276.47 378.63 275.42 378.75 274.42C378.87 273.42 378.9 272.48 378.98 271.6C379.06 270.72 379.12 269.9 379.18 269.14C379.24 268.38 379.18 267.69 379.23 267.07C379.23 265.86 379.28 264.9 379.29 264.2C379.29 263.9 379.29 263.65 379.29 263.45C379.298 263.36 379.322 263.272 379.36 263.19Z" fill="#A86E46"/>
<path d="M270.19 264.72C269.867 264.601 269.561 264.44 269.28 264.24C268.478 263.757 267.707 263.226 266.97 262.65C262.034 258.877 258.195 253.854 255.85 248.1C255.492 247.239 255.185 246.357 254.93 245.46C254.812 245.137 254.735 244.801 254.7 244.46C254.79 244.46 255.24 245.83 256.2 247.96C257.46 250.739 259.026 253.369 260.87 255.8C262.73 258.218 264.857 260.419 267.21 262.36C269 263.84 270.24 264.64 270.19 264.72Z" fill="white"/>
<path d="M324.76 269.27C324.62 269.39 322.38 266.39 318.61 263.87C316.302 262.409 313.861 261.17 311.32 260.17C312.134 260.236 312.931 260.435 313.68 260.76C315.532 261.422 317.293 262.315 318.92 263.42C320.551 264.518 322.034 265.822 323.33 267.3C323.902 267.882 324.384 268.546 324.76 269.27Z" fill="white"/>
<g opacity="0.2">
<path d="M333.36 367.87C316.643 391.714 293.284 410.117 266.19 420.79C261.31 422.7 256.19 424.37 250.97 424.28C243.2 424.15 236.05 420.19 229.45 416.09C211.28 404.8 193.21 388.97 180.34 371.89C180.34 371.89 219.34 410.25 249.34 419.46C249.34 419.46 252.23 421.93 264.23 417.65C284.45 410.44 333.36 367.87 333.36 367.87Z" fill="#A86E46"/>
</g>
<path d="M248.62 417.08C248.357 417.01 248.102 416.913 247.86 416.79L245.73 415.86C244.8 415.46 243.73 414.95 242.4 414.31C241.07 413.67 239.63 412.98 238.04 412.11C234.84 410.45 231.1 408.32 227.04 405.81C222.98 403.3 218.61 400.37 214.16 397.13C205.24 390.65 197.62 384.2 192.22 379.4C189.52 377.01 187.37 375.04 185.9 373.65L184.22 372.05C184.017 371.869 183.83 371.672 183.66 371.46C183.884 371.612 184.095 371.783 184.29 371.97L186.04 373.49C187.55 374.83 189.74 376.76 192.47 379.12C197.93 383.83 205.58 390.22 214.47 396.69C218.92 399.92 223.28 402.84 227.3 405.39C231.32 407.94 235.05 410.07 238.23 411.77C239.79 412.66 241.23 413.37 242.53 414.03C243.83 414.69 244.91 415.24 245.82 415.67L247.91 416.67C248.159 416.784 248.397 416.921 248.62 417.08Z" fill="white"/>
<path d="M344.34 353.48C344.249 353.642 344.149 353.799 344.04 353.95C343.84 354.26 343.53 354.71 343.1 355.29C342.26 356.46 340.97 358.16 339.18 360.29C336.983 362.879 334.646 365.346 332.18 367.68C330.74 369.06 329.11 370.45 327.35 371.9L321.89 376.63L309.21 387.63C306.9 389.63 304.55 391.71 302.01 393.77C299.47 395.83 296.73 397.77 293.85 399.77C288.09 403.67 281.85 407.55 275.1 411.34C271.74 413.23 268.28 415.13 264.61 416.82C262.747 417.67 260.821 418.375 258.85 418.93C256.823 419.555 254.69 419.766 252.58 419.55C250.478 419.287 248.405 418.825 246.39 418.17C244.39 417.54 242.39 416.79 240.33 415.96C236.277 414.233 232.342 412.242 228.55 410C226.62 408.86 224.7 407.65 222.83 406.34L217.24 402.34C213.51 399.63 209.76 396.85 206.04 393.95C194.914 385.433 184.395 376.151 174.56 366.17C169.89 361.34 165.56 356.43 161.5 351.5C157.44 346.57 153.86 341.5 150.64 336.5C149.77 335.28 149.12 333.95 148.38 332.69C147.64 331.43 146.96 330.15 146.26 328.9C144.86 326.4 143.48 323.96 142.13 321.56C139.41 317.065 137.11 312.328 135.26 307.41C131.77 298.07 130.26 289.16 130.48 281.55C129.683 274.438 130.021 267.245 131.48 260.24C131.967 257.741 132.635 255.281 133.48 252.88C133.48 252.88 133.48 253.04 133.35 253.36C133.22 253.68 133.12 254.15 132.94 254.76C132.6 256 132.1 257.84 131.62 260.28C130.232 267.272 129.941 274.438 130.76 281.52C130.53 289.04 132.11 297.93 135.62 307.21C137.468 312.105 139.771 316.816 142.5 321.28L146.64 328.61L148.77 332.39C149.455 333.691 150.206 334.956 151.02 336.18C154.24 341.18 157.93 346.12 161.88 351.09C165.83 356.06 170.25 360.9 174.88 365.71C184.706 375.663 195.207 384.925 206.31 393.43C210.02 396.33 213.78 399.1 217.5 401.81L223.08 405.81C224.94 407.11 226.84 408.31 228.76 409.45C232.552 411.677 236.487 413.652 240.54 415.36C242.54 416.19 244.54 416.93 246.54 417.56C248.517 418.214 250.554 418.673 252.62 418.93C254.641 419.11 256.678 418.9 258.62 418.31C260.563 417.765 262.462 417.073 264.3 416.24C267.94 414.56 271.41 412.67 274.77 410.79C281.48 407.02 287.77 403.16 293.5 399.28C296.38 397.28 299.11 395.36 301.66 393.28C304.21 391.2 306.54 389.14 308.86 387.17L321.59 376.25L327.07 371.55C328.83 370.11 330.47 368.74 331.91 367.37C334.374 365.058 336.711 362.615 338.91 360.05C340.71 357.95 342.02 356.27 342.91 355.12L343.91 353.81C344.22 353.63 344.34 353.48 344.34 353.48Z" fill="#A86E46"/>
<path d="M236.5 154.37L230.56 117C230.56 117 231.42 109.64 255.56 110.84C279.7 112.04 278.06 118.37 278.06 118.37L272 153.65C272 153.65 265.53 159.86 253.82 159.15C238.05 158.19 236.5 154.37 236.5 154.37Z" fill="#A86E46"/>
<path d="M278.05 118.4C278.05 118.4 277.93 118.59 277.62 118.86C277.155 119.243 276.652 119.578 276.12 119.86C274.149 120.936 272.013 121.679 269.8 122.06C266.532 122.573 263.228 122.827 259.92 122.82C256.19 122.9 252.1 122.82 247.8 122.7H246.95H246.41L246.75 122.28L251.06 116.87L251.37 117.28L241 121.75C237.32 121.59 234.26 120.89 232.51 119.65C231.82 119.2 231.261 118.575 230.89 117.84C230.747 117.587 230.678 117.3 230.69 117.01C230.775 117.274 230.878 117.531 231 117.78C231.399 118.464 231.963 119.038 232.64 119.45C234.37 120.59 237.37 121.21 241.01 121.32H240.92L251.29 116.75L252.29 116.32L251.63 117.15L247.33 122.57L247.13 122.13H247.98C252.27 122.28 256.36 122.34 260.07 122.3C263.355 122.325 266.637 122.108 269.89 121.65C272.076 121.306 274.197 120.632 276.18 119.65C276.712 119.375 277.224 119.06 277.71 118.71C277.818 118.601 277.932 118.497 278.05 118.4Z" fill="#A86E46"/>
<g opacity="0.2">
<path d="M251.26 117.03L246.96 122.44L244.4 138.1L241 122.12L240.88 121.56L251.26 117.03Z" fill="#CA9571"/>
</g>
<path d="M244.52 138C244.169 137.251 243.914 136.462 243.76 135.65C243.38 134.18 242.91 132.12 242.43 129.85C241.95 127.58 241.6 125.72 241.25 124.03C241.043 123.231 240.919 122.414 240.88 121.59C241.219 122.342 241.47 123.13 241.63 123.94C242.02 125.42 242.49 127.47 242.96 129.74C243.43 132.01 243.8 133.87 244.14 135.56C244.346 136.359 244.473 137.176 244.52 138Z" fill="#CA9571"/>
<g opacity="0.2">
<path d="M261.17 133.34C261.069 133.092 260.896 132.879 260.673 132.729C260.45 132.58 260.188 132.5 259.92 132.5C259.71 132.521 259.508 132.595 259.334 132.713C259.159 132.832 259.017 132.992 258.92 133.18C258.733 133.593 258.624 134.037 258.6 134.49C258.181 137.28 258 140.1 258.06 142.92C258.05 143.344 258.147 143.763 258.34 144.14C258.444 144.321 258.603 144.464 258.793 144.55C258.983 144.636 259.195 144.661 259.4 144.62C259.569 144.534 259.719 144.415 259.839 144.268C259.96 144.122 260.048 143.952 260.1 143.77C261.23 141.01 261.33 137.94 261.41 134.95C261.468 134.402 261.386 133.847 261.17 133.34Z" fill="#CA9571"/>
</g>
<g opacity="0.2">
<path d="M256.46 115.27C256.223 115.389 256.026 115.574 255.892 115.803C255.759 116.032 255.696 116.295 255.71 116.56C255.734 116.777 255.816 116.984 255.946 117.159C256.075 117.335 256.249 117.473 256.45 117.56C256.874 117.723 257.325 117.808 257.78 117.81C260.588 118.055 263.412 118.055 266.22 117.81C266.643 117.798 267.057 117.678 267.42 117.46C267.601 117.353 267.74 117.188 267.816 116.992C267.892 116.797 267.901 116.581 267.84 116.38C267.747 116.214 267.619 116.071 267.465 115.958C267.312 115.846 267.136 115.768 266.95 115.73C264.12 114.73 261.05 114.87 258.07 114.98C257.517 114.933 256.962 115.033 256.46 115.27Z" fill="#CA9571"/>
</g>
<g opacity="0.2">
<path d="M238.81 136.14C238.64 135.932 238.413 135.781 238.156 135.704C237.899 135.627 237.626 135.629 237.37 135.71C237.177 135.792 237.008 135.921 236.877 136.085C236.746 136.249 236.658 136.443 236.62 136.65C236.566 137.101 236.593 137.558 236.7 138C237.127 140.789 237.796 143.536 238.7 146.21C238.813 146.616 239.027 146.987 239.32 147.29C239.471 147.433 239.663 147.525 239.869 147.554C240.076 147.583 240.286 147.546 240.47 147.45C240.605 147.321 240.712 147.166 240.784 146.994C240.856 146.821 240.892 146.636 240.89 146.45C241.17 143.45 240.35 140.51 239.55 137.64C239.441 137.083 239.186 136.565 238.81 136.14Z" fill="#CA9571"/>
</g>
<g opacity="0.2">
<path d="M273.62 122.41C273.518 122.162 273.344 121.95 273.122 121.801C272.899 121.652 272.638 121.571 272.37 121.57C272.16 121.59 271.958 121.663 271.783 121.782C271.608 121.901 271.466 122.062 271.37 122.25C271.175 122.661 271.063 123.106 271.04 123.56C270.619 126.349 270.442 129.17 270.51 131.99C270.502 132.412 270.594 132.83 270.78 133.21C270.885 133.39 271.043 133.534 271.233 133.62C271.423 133.706 271.635 133.73 271.84 133.69C272.01 133.606 272.161 133.487 272.281 133.34C272.402 133.194 272.49 133.023 272.54 132.84C273.68 130.08 273.77 127.01 273.85 124.03C273.912 123.479 273.833 122.921 273.62 122.41Z" fill="#CA9571"/>
</g>
<path d="M275.7 116.4C275.168 116.243 274.653 116.035 274.16 115.78C273.571 115.52 272.966 115.297 272.35 115.11L271.21 114.73L269.9 114.39C265.095 113.224 260.174 112.603 255.23 112.54C250.285 112.382 245.335 112.63 240.43 113.28L237.9 113.71L236.02 114.13C235.5 114.317 234.965 114.457 234.42 114.55C234.917 114.304 235.431 114.097 235.96 113.93L237.84 113.41C238.58 113.25 239.43 113.08 240.37 112.91C245.29 112.136 250.272 111.832 255.25 112C260.231 112.054 265.185 112.726 270 114L271.31 114.38L272.45 114.81C273.064 115.02 273.663 115.274 274.24 115.57C274.748 115.808 275.236 116.085 275.7 116.4Z" fill="white"/>
<path d="M237.45 153.82C237.32 153.417 237.233 153.001 237.19 152.58C237.05 151.78 236.87 150.58 236.67 149.17C236.26 146.17 235.74 142.23 235.16 137.88C234.58 133.53 234.01 129.49 233.58 126.61C233.38 125.276 233.21 124.136 233.07 123.19C232.983 122.775 232.94 122.353 232.94 121.93C233.103 122.321 233.217 122.731 233.28 123.15C233.46 123.95 233.69 125.15 233.96 126.54C234.49 129.41 235.11 133.39 235.69 137.81C236.27 142.23 236.69 146.22 237.05 149.12C237.18 150.48 237.3 151.63 237.4 152.55C237.467 152.97 237.484 153.396 237.45 153.82Z" fill="white"/>
<path d="M249.76 116.64C247.189 118.278 244.322 119.396 241.32 119.93C242.669 119.244 244.07 118.665 245.51 118.2C246.883 117.567 248.304 117.046 249.76 116.64Z" fill="white"/>
<path d="M196.27 238.46C195.98 235.07 192.36 231.99 188.11 231.46C174.99 227.89 159.88 233.39 151.55 244.13C149.803 246.223 148.561 248.69 147.92 251.34C147.611 252.664 147.606 254.041 147.905 255.368C148.205 256.695 148.802 257.936 149.65 259C152.48 262.25 157.65 262.26 161.65 260.69C165.65 259.12 169.09 256.32 173.02 254.57C176.196 253.334 179.458 252.331 182.78 251.57C186.113 250.809 189.254 249.373 192.01 247.35C194.65 245.16 196.56 241.86 196.27 238.46Z" fill="white"/>
<path d="M154.47 296.86C152.805 289.874 152.235 282.671 152.78 275.51C152.987 274.238 152.905 272.936 152.54 271.7C151.978 270.795 151.107 270.125 150.088 269.812C149.07 269.5 147.973 269.566 147 270C142.86 272 141.75 274.14 140.73 278.64C139.71 283.14 140.17 287.85 140.93 292.4C141.69 296.95 142.79 301.4 145.72 304.76C147.39 306.7 150.1 308.23 152.46 307.23C153.319 306.779 154.041 306.106 154.551 305.281C155.061 304.456 155.34 303.51 155.36 302.54C155.36 300.612 155.059 298.696 154.47 296.86Z" fill="white"/>
<path d="M358 284.59C357.428 291.751 355.741 298.779 353 305.42C352.411 306.563 352.09 307.824 352.06 309.11C352.318 310.15 352.947 311.061 353.829 311.67C354.711 312.28 355.785 312.546 356.85 312.42C361.42 311.78 363.13 310.11 365.49 306.15C367.85 302.19 368.88 297.57 369.56 293C370.24 288.43 370.56 283.9 368.83 279.77C367.83 277.4 365.73 275.11 363.18 275.34C362.229 275.506 361.34 275.924 360.605 276.55C359.87 277.176 359.316 277.987 359 278.9C358.38 280.735 358.043 282.653 358 284.59Z" fill="white"/>
<path d="M367.67 252.19C367.26 249.19 365.54 244.91 358.73 246.33L356.73 247.39C355.617 248.447 354.856 249.822 354.552 251.327C354.248 252.831 354.415 254.393 355.03 255.8C355.66 257.178 356.735 258.305 358.083 258.998C359.431 259.69 360.973 259.91 362.46 259.62C365.42 259 368.08 255.18 367.67 252.19Z" fill="white"/>
<g opacity="0.3">
<path d="M228.68 189.29V194.14C237.844 195.691 247.254 194.854 256 191.71C256 191.71 233.7 191.24 228.68 189.29Z" fill="#A86E46"/>
</g>
<path d="M226.64 188.76C227.334 188.867 228.021 189.01 228.7 189.19C230.02 189.48 231.93 189.85 234.32 190.19C240.555 191.023 246.84 191.43 253.13 191.41C259.417 191.441 265.698 191.04 271.93 190.21C274.32 189.87 276.24 189.49 277.56 189.21C278.234 189.024 278.919 188.877 279.61 188.77C279.445 188.85 279.275 188.916 279.1 188.97C278.76 189.08 278.26 189.24 277.61 189.42C276.3 189.77 274.38 190.21 271.99 190.6C265.749 191.557 259.444 192.025 253.13 192C246.817 192.029 240.511 191.567 234.27 190.62C231.87 190.23 229.96 189.8 228.65 189.45C227.99 189.28 227.49 189.12 227.15 189C226.973 188.936 226.802 188.856 226.64 188.76Z" fill="#A86E46"/>
</svg>
